<svg xmlns="http://www.w3.org/2000/svg" width="19.825" height="19.798" viewBox="0 0 19.825 19.798">
  <g id="Group_2182" data-name="Group 2182" transform="translate(-2372.741 -698.8)">
    <path id="Path_4473" data-name="Path 4473" d="M2375.237,700.42c0-.336-.007-.644,0-.951a.62.62,0,1,1,1.234.012c.01.3.01.592.016.888,0,.01.016.02.041.051h2.631c0-.329-.006-.635,0-.941a.621.621,0,0,1,.59-.678.628.628,0,0,1,.642.672c.012.306,0,.613,0,.945h2.675c0-.3-.006-.6,0-.905.011-.444.269-.725.642-.712s.583.279.592.716c.006.271.005.541.01.812a.331.331,0,0,0,.036.088c.168.021.345.038.521.066a2.218,2.218,0,0,1,1.9,2.159c.018,1.121.009,2.243.006,3.364a.621.621,0,1,1-1.233.015c-.01-1.1.007-2.191-.009-3.287a.973.973,0,0,0-1.219-.995c-.061.462.159,1.163-.627,1.16s-.587-.691-.638-1.193h-2.632c-.079.485.137,1.227-.693,1.192-.749-.031-.51-.721-.6-1.192H2376.5c-.08.489.146,1.142-.643,1.2-.425.033-.538-.195-.65-1.176a.983.983,0,0,0-1.206,1.029c-.01,1.328,0,2.655,0,3.983q0,3.422,0,6.844c0,.94.362,1.3,1.315,1.3q2.4,0,4.8,0a1.431,1.431,0,0,1,.384.026.612.612,0,0,1-.108,1.2c-.294.025-.592.011-.889.011H2375.2a2.282,2.282,0,0,1-2.442-2.439c0-3.519.039-7.039-.02-10.557A2.445,2.445,0,0,1,2375.237,700.42Z" fill="#0c91e9"/>
    <path id="Path_4474" data-name="Path 4474" d="M2495.729,826.817a5.364,5.364,0,1,1,5.346-5.38A5.378,5.378,0,0,1,2495.729,826.817Zm-.013-1.24a4.125,4.125,0,1,0-4.134-4.166A4.125,4.125,0,0,0,2495.716,825.577Z" transform="translate(-108.509 -108.219)" fill="#0c91e9"/>
    <path id="Path_4475" data-name="Path 4475" d="M2408.332,828.031c-.85,0-1.7,0-2.55,0-.455,0-.733-.239-.736-.611s.275-.622.725-.623q2.55-.006,5.1,0a.62.62,0,1,1,.012,1.232C2410.031,828.036,2409.182,828.031,2408.332,828.031Z" transform="translate(-29.806 -118.095)" fill="#0c91e9"/>
    <path id="Path_4476" data-name="Path 4476" d="M2407.518,785.27c-.593,0-1.186.007-1.779,0a.621.621,0,1,1,0-1.233q1.779-.012,3.559,0a.631.631,0,0,1,.694.621.619.619,0,0,1-.694.612c-.593.007-1.186,0-1.779,0Z" transform="translate(-29.805 -78.638)" fill="#0c91e9"/>
    <path id="Path_4477" data-name="Path 4477" d="M2524.677,852.161c-.534,0-1.021,0-1.508,0s-.771-.246-.769-.626.287-.6.778-.609c.475,0,.951,0,1.5,0,0-.556-.032-1.093.016-1.623a.814.814,0,0,1,.354-.568.71.71,0,0,1,.625.085.843.843,0,0,1,.23.573c.031.5.01.995.01,1.533.536,0,1.023,0,1.509,0s.764.241.753.629c-.01.371-.286.6-.747.605-.487.006-.974,0-1.515,0,0,.544.007,1.054,0,1.564a.638.638,0,0,1-.538.693.611.611,0,0,1-.693-.643C2524.668,853.25,2524.677,852.726,2524.677,852.161Z" transform="translate(-138.087 -138.302)" fill="#0c91e9"/>
  </g>
</svg>
