<svg xmlns="http://www.w3.org/2000/svg" width="22.375" height="29.834" viewBox="0 0 22.375 29.834">
  <g id="Group_2208" data-name="Group 2208" transform="translate(817.888 -405.443)">
    <path id="Path_4542" data-name="Path 4542" d="M-795.781,411.755q-3.018-3.015-6.033-6.034a.871.871,0,0,0-.646-.278q-6.45,0-12.9,0a2.4,2.4,0,0,0-1.123.256,2.482,2.482,0,0,0-1.4,2.363q0,4.572,0,9.145,0,7.7,0,15.406a2.642,2.642,0,0,0,.616,1.8,2.729,2.729,0,0,0,1.6.862h17.945a.294.294,0,0,1,.075-.038,2.456,2.456,0,0,0,2.135-2.506q.01-10.164.005-20.328A.871.871,0,0,0-795.781,411.755Zm-5.952-4.043,3.938,3.938c-.87,0-1.828.033-2.782-.011a1.176,1.176,0,0,1-1.151-1.258C-801.748,409.47-801.733,408.558-801.733,407.712Zm4.979,24.906a1.278,1.278,0,0,1-1.425,1.42q-8.519,0-17.039,0a1.283,1.283,0,0,1-1.43-1.444q0-6.131,0-12.263,0-6.088,0-12.176a1.464,1.464,0,0,1,.329-1.054,1.3,1.3,0,0,1,1.017-.416q6.058,0,12.116-.006c.192,0,.218.068.217.235q-.01,1.7,0,3.408a2.474,2.474,0,0,0,1.846,2.485,2.833,2.833,0,0,0,.806.1c1.1,0,2.194,0,3.291,0,.2,0,.281.027.281.261Q-796.759,422.889-796.754,432.617Z" transform="translate(0)" fill="#fff"/>
    <path id="Path_4543" data-name="Path 4543" d="M-769.671,517.208a3.31,3.31,0,0,0-1.109-.246,10.137,10.137,0,0,0-2.534.188.48.48,0,0,1-.42-.1,20.447,20.447,0,0,1-2.795-2.7.319.319,0,0,1-.07-.349c.119-.361.24-.723.344-1.088a8.417,8.417,0,0,0,.51-2.661,3.953,3.953,0,0,0-.139-.986,1.66,1.66,0,0,0-1.391-1.372,1.936,1.936,0,0,0-2.364,1.2,4.067,4.067,0,0,0,0,3,9.522,9.522,0,0,0,1.273,2.195.37.37,0,0,1,.092.383c-.465,1.322-.845,2.673-1.381,3.97a.6.6,0,0,1-.315.343q-1.59.756-3.17,1.531a7.262,7.262,0,0,0-1.7,1.086,1.6,1.6,0,0,0,.529,2.844,2.564,2.564,0,0,0,2.656-.609,10.664,10.664,0,0,0,2.759-3.564.813.813,0,0,1,.487-.427,30.274,30.274,0,0,1,4.281-1.144.417.417,0,0,1,.359.085c.487.348.977.692,1.475,1.024a2.579,2.579,0,0,0,2.424.466,1.62,1.62,0,0,0,1.107-1.5A1.414,1.414,0,0,0-769.671,517.208Zm-13.021,5.677a1.139,1.139,0,0,1-1.212.229c-.2-.087-.24-.21-.088-.369a2.39,2.39,0,0,1,.385-.349,17.472,17.472,0,0,1,2.593-1.336A7.04,7.04,0,0,1-782.692,522.885Zm4.252-13.03c.071-.294.174-.568.547-.6.486-.037.65.093.716.581a3.782,3.782,0,0,1-.1,1.617c-.131.437-.26.875-.4,1.353A3.6,3.6,0,0,1-778.44,509.855Zm.454,8.372.822-2.482a19.863,19.863,0,0,0,1.822,1.776C-776.247,517.737-777.095,517.943-777.986,518.228Zm7.831.483c-.02.2-.148.266-.326.3a.976.976,0,0,1-.681-.146c-.247-.144-.487-.3-.731-.45a3.758,3.758,0,0,1,1.455.007C-770.29,518.454-770.133,518.5-770.155,518.711Z" transform="translate(-30.021 -94.93)" fill="#fff"/>
  </g>
</svg>
