<svg xmlns="http://www.w3.org/2000/svg" width="18.664" height="18.667" viewBox="0 0 18.664 18.667">
  <g id="Group_1786" data-name="Group 1786" transform="translate(242.5 -309.803)">
    <path id="Path_3371" data-name="Path 3371" d="M-231.559,328.324a9.2,9.2,0,0,0,5.4-3.037,9.014,9.014,0,0,0,2.236-4.89,9.1,9.1,0,0,0-1.825-6.906,9,9,0,0,0-5.474-3.473,9.063,9.063,0,0,0-7.587,1.7,9.084,9.084,0,0,0-3.478,5.471c-.058.266-.093.545-.126.815-.017.133-.033.267-.053.4-.007.048-.016.095-.024.142l-.009.047v1.087c.015.111.029.222.042.333.03.24.06.488.1.728a9.185,9.185,0,0,0,2.979,5.349,9.255,9.255,0,0,0,5.269,2.332l.393.045h1.093l.335-.042C-232.046,328.4-231.8,328.367-231.559,328.324Zm-1.607-.828h0a8.305,8.305,0,0,1-5.909-2.457,8.292,8.292,0,0,1-2.45-5.908,8.308,8.308,0,0,1,2.462-5.908,8.289,8.289,0,0,1,5.891-2.445h.018a8.378,8.378,0,0,1,8.348,8.355,8.3,8.3,0,0,1-2.452,5.908A8.3,8.3,0,0,1-233.166,327.5Z" transform="translate(0)" fill="#0c91e9"/>
    <path id="Path_3372" data-name="Path 3372" d="M-195.724,366.253a.533.533,0,0,0,.526-.207q1.189-1.192,2.38-2.381l1.042-1.041c.336-.336.336-.563,0-.9l-3.4-3.4-.019-.019a1.142,1.142,0,0,0-.151-.135.448.448,0,0,0-.51-.031.408.408,0,0,0-.243.44.823.823,0,0,0,.2.393c.544.559,1.106,1.119,1.65,1.662l.6.6c.031.031.061.064.1.106l.316.345h-1.758l-5.625,0a2.231,2.231,0,0,0-.276.012.476.476,0,0,0-.414.475.475.475,0,0,0,.417.475,2.009,2.009,0,0,0,.257.012h7.086l.136.277-.107.081-.057.041a.71.71,0,0,0-.087.068q-1.11,1.106-2.216,2.215l-.014.014a1.285,1.285,0,0,0-.122.132.476.476,0,0,0-.069.457A.482.482,0,0,0-195.724,366.253Z" transform="translate(-36.727 -43.037)" fill="#0c91e9"/>
  </g>
</svg>
