<svg xmlns="http://www.w3.org/2000/svg" width="15.447" height="20" viewBox="0 0 15.447 20">
  <path id="Path_4478" data-name="Path 4478" d="M167.773,326.118V309.242a1.565,1.565,0,0,0-1.562-1.562H153.888a1.565,1.565,0,0,0-1.562,1.562v16.877a1.565,1.565,0,0,0,1.562,1.562h12.324a1.565,1.565,0,0,0,1.562-1.562Zm-13.164-10.561h1.568a1.054,1.054,0,0,1,.691.25.8.8,0,0,1,.287.6v1.254a.8.8,0,0,1-.287.6,1.054,1.054,0,0,1-.691.25h-1.568a1.054,1.054,0,0,1-.691-.25.8.8,0,0,1-.287-.6v-1.254a.8.8,0,0,1,.287-.6,1.054,1.054,0,0,1,.691-.25Zm4.523,0H160.7a1.054,1.054,0,0,1,.691.25.8.8,0,0,1,.287.6v1.254a.8.8,0,0,1-.287.6,1.054,1.054,0,0,1-.691.25h-1.568a1.054,1.054,0,0,1-.691-.25.8.8,0,0,1-.287-.6v-1.254a.8.8,0,0,1,.287-.6,1.054,1.054,0,0,1,.691-.25Zm4.523,0h1.568a1.054,1.054,0,0,1,.691.25.8.8,0,0,1,.287.6v1.254a.8.8,0,0,1-.287.6,1.054,1.054,0,0,1-.691.25h-1.568a1.054,1.054,0,0,1-.691-.25.8.8,0,0,1-.287-.6v-1.254a.8.8,0,0,1,.287-.6,1.054,1.054,0,0,1,.691-.25Zm-9.047,3.885h1.568a1.054,1.054,0,0,1,.691.25.8.8,0,0,1,.287.6v1.254a.8.8,0,0,1-.287.6,1.054,1.054,0,0,1-.691.25h-1.568a1.054,1.054,0,0,1-.691-.25.8.8,0,0,1-.287-.6v-1.254a.8.8,0,0,1,.287-.6,1.054,1.054,0,0,1,.691-.25Zm4.523,0H160.7a1.054,1.054,0,0,1,.691.25.8.8,0,0,1,.287.6v1.254a.8.8,0,0,1-.287.6,1.054,1.054,0,0,1-.691.25h-1.568a1.054,1.054,0,0,1-.691-.25.8.8,0,0,1-.287-.6v-1.254a.8.8,0,0,1,.287-.6,1.054,1.054,0,0,1,.691-.25Zm4.523,0h1.568a1.054,1.054,0,0,1,.691.25.8.8,0,0,1,.287.6v5.14a.8.8,0,0,1-.287.6,1.054,1.054,0,0,1-.691.25h-1.568a1.054,1.054,0,0,1-.691-.25.8.8,0,0,1-.287-.6v-5.14a.8.8,0,0,1,.287-.6,1.054,1.054,0,0,1,.691-.25Zm-9.047,3.885h1.568a1.054,1.054,0,0,1,.691.25.8.8,0,0,1,.287.6v1.254a.8.8,0,0,1-.287.6,1.054,1.054,0,0,1-.691.25h-1.568a1.054,1.054,0,0,1-.691-.25.8.8,0,0,1-.287-.6v-1.254a.8.8,0,0,1,.287-.6,1.054,1.054,0,0,1,.691-.25Zm4.523,0H160.7a1.054,1.054,0,0,1,.691.25.8.8,0,0,1,.287.6v1.254a.8.8,0,0,1-.287.6,1.054,1.054,0,0,1-.691.25h-1.568a1.054,1.054,0,0,1-.691-.25.8.8,0,0,1-.287-.6v-1.254a.8.8,0,0,1,.287-.6,1.054,1.054,0,0,1,.691-.25Zm7.107-10.021a.685.685,0,0,1-.223.5.782.782,0,0,1-.535.209H154.618a.782.782,0,0,1-.535-.209.686.686,0,0,1-.223-.5v-3.119a.685.685,0,0,1,.223-.5.782.782,0,0,1,.535-.209h10.864a.782.782,0,0,1,.535.209.685.685,0,0,1,.223.5Z" transform="translate(-152.326 -307.68)" fill="#fff8f8" fill-rule="evenodd"/>
</svg>
