<svg id="_2089782" data-name="2089782" xmlns="http://www.w3.org/2000/svg" width="13.971" height="13.971" viewBox="0 0 13.971 13.971">
  <path id="Path_3875" data-name="Path 3875" d="M202.565,0A3.321,3.321,0,0,0,200.2.979l-2.6,2.6a3.95,3.95,0,0,1,2.216.253l1.622-1.622a1.6,1.6,0,1,1,2.258,2.258l-2.919,2.919a1.636,1.636,0,0,1-2.258,0l-1.234,1.236a3.343,3.343,0,0,0,4.727,0l2.919-2.919A3.343,3.343,0,0,0,202.565,0Z" transform="translate(-191.937 0)" fill="#828282"/>
  <path id="Path_3876" data-name="Path 3876" d="M6.078,168.052l-1.606,1.606A1.6,1.6,0,1,1,2.214,167.4l2.919-2.919a1.636,1.636,0,0,1,2.258,0l1.234-1.236a3.424,3.424,0,0,0-4.727,0L.979,166.165a3.343,3.343,0,1,0,4.727,4.727l2.569-2.569a4.233,4.233,0,0,1-.567.055A4.207,4.207,0,0,1,6.078,168.052Z" transform="translate(0 -157.901)" fill="#828282"/>
</svg>
