<svg xmlns="http://www.w3.org/2000/svg" width="19.433" height="17.667" viewBox="0 0 19.433 17.667">
  <g id="_709861" data-name="709861" transform="translate(0 -23.273)">
    <g id="Group_2004" data-name="Group 2004" transform="translate(3.165 25.236)">
      <g id="Group_2003" data-name="Group 2003">
        <path id="Path_3778" data-name="Path 3778" d="M99.447,75.21a.736.736,0,0,0-1.041,0l-5.589,5.567L91.2,79.159a.736.736,0,0,0-1.041,0l-6.551,6.551a.736.736,0,1,0,1.041,1.041l6.031-6.031,1.614,1.614a.736.736,0,0,0,1.04,0l6.11-6.085A.736.736,0,0,0,99.447,75.21Z" transform="translate(-83.393 -74.993)" fill="#0c91e9"/>
      </g>
    </g>
    <g id="Group_2006" data-name="Group 2006" transform="translate(0 23.273)">
      <g id="Group_2005" data-name="Group 2005" transform="translate(0 0)">
        <path id="Path_3779" data-name="Path 3779" d="M18.673,39.467H1.472V24.009a.736.736,0,0,0-1.472,0V40.2a.736.736,0,0,0,.736.736H18.673a.736.736,0,0,0,0-1.472Z" transform="translate(0 -23.273)" fill="#0c91e9"/>
      </g>
    </g>
    <g id="Group_2008" data-name="Group 2008" transform="translate(12.44 25.211)">
      <g id="Group_2007" data-name="Group 2007">
        <path id="Path_3780" data-name="Path 3780" d="M334.015,74.344h-5.521a.736.736,0,0,0,0,1.472h4.785V80.6a.736.736,0,1,0,1.472,0V75.08A.736.736,0,0,0,334.015,74.344Z" transform="translate(-327.758 -74.344)" fill="#0c91e9"/>
      </g>
    </g>
  </g>
</svg>
