<?xml version="1.0" standalone="no"?>
<!DOCTYPE svg PUBLIC "-//W3C//DTD SVG 20010904//EN"
 "http://www.w3.org/TR/2001/REC-SVG-20010904/DTD/svg10.dtd">
<svg version="1.0" xmlns="http://www.w3.org/2000/svg"
 width="512.000000pt" height="512.000000pt" viewBox="0 0 512.000000 512.000000"
 preserveAspectRatio="xMidYMid meet">

<g transform="translate(0.000000,512.000000) scale(0.100000,-0.100000)"
fill="#000000" stroke="none">
<path d="M1855 4946 c-94 -41 -124 -169 -58 -247 40 -47 79 -59 188 -59 l95 0
0 -163 0 -164 -101 -17 c-511 -90 -963 -439 -1189 -919 -171 -363 -195 -772
-68 -1151 73 -218 195 -427 340 -583 l48 -52 -229 -280 c-241 -294 -251 -310
-237 -386 9 -46 58 -101 103 -116 42 -13 104 -7 137 15 13 8 123 137 245 285
122 149 226 271 232 271 6 0 23 -8 37 -19 15 -10 65 -38 112 -61 258 -129 512
-186 798 -179 l133 4 25 -75 c29 -85 99 -229 146 -298 92 -137 243 -288 380
-380 121 -82 318 -162 473 -193 91 -18 339 -18 430 0 155 31 352 111 473 193
137 92 288 243 380 380 82 121 162 318 193 473 8 40 14 132 14 215 0 83 -6
175 -14 215 -31 155 -111 352 -193 473 -92 137 -243 288 -380 380 -118 80
-321 163 -469 192 l-56 11 -6 98 c-48 732 -613 1360 -1336 1487 l-101 17 0
163 0 162 109 4 c92 2 114 6 137 24 53 39 69 71 69 134 0 63 -16 95 -69 134
-26 20 -41 21 -394 23 -290 2 -373 0 -397 -11z m582 -962 c275 -40 507 -152
699 -336 147 -141 273 -349 328 -540 28 -98 56 -270 56 -346 l0 -51 -57 -11
c-150 -29 -352 -111 -471 -192 -137 -92 -288 -243 -380 -380 -111 -164 -191
-393 -208 -596 -7 -79 -7 -80 -37 -86 -55 -11 -218 -6 -325 10 -274 40 -493
154 -708 368 -161 160 -243 290 -309 489 -104 314 -80 685 64 982 243 499 780
774 1348 689z m1493 -1614 c158 -39 343 -143 446 -252 108 -113 197 -276 236
-434 32 -128 32 -360 0 -488 -42 -168 -147 -353 -259 -457 -116 -108 -273
-192 -429 -231 -128 -32 -360 -32 -488 0 -164 41 -348 144 -452 254 -108 113
-197 277 -235 434 -32 130 -32 362 -1 488 40 158 128 321 236 434 128 135 336
239 544 272 91 14 305 4 402 -20z"/>
<path d="M2175 3826 c-37 -17 -70 -52 -84 -89 -7 -19 -11 -187 -11 -490 l0
-461 -234 -236 c-253 -253 -258 -260 -241 -347 9 -49 69 -109 118 -118 88 -17
90 -15 385 278 205 205 275 281 283 307 6 22 9 220 7 552 -3 504 -4 517 -24
544 -11 15 -32 37 -46 47 -34 25 -113 32 -153 13z"/>
<path d="M3615 2226 c-37 -17 -70 -52 -84 -89 -7 -17 -11 -127 -11 -282 l0
-254 -269 -3 c-254 -3 -271 -4 -297 -24 -53 -39 -69 -71 -69 -134 0 -63 16
-95 69 -134 26 -20 43 -21 296 -24 l269 -3 3 -269 c3 -253 4 -270 24 -296 39
-53 71 -69 134 -69 63 0 95 16 134 69 20 26 21 43 24 296 l3 269 269 3 c253 3
270 4 296 24 53 39 69 71 69 134 0 63 -16 95 -69 134 -26 20 -43 21 -296 24
l-269 3 -3 269 c-3 253 -4 270 -24 296 -11 15 -32 37 -46 47 -34 25 -113 32
-153 13z"/>
<path d="M808 4775 c-163 -31 -306 -104 -412 -211 -235 -234 -291 -626 -136
-939 48 -96 128 -197 174 -219 39 -19 108 -21 139 -5 31 16 965 948 983 981
19 36 18 102 -2 144 -21 45 -136 135 -229 179 -150 73 -357 100 -517 70z m311
-316 l52 -24 -324 -323 -324 -324 -24 54 c-20 45 -23 70 -24 158 0 101 1 108
37 183 66 138 212 263 344 297 68 17 204 6 263 -21z"/>
<path d="M3368 4775 c-87 -17 -192 -54 -258 -92 -77 -45 -167 -121 -184 -157
-20 -42 -21 -108 -2 -144 18 -33 952 -965 983 -981 31 -16 100 -14 139 5 78
37 193 222 235 379 18 64 22 108 22 215 0 158 -20 247 -83 375 -123 249 -367
398 -670 410 -68 3 -132 -1 -182 -10z m346 -333 c109 -54 201 -148 254 -259
36 -75 37 -82 37 -183 -1 -88 -4 -113 -24 -158 l-24 -54 -323 323 -324 324 28
14 c55 30 117 41 205 37 80 -3 97 -8 171 -44z"/>
</g>
</svg>
