<svg xmlns="http://www.w3.org/2000/svg" width="12.683" height="12.68" viewBox="0 0 12.683 12.68">
  <g id="Group_2060" data-name="Group 2060" transform="translate(0 0)">
    <path id="Path_4125" data-name="Path 4125" d="M1265.108,4.442a1.051,1.051,0,0,0-.6.318q-2.614,2.612-5.227,5.229a1.063,1.063,0,0,0,.033,1.582q2.294,2.3,4.589,4.589c.2.2.4.405.6.6a1.066,1.066,0,1,0,1.5-1.514c-.354-.359-.712-.712-1.068-1.069q-1.665-1.663-3.33-3.325c-.078-.078-.075-.113,0-.188q2.188-2.182,4.371-4.367a1.058,1.058,0,0,0,.318-1.126,1.018,1.018,0,0,0-.835-.733c-.048-.024-.1.01-.153-.021h-.049C1265.214,4.452,1265.158,4.418,1265.108,4.442Z" transform="translate(-1258.943 -4.421)" fill="#fff"/>
    <path id="Path_4126" data-name="Path 4126" d="M1261.525,5.7a1.083,1.083,0,0,0-.726-.85,1.019,1.019,0,0,0-1.131.314q-1.025,1.076-2.047,2.155t-2.054,2.165a1.185,1.185,0,0,0-.343,1.051,1.154,1.154,0,0,0,.32.628q2.07,2.184,4.142,4.366a1,1,0,0,0,1.114.294,1.067,1.067,0,0,0,.723-.878c.024-.048-.009-.1.021-.153v-.1c-.027-.044-.005-.093-.013-.138a.944.944,0,0,0-.326-.672c-.365-.383-.725-.767-1.09-1.148-.47-.491-.935-.987-1.405-1.48-.264-.277-.522-.561-.792-.833-.063-.066-.065-.109,0-.172.418-.41.809-.846,1.215-1.268q.708-.735,1.405-1.48c.269-.285.552-.556.8-.863a.815.815,0,0,0,.2-.521c.007-.047-.014-.1.013-.141V5.829C1261.516,5.791,1261.549,5.743,1261.525,5.7Z" transform="translate(-1248.864 -4.268)" fill="#fff"/>
    <path id="Path_4127" data-name="Path 4127" d="M1259.572,4.421a.177.177,0,0,0,.153.021.023.023,0,0,1,0-.021Z" transform="translate(-1253.205 -4.421)" fill="#fff"/>
    <path id="Path_4128" data-name="Path 4128" d="M1259.715,4.442a.177.177,0,0,0,.153-.021h-.148A.022.022,0,0,1,1259.715,4.442Z" transform="translate(-1253.55 -4.421)" fill="#fff"/>
    <path id="Path_4129" data-name="Path 4129" d="M1255.214,5.784h.011l.01,0V5.631A.2.2,0,0,0,1255.214,5.784Z" transform="translate(-1242.552 -3.922)" fill="#fff"/>
    <path id="Path_4130" data-name="Path 4130" d="M1255.234,11.7l-.021,0a.2.2,0,0,0,.021.151Z" transform="translate(-1242.552 -1.421)" fill="#fff"/>
    <path id="Path_4131" data-name="Path 4131" d="M1255.236,11.874a.188.188,0,0,0-.021.153h.011l.01,0Z" transform="translate(-1242.553 -1.348)" fill="#fff"/>
    <path id="Path_4132" data-name="Path 4132" d="M1255.212,5.437c0,.044-.015.089.021.126V5.438A.037.037,0,0,1,1255.212,5.437Z" transform="translate(-1242.551 -4.002)" fill="#fff"/>
  </g>
</svg>
