<svg xmlns="http://www.w3.org/2000/svg" width="13.367" height="15.277" viewBox="0 0 13.367 15.277">
  <g id="copy-two-paper-sheets-interface-symbol" transform="translate(-43.714)">
    <g id="_x33__21_" transform="translate(43.714)">
      <g id="Group_2175" data-name="Group 2175">
        <path id="Path_4459" data-name="Path 4459" d="M53.739,0H48.011A1.989,1.989,0,0,0,46.1,1.91l-.552.013a1.912,1.912,0,0,0-1.835,1.9v9.548a1.989,1.989,0,0,0,1.91,1.91h7.161a1.989,1.989,0,0,0,1.91-1.91h.477a1.989,1.989,0,0,0,1.91-1.91V3.831Zm-.955,14.322H45.624a1,1,0,0,1-.955-.955V3.819a.946.946,0,0,1,.909-.939l.523-.016v8.593a1.989,1.989,0,0,0,1.91,1.91h5.729A1,1,0,0,1,52.785,14.322Zm3.342-2.864a1,1,0,0,1-.955.955H48.011a1,1,0,0,1-.955-.955V1.91a1,1,0,0,1,.955-.955h4.774c-.008,1.1,0,1.922,0,1.922a1.967,1.967,0,0,0,1.91,1.9h1.432ZM54.694,3.819c-.508,0-.955-.924-.955-1.419V.97h0l2.387,2.851Zm-.955,2.873h-4.3a.477.477,0,1,0,0,.954h4.3a.477.477,0,1,0,0-.954Zm0,2.385h-4.3a.477.477,0,1,0,0,.954h4.3a.477.477,0,1,0,0-.954Z" transform="translate(-43.714)" fill="#fff"/>
      </g>
    </g>
  </g>
</svg>
