<svg xmlns="http://www.w3.org/2000/svg" width="26.036" height="26" viewBox="0 0 26.036 26">
  <g id="Group_2181" data-name="Group 2181" transform="translate(-2372.741 -698.8)">
    <path id="Path_4473" data-name="Path 4473" d="M2376.019,700.927c0-.441-.009-.845,0-1.249a.814.814,0,1,1,1.621.016c.012.389.013.777.021,1.166,0,.013.02.026.054.067h3.456c0-.432-.008-.834,0-1.236a.816.816,0,0,1,.775-.891.824.824,0,0,1,.843.883c.015.4,0,.805,0,1.241h3.513c0-.393-.008-.791,0-1.189.015-.584.353-.952.843-.935.473.016.766.367.778.94.008.355.007.711.013,1.066a.42.42,0,0,0,.047.116c.22.028.453.05.685.087a2.913,2.913,0,0,1,2.5,2.835c.024,1.472.012,2.945.007,4.418,0,.566-.312.91-.795.915a.81.81,0,0,1-.825-.9c-.013-1.439.009-2.878-.012-4.317a1.278,1.278,0,0,0-1.6-1.307c-.08.607.209,1.527-.823,1.523s-.77-.908-.838-1.566h-3.457c-.1.637.179,1.611-.91,1.565-.983-.041-.67-.947-.787-1.565h-3.457c-.1.642.192,1.5-.844,1.581-.558.044-.707-.256-.854-1.544A1.291,1.291,0,0,0,2374.4,704c-.013,1.744,0,3.487,0,5.231q0,4.494,0,8.989c0,1.235.475,1.7,1.727,1.7q3.15,0,6.3,0a1.887,1.887,0,0,1,.5.034.8.8,0,0,1-.142,1.581c-.387.033-.778.014-1.167.014h-5.639a3,3,0,0,1-3.207-3.2c0-4.621.051-9.244-.026-13.864A3.211,3.211,0,0,1,2376.019,700.927Z" fill="#0c91e9"/>
    <path id="Path_4474" data-name="Path 4474" d="M2497.416,830.178a7.045,7.045,0,1,1,7.021-7.065A7.063,7.063,0,0,1,2497.416,830.178Zm-.017-1.628a5.418,5.418,0,1,0-5.429-5.471A5.418,5.418,0,0,0,2497.4,828.55Z" transform="translate(-105.66 -105.378)" fill="#0c91e9"/>
    <path id="Path_4475" data-name="Path 4475" d="M2409.361,828.419c-1.116,0-2.232,0-3.348,0-.6,0-.963-.314-.967-.8s.361-.817.952-.818q3.348-.008,6.7,0a.814.814,0,1,1,.015,1.619C2411.593,828.425,2410.477,828.418,2409.361,828.419Z" transform="translate(-29.024 -114.995)" fill="#0c91e9"/>
    <path id="Path_4476" data-name="Path 4476" d="M2408.292,785.659c-.779,0-1.558.009-2.337,0a.815.815,0,1,1,0-1.619q2.337-.016,4.674,0a.829.829,0,0,1,.912.815.814.814,0,0,1-.912.8c-.779.01-1.558,0-2.337,0Z" transform="translate(-29.022 -76.573)" fill="#0c91e9"/>
    <path id="Path_4477" data-name="Path 4477" d="M2525.39,853.248c-.7,0-1.341.005-1.98,0s-1.013-.323-1.01-.822.376-.794,1.021-.8c.624-.005,1.249,0,1.968,0,0-.73-.043-1.436.021-2.132a1.068,1.068,0,0,1,.466-.745.931.931,0,0,1,.82.112,1.108,1.108,0,0,1,.3.752c.041.651.013,1.307.013,2.013.7,0,1.343,0,1.982,0s1,.317.989.826c-.013.487-.376.787-.981.795-.64.008-1.279,0-1.99,0,0,.714.009,1.384,0,2.053a.838.838,0,0,1-.707.91.8.8,0,0,1-.909-.845C2525.379,854.678,2525.39,853.989,2525.39,853.248Z" transform="translate(-134.461 -134.671)" fill="#0c91e9"/>
  </g>
</svg>
