<svg xmlns="http://www.w3.org/2000/svg" width="18.699" height="18" viewBox="0 0 18.699 18">
  <g id="edit_modify_icon-icons.com_72390" transform="translate(-19.262 -20.466)">
    <path id="Path_4509" data-name="Path 4509" d="M33.685,28.823h0a.579.579,0,0,0-.109.163.436.436,0,0,0-.019.045c-.006.015-.014.029-.019.046l-1.343,4.97a.57.57,0,0,0,.55.719.545.545,0,0,0,.148-.02l4.778-1.291a.468.468,0,0,0,.5-.148L45.9,25.567a2.184,2.184,0,0,0,0-3.09l-1.392-1.392a2.238,2.238,0,0,0-3.089,0l-7.738,7.738Zm8.545-6.932a1.07,1.07,0,0,1,1.478,0L45.1,23.283a1.046,1.046,0,0,1,0,1.479l-.419.419L41.81,22.31ZM41,23.116l2.871,2.87L37.764,32.1l-2.871-2.871ZM34.557,30.5l2.057,2.057-3.062.828.828-3.062Z" transform="translate(-8.584)" fill="#0c91e9"/>
    <rect id="Rectangle_647" data-name="Rectangle 647" width="1.14" height="5.057" transform="matrix(0.707, 0.707, -0.707, 0.707, 32.345, 25.256)" fill="#0c91e9"/>
    <path id="Path_4510" data-name="Path 4510" d="M19.831,39.66H35.163a2.187,2.187,0,0,0,2.185-2.185V29.759H36.208v7.716a1.046,1.046,0,0,1-1.045,1.045H20.4V23.4h9.725v-1.14H19.831a.569.569,0,0,0-.569.57V39.089A.57.57,0,0,0,19.831,39.66Z" transform="translate(0 -1.194)" fill="#0c91e9"/>
  </g>
</svg>
