<svg xmlns="http://www.w3.org/2000/svg" width="22.375" height="29.834" viewBox="0 0 22.375 29.834">
  <g id="Group_2209" data-name="Group 2209" transform="translate(817.888 -405.443)">
    <path id="Path_4544" data-name="Path 4544" d="M-795.781,411.755q-3.018-3.015-6.034-6.034a.871.871,0,0,0-.646-.278q-6.45,0-12.9,0a2.4,2.4,0,0,0-1.123.256,2.482,2.482,0,0,0-1.4,2.363q0,4.572,0,9.145,0,7.7,0,15.407a2.641,2.641,0,0,0,.616,1.8,2.729,2.729,0,0,0,1.6.862h17.945a.293.293,0,0,1,.075-.038,2.456,2.456,0,0,0,2.135-2.506q.01-10.164.005-20.329A.871.871,0,0,0-795.781,411.755Zm-5.952-4.043,3.938,3.938c-.87,0-1.828.033-2.782-.011a1.176,1.176,0,0,1-1.151-1.258C-801.747,409.47-801.733,408.559-801.733,407.712Zm4.979,24.906a1.278,1.278,0,0,1-1.425,1.42q-8.519,0-17.039,0a1.283,1.283,0,0,1-1.43-1.444q0-6.132,0-12.263,0-6.088,0-12.176a1.464,1.464,0,0,1,.329-1.054,1.3,1.3,0,0,1,1.017-.416q6.058,0,12.117-.006c.193,0,.219.068.218.235q-.01,1.7,0,3.408a2.475,2.475,0,0,0,1.846,2.485,2.836,2.836,0,0,0,.806.1c1.1,0,2.194,0,3.291,0,.2,0,.281.026.281.261Q-796.759,422.889-796.754,432.618Z" fill="#fff"/>
    <path id="Path_4545" data-name="Path 4545" d="M-760.237,550.325l2.467,3.048c.629.778,1.261,1.554,1.887,2.334.234.291.262.61.038.814a.8.8,0,0,1-.484.207c-1.622.015-3.245.019-4.867,0a.86.86,0,0,1-.56-.288c-.583-.676-1.134-1.379-1.72-2.1-.085.1-.16.182-.231.269-.49.6-.983,1.2-1.465,1.813a.791.791,0,0,1-.674.326q-2.346-.012-4.692,0a.643.643,0,0,1-.662-.326.654.654,0,0,1,.147-.749q2.048-2.522,4.09-5.048c.073-.09.145-.182.234-.294-.077-.1-.152-.2-.23-.293q-2.026-2.5-4.05-5.006a1.127,1.127,0,0,1-.241-.453c-.076-.377.213-.667.647-.668,1.127,0,2.254,0,3.381,0,.457,0,.913.01,1.37,0a.779.779,0,0,1,.676.324c.551.69,1.11,1.374,1.686,2.085.073-.082.137-.149.2-.221.5-.618,1.008-1.234,1.5-1.858a.819.819,0,0,1,.7-.331c1.535.009,3.07.007,4.605,0,.3,0,.573.03.721.327a.689.689,0,0,1-.179.795q-2.032,2.5-4.055,5C-760.073,550.114-760.143,550.206-760.237,550.325Zm-9.176-5.239c.093.128.145.205.2.277q4.051,5,8.109,10a.563.563,0,0,0,.38.185c.971.015,1.943.009,2.914.008.071,0,.143-.01.246-.017-.05-.07-.074-.11-.1-.146q-4.106-5.072-8.218-10.138a.533.533,0,0,0-.364-.162c-.874-.014-1.748-.007-2.623-.007Zm8.408,4.292,3.431-4.239c-.059-.03-.075-.046-.091-.046-1.048,0-2.1-.006-3.143,0a.293.293,0,0,0-.2.077c-.57.694-1.133,1.394-1.7,2.1Zm-4.953,1.89-3.473,4.289c1.147,0,2.222,0,3.3,0a.286.286,0,0,0,.2-.09c.565-.69,1.124-1.385,1.689-2.084Z" transform="translate(-43.22 -128.349)" fill="#fff"/>
  </g>
</svg>
