<svg xmlns="http://www.w3.org/2000/svg" width="18.076" height="18.071" viewBox="0 0 18.076 18.071">
  <g id="Group_2186" data-name="Group 2186" transform="translate(-701.194 -731.147)">
    <path id="Path_4560" data-name="Path 4560" d="M701.2,747.856a1.3,1.3,0,0,0,1.293,1.356c2.76.006,5.719.007,9.048,0a1.239,1.239,0,0,0,1.255-1.059,7.461,7.461,0,0,0,.039-1.08c0-.129,0-.258,0-.386a.774.774,0,0,0-.206-.557.636.636,0,0,0-.461-.184h0a.679.679,0,0,0-.67.741c0,.2,0,.4,0,.6v.574h-8.941V732.491h8.941v.3c0,.1,0,.2,0,.3,0,.219,0,.425,0,.633a.672.672,0,0,0,.662.694h.006a.672.672,0,0,0,.67-.7c0-.283,0-.571,0-.851v-.292a1.325,1.325,0,0,0-1.423-1.431H702.62a1.324,1.324,0,0,0-1.425,1.428q0,1.592,0,3.183v4.251Q701.194,743.933,701.2,747.856Z" fill="#a7a0a0"/>
    <path id="Path_4561" data-name="Path 4561" d="M782.818,827.744a.742.742,0,0,0,.7-.219c1.231-1.224,2.48-2.476,3.554-3.553a.671.671,0,0,0-.012-1.041c-1.065-1.067-2.185-2.187-3.526-3.525a1.161,1.161,0,0,0-.181-.154.669.669,0,0,0-.868.14.659.659,0,0,0,.045.9c.411.419.835.841,1.244,1.249l.572.571c.032.033.063.066.1.109l.065.071.462.5h-11.1c-.052,0-.1,0-.147,0a.677.677,0,0,0-.629.659.64.64,0,0,0,.183.468.759.759,0,0,0,.547.21h11.141l-.457.5-.063.07c-.036.04-.067.075-.1.109q-.9.9-1.792,1.792a.648.648,0,0,0-.189.712A.633.633,0,0,0,782.818,827.744Z" transform="translate(-68.04 -83.276)" fill="#a7a0a0"/>
  </g>
</svg>
