<svg xmlns="http://www.w3.org/2000/svg" width="19.333" height="14.2" viewBox="0 0 19.333 14.2">
  <g id="Group_2153" data-name="Group 2153" transform="translate(-333.754 -362.823)">
    <path id="Path_125" data-name="Path 125" d="M343.355,362.823a10.476,10.476,0,0,0-9.233,5.758,2.818,2.818,0,0,0,.047,2.863,10.059,10.059,0,0,0,9.235,5.579h.016a10.046,10.046,0,0,0,9.234-5.548,2.951,2.951,0,0,0-.03-3.127A10.48,10.48,0,0,0,343.355,362.823Zm8.553,8.352a9.712,9.712,0,0,1-8.462,5.087h-.029a9.752,9.752,0,0,1-8.442-5.013,2.4,2.4,0,0,1,0-2.616,9.308,9.308,0,0,1,8.436-4.966h.1A9.312,9.312,0,0,1,351.9,368.7,2.333,2.333,0,0,1,351.908,371.175Z" fill="#3193f5"/>
    <path id="Path_126" data-name="Path 126" d="M344.07,374.666a3.879,3.879,0,0,0,2.746,1.192,3.966,3.966,0,0,0,.18-7.93h-.065a3.969,3.969,0,0,0-4,3.953A3.9,3.9,0,0,0,344.07,374.666Zm.61-5.019a3.247,3.247,0,0,1,2.242-.913,3.157,3.157,0,0,1-.031,6.315h-.025a3.163,3.163,0,0,1-3.128-3.184A3.123,3.123,0,0,1,344.68,369.647Z" transform="translate(-3.473 -1.931)" fill="#3193f5"/>
  </g>
</svg>
