<svg xmlns="http://www.w3.org/2000/svg" width="21.467" height="23" viewBox="0 0 21.467 23">
  <g id="factory" transform="translate(-16)">
    <g id="Group_1837" data-name="Group 1837" transform="translate(16 0)">
      <g id="Group_1836" data-name="Group 1836" transform="translate(0 0)">
        <path id="Path_3972" data-name="Path 3972" d="M37.278,10.02a.383.383,0,0,0-.38,0l-1.055.586L35.55.373A.383.383,0,0,0,35.167,0H32.483A.383.383,0,0,0,32.1.373L31.743,12.88l-1.176.652V10.35A.383.383,0,0,0,30,10.015l-6.331,3.517V10.35a.383.383,0,0,0-.569-.335l-6.9,3.833a.383.383,0,0,0-.2.335v8.433a.383.383,0,0,0,.383.383h20.7a.383.383,0,0,0,.383-.383V10.35A.383.383,0,0,0,37.278,10.02ZM32.856.767h1.938l.022.767H32.834ZM32.812,2.3h2.026l.249,8.72-2.566,1.425ZM26.35,22.233h-2.3V20.317h2.3Zm3.067,0h-2.3V20.317h2.3Zm7.283,0H30.183v-2.3a.383.383,0,0,0-.383-.383H23.667a.383.383,0,0,0-.383.383v2.3H16.767V14.409L22.9,11v3.182a.383.383,0,0,0,.569.335L29.8,11v3.182a.383.383,0,0,0,.569.335l3.615-2.008,1.681-.933L36.7,11Z" transform="translate(-16 0)"/>
      </g>
    </g>
    <g id="Group_1839" data-name="Group 1839" transform="translate(17.917 15.333)">
      <g id="Group_1838" data-name="Group 1838">
        <path id="Path_3973" data-name="Path 3973" d="M59.45,320H56.383a.383.383,0,0,0-.383.383v1.533a.383.383,0,0,0,.383.383H59.45a.383.383,0,0,0,.383-.383v-1.533A.383.383,0,0,0,59.45,320Zm-.383,1.533h-2.3v-.767h2.3Z" transform="translate(-56 -320)"/>
      </g>
    </g>
    <g id="Group_1841" data-name="Group 1841" transform="translate(24.817 15.333)">
      <g id="Group_1840" data-name="Group 1840">
        <path id="Path_3974" data-name="Path 3974" d="M203.45,320h-3.067a.383.383,0,0,0-.383.383v1.533a.383.383,0,0,0,.383.383h3.067a.383.383,0,0,0,.383-.383v-1.533A.383.383,0,0,0,203.45,320Zm-.383,1.533h-2.3v-.767h2.3Z" transform="translate(-200 -320)"/>
      </g>
    </g>
    <g id="Group_1843" data-name="Group 1843" transform="translate(31.717 15.333)">
      <g id="Group_1842" data-name="Group 1842">
        <path id="Path_3975" data-name="Path 3975" d="M347.45,320h-3.067a.383.383,0,0,0-.383.383v1.533a.383.383,0,0,0,.383.383h3.067a.383.383,0,0,0,.383-.383v-1.533A.383.383,0,0,0,347.45,320Zm-.383,1.533h-2.3v-.767h2.3Z" transform="translate(-344 -320)"/>
      </g>
    </g>
  </g>
</svg>
