<svg xmlns="http://www.w3.org/2000/svg" width="20.061" height="18.05" viewBox="0 0 20.061 18.05">
  <path id="history_120205" d="M2.972,12.164v-.289a8.864,8.864,0,1,1,1.341,4.693.493.493,0,1,1,.837-.522,7.891,7.891,0,1,0-1.191-4.171v.289l1.131-1.131a.493.493,0,0,1,.7.7L3.814,13.7a.493.493,0,0,1-.7,0L1.144,11.731a.493.493,0,0,1,.7-.7Zm12.521.737a.493.493,0,1,1-.389.906l-3.451-1.479a.493.493,0,0,1-.273-.3L9.9,7.593a.493.493,0,1,1,.935-.312l1.409,4.227Z" transform="translate(-0.811 -2.85)" fill="#0c91e9" stroke="#0c91e9" stroke-width="0.3"/>
</svg>
