<svg xmlns="http://www.w3.org/2000/svg" width="22.5" height="30.001" viewBox="0 0 22.5 30.001">
  <g id="Group_2212" data-name="Group 2212" transform="translate(817.888 -405.443)">
    <path id="Path_4546" data-name="Path 4546" d="M-795.657,411.79q-3.035-3.032-6.067-6.068a.876.876,0,0,0-.65-.279q-6.487,0-12.973,0a2.414,2.414,0,0,0-1.13.257,2.5,2.5,0,0,0-1.409,2.376q0,4.6,0,9.2,0,7.746,0,15.493a2.656,2.656,0,0,0,.619,1.809,2.744,2.744,0,0,0,1.608.866h18.045a.3.3,0,0,1,.076-.038,2.47,2.47,0,0,0,2.147-2.52q.01-10.221.005-20.442A.876.876,0,0,0-795.657,411.79Zm-5.985-4.065,3.96,3.96c-.875,0-1.838.033-2.8-.011a1.182,1.182,0,0,1-1.157-1.265C-801.657,409.492-801.642,408.576-801.642,407.724Zm5.006,25.045a1.285,1.285,0,0,1-1.433,1.428q-8.567,0-17.134,0a1.29,1.29,0,0,1-1.438-1.452q0-6.166,0-12.332,0-6.122,0-12.244a1.472,1.472,0,0,1,.331-1.06,1.31,1.31,0,0,1,1.023-.419q6.092,0,12.184-.006c.194,0,.22.068.219.236q-.01,1.713,0,3.427a2.488,2.488,0,0,0,1.856,2.5,2.853,2.853,0,0,0,.81.1c1.1,0,2.206,0,3.31,0,.2,0,.282.027.282.263Q-796.641,422.986-796.636,432.769Z" transform="translate(0)" fill="#fff"/>
    <g id="Group_2211" data-name="Group 2211" transform="translate(-812.954 414.929)">
      <g id="Group_2210" data-name="Group 2210" transform="translate(0 0)">
        <path id="Path_4547" data-name="Path 4547" d="M-744.538,549.5a.98.98,0,0,1-.306-.049q-1.147-.379-2.293-.762-1.08-.36-2.161-.719a.706.706,0,0,1-.515-.67c-.027-.448-.06-.9-.093-1.346q-.022-.3-.044-.61c0-.065,0-.125,0-.177,0-.02,0-.041,0-.063a.514.514,0,0,1,.514-.514h2.3a.514.514,0,0,1,.512.468c0,.05.008.1.012.15s.007.091.011.134c.651.222,1.328.447,2.061.685.72-.234,1.393-.457,2.051-.678.053-.678.1-1.351.151-2.056h-7.279a.514.514,0,0,1-.513-.478l-.532-7.588a.514.514,0,0,1,.137-.386.514.514,0,0,1,.376-.163h11.219a.514.514,0,0,1,.376.164.514.514,0,0,1,.137.387l-.163,2.305a.514.514,0,0,1-.513.478h-8.018l.136,1.939h7.674a.514.514,0,0,1,.376.163.514.514,0,0,1,.137.386l-.029.422c-.02.3-.04.592-.061.884q-.147,2.066-.3,4.133-.017.239-.035.478c-.022.3-.045.6-.064.9a.689.689,0,0,1-.493.647l-2,.665q-1.246.416-2.493.829A.877.877,0,0,1-744.538,549.5Zm.016-1.025h0Zm-4.278-1.422,1.987.661q1.134.378,2.269.754,1.224-.4,2.447-.814l1.8-.6c.016-.24.034-.48.052-.714q.018-.237.035-.474.148-2.066.3-4.132c.018-.25.035-.5.052-.754h-7.6a.514.514,0,0,1-.513-.478l-.208-2.967a.514.514,0,0,1,.137-.386.514.514,0,0,1,.376-.163h8.09l.091-1.278H-749.6l.46,6.56h7.352a.514.514,0,0,1,.376.164.514.514,0,0,1,.136.387l-.034.478c-.059.821-.114,1.6-.177,2.389a.7.7,0,0,1-.481.573c-.733.247-1.482.5-2.289.758a.893.893,0,0,1-.539.01c-.84-.273-1.607-.529-2.344-.781a.729.729,0,0,1-.454-.558q-.006-.035-.011-.068H-748.9l.019.261C-748.853,546.265-748.824,546.661-748.8,547.054Z" transform="translate(750.669 -534.68)" fill="#fff"/>
      </g>
    </g>
  </g>
</svg>
