<svg xmlns="http://www.w3.org/2000/svg" width="14.705" height="14.864" viewBox="0 0 14.705 14.864"><defs><style>.a{fill:#000;}</style></defs><g transform="translate(-252.506 -201.2)"><g transform="translate(252.506 209.743)"><path class="a" d="M257.565,218.423h-3.8a1.263,1.263,0,0,1-1.262-1.262v-3.8a1.263,1.263,0,0,1,1.262-1.262h3.8a1.263,1.263,0,0,1,1.262,1.262v3.8A1.263,1.263,0,0,1,257.565,218.423Zm-3.492-1.567h3.186v-3.186h-3.186Z" transform="translate(-252.506 -212.102)"/></g><g transform="translate(252.506 201.2)"><path class="a" d="M264.422,201.2h-9.127a2.791,2.791,0,0,0-2.788,2.789v3.78h1.567v-3.78a1.223,1.223,0,0,1,1.221-1.222h9.127a1.223,1.223,0,0,1,1.223,1.222v9.127a1.223,1.223,0,0,1-1.223,1.222h-3.78v1.567h3.78a2.792,2.792,0,0,0,2.79-2.789v-9.127A2.792,2.792,0,0,0,264.422,201.2Z" transform="translate(-252.506 -201.2)"/></g></g></svg>