<svg xmlns="http://www.w3.org/2000/svg" width="19.48" height="19.48" viewBox="0 0 19.48 19.48">
  <g id="layers_1_" data-name="layers (1)" transform="translate(0 0)">
    <g id="Group_2179" data-name="Group 2179" transform="translate(0 0)">
      <g id="Group_2178" data-name="Group 2178" transform="translate(0 0)">
        <path id="Path_4466" data-name="Path 4466" d="M.657,7.327c1.754,1.043,6.067,3.6,8.22,4.838a1.726,1.726,0,0,0,1.727,0c2.152-1.234,6.464-3.794,8.219-4.838a1.3,1.3,0,0,0,0-2.258C17.467,4.262,12.869,1.53,10.6.231A1.715,1.715,0,0,0,9.74,0a1.794,1.794,0,0,0-.867.234S2.709,3.854.658,5.068a1.3,1.3,0,0,0,0,2.259Z" transform="translate(0 0)" fill="#fff"/>
        <path id="Path_4467" data-name="Path 4467" d="M18.838,206.236a.439.439,0,0,0-.457,0c-2.384,1.415-5.591,3.312-7.338,4.313a2.654,2.654,0,0,1-2.607,0c-1.763-1.011-4.964-2.9-7.339-4.314a.441.441,0,0,0-.457,0,1.3,1.3,0,0,0,.016,2.246c1.754,1.043,6.067,3.6,8.22,4.838a1.726,1.726,0,0,0,1.727,0c2.152-1.234,6.464-3.794,8.219-4.838a1.3,1.3,0,0,0,.016-2.246Z" transform="translate(0 -197.613)" fill="#fff"/>
        <path id="Path_4468" data-name="Path 4468" d="M18.838,291.577a.441.441,0,0,0-.457,0c-2.384,1.415-5.591,3.312-7.338,4.313a2.654,2.654,0,0,1-2.607,0c-1.763-1.011-4.964-2.9-7.339-4.314a.443.443,0,0,0-.457,0,1.3,1.3,0,0,0,.016,2.246c1.754,1.043,6.067,3.6,8.22,4.838a1.726,1.726,0,0,0,1.727,0c2.152-1.234,6.464-3.794,8.219-4.838a1.3,1.3,0,0,0,.016-2.246Z" transform="translate(0 -279.413)" fill="#fff"/>
      </g>
    </g>
  </g>
</svg>
