<svg xmlns="http://www.w3.org/2000/svg" width="15.266" height="19.226" viewBox="0 0 15.266 19.226">
  <g id="Group_2184" data-name="Group 2184" transform="translate(332.299 -518.243)">
    <path id="Path_4556" data-name="Path 4556" d="M-317.042,527.463a2.083,2.083,0,0,0-1.8-2.015,8.289,8.289,0,0,0-1.03-.038c-.156,0-.317,0-.476,0h-.345v-.383q0-.442,0-.884c0-.64,0-1.3,0-1.954a3.893,3.893,0,0,0-2.609-3.7,5.459,5.459,0,0,0-.684-.177c-.1-.022-.209-.045-.314-.07h-.729c-.092.02-.186.039-.277.056a4.627,4.627,0,0,0-.6.143,3.877,3.877,0,0,0-2.733,3.817q0,.96,0,1.921v1.228h-1.432a2.155,2.155,0,0,0-2.225,2.222c0,2.62,0,5.184,0,7.621a2.143,2.143,0,0,0,2.21,2.217c3.6,0,7.244,0,10.841,0a2.391,2.391,0,0,0,.534-.054,2.139,2.139,0,0,0,1.676-2.123c0-1.477,0-2.978,0-4.43q0-.776,0-1.552c0-.178,0-.357,0-.535C-317.033,528.342-317.031,527.9-317.042,527.463Zm-10.36-5.28a2.683,2.683,0,0,1,2.468-2.69A2.738,2.738,0,0,1-322,521.564a2.5,2.5,0,0,1,.066.559c0,.772,0,1.557,0,2.315v.695c0,.027,0,.054,0,.086,0,.015,0,.03,0,.048l-.007.136H-327.4v-.326q0-.447,0-.894C-327.4,523.528-327.4,522.85-327.4,522.183Zm9.127,13.018a.923.923,0,0,1-1.034,1.03h-10.727a.922.922,0,0,1-1.025-1.02q0-3.773,0-7.545a.922.922,0,0,1,1.025-1.02h10.727a.923.923,0,0,1,1.035,1.029Q-318.274,531.438-318.275,535.2Z" fill="#a7a0a0"/>
    <path id="Path_4557" data-name="Path 4557" d="M-196.535,748.089a1.277,1.277,0,0,0-.3-.948,1.225,1.225,0,0,0-.836-.443c-.039,0-.077-.005-.115-.005a1.3,1.3,0,0,0-.835.31,1.256,1.256,0,0,0-.446.9,1.118,1.118,0,0,0,.318.851,1.144,1.144,0,0,1,.335.96c0,.069,0,.139,0,.213,0,.034,0,.068,0,.1h0c0,.073,0,.146,0,.218,0,.17,0,.347,0,.518a.891.891,0,0,0,.059.3.6.6,0,0,0,.664.352.614.614,0,0,0,.508-.6c.01-.523.006-1.058,0-1.518a.424.424,0,0,1,.175-.366A1.244,1.244,0,0,0-196.535,748.089Z" transform="translate(-126.874 -217.545)" fill="#a7a0a0"/>
  </g>
</svg>
