<svg xmlns="http://www.w3.org/2000/svg" width="12.683" height="12.68" viewBox="0 0 12.683 12.68">
  <g id="Group_2060" data-name="Group 2060" transform="translate(-1255.208 -4.421)">
    <path id="Path_4125" data-name="Path 4125" d="M1260.185,4.442a1.051,1.051,0,0,1,.6.318q2.614,2.612,5.227,5.229a1.063,1.063,0,0,1-.033,1.582q-2.294,2.3-4.589,4.589c-.2.2-.4.405-.6.6a1.066,1.066,0,1,1-1.5-1.514c.354-.359.712-.712,1.068-1.069q1.665-1.663,3.33-3.325c.078-.078.075-.113,0-.188q-2.188-2.182-4.371-4.367A1.058,1.058,0,0,1,1259,5.175a1.018,1.018,0,0,1,.835-.733c.048-.024.1.01.153-.021h.049C1260.08,4.452,1260.136,4.418,1260.185,4.442Z" transform="translate(1.54)" fill="#fff"/>
    <path id="Path_4126" data-name="Path 4126" d="M1255.229,5.7a1.083,1.083,0,0,1,.726-.85,1.019,1.019,0,0,1,1.131.314q1.025,1.076,2.047,2.155t2.054,2.165a1.185,1.185,0,0,1,.343,1.051,1.154,1.154,0,0,1-.32.628q-2.07,2.184-4.142,4.366a1,1,0,0,1-1.114.294,1.067,1.067,0,0,1-.723-.878c-.024-.048.009-.1-.021-.153v-.1c.027-.044.005-.093.013-.138a.944.944,0,0,1,.326-.672c.365-.383.725-.767,1.09-1.148.47-.491.935-.987,1.405-1.48.264-.277.522-.561.792-.833.063-.066.065-.109,0-.172-.418-.41-.809-.846-1.215-1.268q-.708-.735-1.405-1.48c-.269-.285-.552-.556-.8-.863a.815.815,0,0,1-.2-.521c-.007-.047.014-.1-.013-.141V5.829C1255.238,5.791,1255.205,5.743,1255.229,5.7Z" transform="translate(0 0.153)" fill="#fff"/>
    <path id="Path_4127" data-name="Path 4127" d="M1259.725,4.421a.177.177,0,0,1-.153.021.023.023,0,0,0,0-.021Z" transform="translate(1.799)" fill="#fff"/>
    <path id="Path_4128" data-name="Path 4128" d="M1259.868,4.442a.177.177,0,0,1-.153-.021h.148A.022.022,0,0,0,1259.868,4.442Z" transform="translate(1.858)" fill="#fff"/>
    <path id="Path_4129" data-name="Path 4129" d="M1255.229,5.784h-.011l-.01,0V5.631A.2.2,0,0,1,1255.229,5.784Z" transform="translate(0 0.499)" fill="#fff"/>
    <path id="Path_4130" data-name="Path 4130" d="M1255.208,11.7l.021,0a.2.2,0,0,1-.021.151Z" transform="translate(0 3)" fill="#fff"/>
    <path id="Path_4131" data-name="Path 4131" d="M1255.208,11.874a.188.188,0,0,1,.021.153h-.011l-.01,0Z" transform="translate(0 3.073)" fill="#fff"/>
    <path id="Path_4132" data-name="Path 4132" d="M1255.229,5.437c0,.044.015.089-.021.126V5.438A.037.037,0,0,0,1255.229,5.437Z" transform="translate(0 0.419)" fill="#fff"/>
  </g>
</svg>
