<svg xmlns="http://www.w3.org/2000/svg" width="15.111" height="15.11" viewBox="0 0 15.111 15.11">
  <path id="pen" d="M13.375.579a2.081,2.081,0,0,0-2.94,0l-.736.74L1.863,9.15l-.017.017s0,.008-.008.008-.021.025-.029.037,0,0,0,.008-.012.021-.021.033,0,.008-.008.012-.008.021-.013.033,0,0,0,.008L.021,14.536a.409.409,0,0,0,.1.424.418.418,0,0,0,.3.121.491.491,0,0,0,.133-.021l5.223-1.743s0,0,.008,0a.151.151,0,0,0,.037-.017.015.015,0,0,0,.008,0l.041-.025c.012-.008.025-.021.037-.029s.008,0,.008-.008.013-.008.017-.017L14.5,4.642a2.081,2.081,0,0,0,0-2.94ZM5.639,12.34,2.745,9.445,9.989,2.2,12.884,5.1Zm-3.3-2.125,2.529,2.529-3.8,1.264ZM13.915,4.06l-.441.445L10.58,1.61l.445-.445a1.247,1.247,0,0,1,1.763,0L13.919,2.3a1.252,1.252,0,0,1,0,1.763Zm0,0" transform="translate(0.001 0.029)" fill="#fff"/>
</svg>
