<svg xmlns="http://www.w3.org/2000/svg" width="45.392" height="45.392" viewBox="0 0 45.392 45.392">
  <g id="pie-chart" transform="translate(0.25 0.25)">
    <g id="Group_2202" data-name="Group 2202" transform="translate(0 0)">
      <g id="Group_2201" data-name="Group 2201">
        <path id="Path_4558" data-name="Path 4558" d="M20.576,42.524V22.268a.936.936,0,0,0-.935-.935C8.81,21.333,0,30.983,0,42.844A21.536,21.536,0,0,0,21.511,64.355c5.307,0,8.178-.961,11.818-3.954a.936.936,0,0,0,.144-1.3Zm.935,19.96A19.662,19.662,0,0,1,1.87,42.844C1.87,32.362,9.339,23.77,18.7,23.23V42.844a.93.93,0,0,0,.2.574l12.525,16.1C28.475,61.777,26.011,62.484,21.511,62.484Z" transform="translate(0 -19.463)" fill="#0635c9" stroke="#fff" stroke-width="0.5"/>
        <path id="Path_4559" data-name="Path 4559" d="M256.935,22.446h20.576a.936.936,0,0,0,.935-.935A21.536,21.536,0,0,0,256.935,0,.936.936,0,0,0,256,.935V21.511A.936.936,0,0,0,256.935,22.446Zm.935-20.553a19.666,19.666,0,0,1,18.682,18.683H257.871Z" transform="translate(-233.554)" fill="#0635c9" stroke="#fff" stroke-width="0.5"/>
        <path id="Path_4560" data-name="Path 4560" d="M296.963,277.333h-18.7a.934.934,0,0,0-.728,1.523l12.158,15.052a.929.929,0,0,0,.662.346c.022,0,.043,0,.065,0a.941.941,0,0,0,.638-.251,21.594,21.594,0,0,0,6.844-15.736A.936.936,0,0,0,296.963,277.333Zm-6.466,14.6L280.216,279.2h15.789A19.734,19.734,0,0,1,290.5,291.93Z" transform="translate(-253.006 -253.017)" fill="#0635c9" stroke="#fff" stroke-width="0.5"/>
      </g>
    </g>
  </g>
</svg>
