<svg id="reload" xmlns="http://www.w3.org/2000/svg" width="25.147" height="26.079" viewBox="0 0 25.147 26.079">
  <g id="Group_2012" data-name="Group 2012" transform="translate(0)">
    <path id="Path_3799" data-name="Path 3799" d="M20.759.966A12.556,12.556,0,0,1,29.52,4.494V.966a.966.966,0,1,1,1.932,0v5.8a.966.966,0,0,1-.661.917L25,9.61a.967.967,0,1,1-.61-1.835l4.279-1.424a10.581,10.581,0,1,0,2.641,5.4.966.966,0,1,1,1.9-.339l0,.017a12.7,12.7,0,0,1,.174,2.093A12.573,12.573,0,1,1,20.759.966Z" transform="translate(-8.236)" fill="#a9a9aa"/>
  </g>
</svg>
