<svg xmlns="http://www.w3.org/2000/svg" width="19" height="19" viewBox="0 0 19 19"><defs></defs><path class="a" d="M14.929,10.857a4.058,4.058,0,0,0-3.275,1.675L7.948,10.679A4.017,4.017,0,0,0,8.143,9.5a4.016,4.016,0,0,0-.195-1.179l3.705-1.853a4.054,4.054,0,1,0-.8-2.4,4.016,4.016,0,0,0,.195,1.179L7.347,7.1a4.071,4.071,0,1,0,0,4.792l3.705,1.853a4.015,4.015,0,0,0-.195,1.179,4.071,4.071,0,1,0,4.071-4.071Zm0-9.5a2.714,2.714,0,1,1-2.714,2.714A2.717,2.717,0,0,1,14.929,1.357ZM4.071,12.214A2.714,2.714,0,1,1,6.786,9.5a2.717,2.717,0,0,1-2.714,2.714Zm10.857,5.429a2.714,2.714,0,1,1,2.714-2.714A2.717,2.717,0,0,1,14.929,17.643Z" transform="translate(0 0)"/></svg>