<svg xmlns="http://www.w3.org/2000/svg" width="23.001" height="30.668" viewBox="0 0 23.001 30.668">
  <g id="Group_2215" data-name="Group 2215" transform="translate(817.888 -405.443)">
    <g id="Group_2213" data-name="Group 2213" transform="translate(-817.888 405.443)">
      <path id="Path_4548" data-name="Path 4548" d="M-795.163,411.931q-3.1-3.1-6.2-6.2a.9.9,0,0,0-.664-.285q-6.631,0-13.262,0a2.468,2.468,0,0,0-1.155.263,2.551,2.551,0,0,0-1.441,2.429q0,4.7,0,9.4,0,7.919,0,15.837a2.715,2.715,0,0,0,.633,1.849,2.8,2.8,0,0,0,1.643.886h18.446a.3.3,0,0,1,.078-.039,2.525,2.525,0,0,0,2.2-2.576q.01-10.448.005-20.9A.9.9,0,0,0-795.163,411.931Zm-6.118-4.156,4.048,4.048c-.894,0-1.879.034-2.86-.011a1.209,1.209,0,0,1-1.183-1.293C-801.3,409.582-801.281,408.646-801.281,407.775Zm5.118,25.6a1.314,1.314,0,0,1-1.465,1.46q-8.758,0-17.515,0a1.319,1.319,0,0,1-1.47-1.484q0-6.3,0-12.606,0-6.258,0-12.516a1.5,1.5,0,0,1,.339-1.084,1.339,1.339,0,0,1,1.046-.428q6.228,0,12.455-.006c.2,0,.225.07.224.241q-.01,1.752,0,3.5a2.544,2.544,0,0,0,1.9,2.555,2.915,2.915,0,0,0,.828.1c1.128,0,2.256,0,3.383,0,.208,0,.289.027.289.269Q-796.168,423.377-796.163,433.377Z" transform="translate(817.888 -405.443)" fill="#fff"/>
    </g>
    <g id="Group_2214" data-name="Group 2214" transform="translate(-813.792 417.21)">
      <path id="Path_4549" data-name="Path 4549" d="M-685.289,562.635a1.135,1.135,0,0,0-.35-.311.6.6,0,0,0-.78.243,1.908,1.908,0,0,0-.18.395q-1.268,3.585-2.532,7.171l-.047.132c-.111.315-.227.641-.32.97a.652.652,0,0,0,.4.794.68.68,0,0,0,.247.047.686.686,0,0,0,.6-.381,1.449,1.449,0,0,0,.086-.21l.009-.025q1.434-4.061,2.866-8.124c.028-.078.049-.157.069-.233l.018-.064.13-.162-.117-.119C-685.216,562.722-685.252,562.68-685.289,562.635Z" transform="translate(695.058 -562.263)" fill="#fff"/>
      <path id="Path_4550" data-name="Path 4550" d="M-621.012,585.195q-1.32-1.322-2.641-2.641l-.043-.043c-.415-.415-.789-.472-1.11-.168a.624.624,0,0,0-.211.448,1,1,0,0,0,.355.689l1.714,1.71.624.623-.366.365c-.661.66-1.308,1.307-1.954,1.953a2.167,2.167,0,0,0-.244.275.637.637,0,0,0,.056.852.646.646,0,0,0,.475.22.712.712,0,0,0,.371-.112,1.419,1.419,0,0,0,.257-.218l.011-.01q1.354-1.351,2.7-2.7A.736.736,0,0,0-621.012,585.195Z" transform="translate(635.4 -580.658)" fill="#fff"/>
      <path id="Path_4551" data-name="Path 4551" d="M-759.29,588.2l-.028-.028-1.852-1.854-.477-.477a1.164,1.164,0,0,0,.111-.1c.768-.764,1.552-1.549,2.228-2.226l.024-.024a1.612,1.612,0,0,0,.2-.233.655.655,0,0,0-.048-.846.647.647,0,0,0-.881-.1,1.658,1.658,0,0,0-.239.206q-1.353,1.35-2.7,2.7c-.454.454-.456.789-.009,1.237q1.361,1.363,2.724,2.723a1.409,1.409,0,0,0,.246.209.713.713,0,0,0,.377.116.653.653,0,0,0,.469-.209.647.647,0,0,0,.075-.848A1.54,1.54,0,0,0-759.29,588.2Z" transform="translate(763.294 -580.694)" fill="#fff"/>
    </g>
  </g>
</svg>
