<svg xmlns="http://www.w3.org/2000/svg" width="12.285" height="20.129" viewBox="0 0 12.285 20.129">
  <g id="Group_1833" data-name="Group 1833" transform="translate(-17.151 -2.001)">
    <path id="Path_3964" data-name="Path 3964" d="M29.435,13.452v5.86c-.011.469-.177.641-.64.649-.352.006-.7,0-1.058,0-.433,0-.469.037-.471.459s0,.85,0,1.275c0,.391-.05.436-.439.435s-.424-.046-.426-.448v-1.3c0-.371-.049-.416-.429-.419H24.887c-.48-.007-.652-.177-.653-.662V7.611c.01-.486.174-.656.653-.663.344-.006.687,0,1.031,0,.45,0,.483-.033.484-.473V5.227c0-.416.047-.448.425-.449.394,0,.438.043.44.461v1.3c0,.354.052.4.415.4h1.085c.5.007.666.173.667.676Q29.439,10.537,29.435,13.452Z" fill="#3193f5"/>
    <path id="Path_3965" data-name="Path 3965" d="M17.153,10.651V4.818c.011-.469.177-.64.64-.649.362-.006.723,0,1.085,0,.4,0,.44-.044.443-.432s0-.8,0-1.193c0-.5.033-.544.44-.543s.426.042.427.53V3.724c0,.393.042.443.456.446H21.7c.48.008.651.177.653.663V16.551c-.012.451-.18.626-.627.635-.37.007-.741,0-1.112,0s-.426.047-.429.418v1.22c0,.488-.034.529-.427.53s-.439-.04-.44-.516V17.617c0-.388-.046-.429-.443-.432H17.819c-.5-.007-.666-.173-.667-.677Q17.15,13.58,17.153,10.651Zm.867,0v5.208c0,.419.04.46.441.461h2.631c.344,0,.4-.053.4-.393V5.427c0-.339-.055-.391-.4-.393h-2.6c-.43,0-.468.037-.468.461q-.006,2.58,0,5.157Z" fill="#3193f5"/>
  </g>
</svg>
