<svg xmlns="http://www.w3.org/2000/svg" width="11.557" height="8.588" viewBox="0 0 11.557 8.588">
  <path id="Path_4548" data-name="Path 4548" d="M41.031,247.645l.378-.39,1.606-1.651q1.316-1.353,2.633-2.706c.189-.193.372-.394.577-.569a1.232,1.232,0,0,1,1.73.194,1.254,1.254,0,0,1-.134,1.7c-.659.665-1.31,1.337-1.965,2.006q-.837.856-1.673,1.713-1.126,1.156-2.25,2.313a1.233,1.233,0,0,1-1.1.382,1.139,1.139,0,0,1-.67-.341l-2.171-2.241c-.328-.339-.66-.675-.982-1.019a1.223,1.223,0,0,1,.548-2.019,1.194,1.194,0,0,1,1.257.34C39.543,246.112,40.278,246.868,41.031,247.645Z" transform="translate(-36.667 -242.061)" fill="#fff"/>
</svg>
