<svg xmlns="http://www.w3.org/2000/svg" width="19.833" height="19.826" viewBox="0 0 19.833 19.826">
  <g id="Group_2183" data-name="Group 2183" transform="translate(485.934 -75.123)">
    <path id="Path_4555" data-name="Path 4555" d="M-466.1,84.452v1.162c-.012.068-.026.136-.035.2-.047.358-.075.719-.142,1.073A9.682,9.682,0,0,1-468.965,92a9.669,9.669,0,0,1-5.341,2.8c-.374.064-.752.1-1.128.153H-476.6c-.056-.011-.112-.025-.169-.033-.541-.084-1.091-.129-1.621-.256a9.923,9.923,0,0,1-7.37-11.479,9.636,9.636,0,0,1,3.023-5.429,9.686,9.686,0,0,1,8.084-2.534,9.467,9.467,0,0,1,5.163,2.359,9.707,9.707,0,0,1,3.233,5.751C-466.188,83.7-466.151,84.076-466.1,84.452Zm-3.3,6.278a8.717,8.717,0,0,0-.658-12.108,8.745,8.745,0,0,0-12.7.841,8.672,8.672,0,0,0,.144,11.258,6.782,6.782,0,0,1,1.539-2.872,6.917,6.917,0,0,1,2.717-1.842,4.2,4.2,0,0,1-.761-6.245,4.17,4.17,0,0,1,5.834-.37,4.046,4.046,0,0,1,1.436,3.04A4.147,4.147,0,0,1-473.662,86,6.909,6.909,0,0,1-469.4,90.73Zm-6.452,3.057c.209-.017.583-.035.954-.081a8.5,8.5,0,0,0,4.047-1.618c.489-.36.482-.369.337-.975a5.637,5.637,0,0,0-6.452-4.273,5.658,5.658,0,0,0-4.634,4.8.244.244,0,0,0,.082.185A8.837,8.837,0,0,0-475.855,93.787Zm-.161-8.234a3.019,3.019,0,0,0,3.014-3,3.025,3.025,0,0,0-3.012-3.022,3.026,3.026,0,0,0-3.014,3.019A3.019,3.019,0,0,0-476.016,85.553Z" transform="translate(0)" fill="#a7a0a0"/>
  </g>
</svg>
