<svg xmlns="http://www.w3.org/2000/svg" width="159.602" height="133.749" viewBox="0 0 159.602 133.749">
  <g id="Group_2210" data-name="Group 2210" transform="translate(-1537 -261.125)">
    <path id="Path_4548" data-name="Path 4548" d="M-437.949-275.894a14.322,14.322,0,0,1,10.892.071,46.126,46.126,0,0,0,55.308-15.568,46.045,46.045,0,0,0,17.2-62.805,46.045,46.045,0,0,0-62.8-17.2,46.058,46.058,0,0,0-14.528,13.045,9.763,9.763,0,0,1-8.041.744,43.373,43.373,0,0,0-15.763-2.338.159.159,0,0,1-.159-.159h0c0-.035.018-.053.035-.089a28.828,28.828,0,0,0-6.472-40.253l-.028-.021c-.018-.018-.035-.018-.035-.035a28.866,28.866,0,0,0-40.3,6.523,28.866,28.866,0,0,0,6.522,40.3,28.852,28.852,0,0,0,3.987,2.412c3.223,1.629,4.676,6.482,2.568,9.387a43.616,43.616,0,0,0,9.793,60.9l.02.014.018.018a43.528,43.528,0,0,0,41.762,5.048Z" transform="translate(2045.097 667.089)" fill="#eef8ff" fill-rule="evenodd"/>
    <g id="Group_2204" data-name="Group 2204" transform="translate(2430.172 303.718)">
      <path id="Path_4561" data-name="Path 4561" d="M-761.63-.53q0,5.336,0,10.672a4.13,4.13,0,0,1,1.453-.889c-.009-.588,0-1.176.016-1.75.01-.451.019-.908.019-1.373V5.084h7.413c1.479,0,1.537-.058,1.537-1.519q0-13.48,0-26.961c0-1.654-.031-1.654-1.626-1.654h-45.176c-1.053.011-1.213.165-1.226,1.181,0,.285,0,.571,0,.877v1.523h-2.4l-5.839,0c-5.6,0-11.4.007-17.1-.019-1.32,0-1.486.335-1.594.9l-.135.7-.7.132-.091.019a2.607,2.607,0,0,1-.532.051c-1.369,0-2.755-.018-4.1-.036-3.108-.041-6.323-.083-9.451.1-5.5.325-9.848-.715-13.685-3.273-.024-.016-.1-.05-.155-.074l-.1-.047a1.253,1.253,0,0,0-1.066-.137A1.289,1.289,0,0,0-856.5-22.1c-.01,8.688-.01,16.628,0,24.274a1.233,1.233,0,0,0,.33,1.019,1.256,1.256,0,0,0,1.08-.152l.478-.232c1.645-.8,3.346-1.621,4.968-2.5a6.357,6.357,0,0,1,3.494-.581c.377.014.733.027,1.082.011l1.094-.05V.78q0,1.741,0,3.454c-.005,3.519-.01,6.844.031,10.228a3.079,3.079,0,0,0,.459,1.513c.921,1.435,1.881,2.881,2.818,4.287.485-.135.982-.278,1.5-.43-.99-1.487-1.888-2.848-2.726-4.133a3.652,3.652,0,0,1-.571-1.9c-.027-6.01-.021-12-.015-17.786,0-2.036,1.15-3.392,2.925-3.454,1.713-.059,2.964,1.2,3.184,3.2l.045.411c.415,3.795.844,7.719,1.309,11.57a1.556,1.556,0,0,0,.212.652,11.671,11.671,0,0,1,5.086,8.426q.611-.2,1.222-.391l.2-.062c-.043-.379-.1-.761-.175-1.136a12.791,12.791,0,0,0-4.06-6.944,4.127,4.127,0,0,1-1.175-2.276c-.2-1.205-.315-2.438-.431-3.631-.047-.48-.094-.963-.146-1.451l-.124-1.157h6.505V4.994h1.5V1.565h5.648V5.009h1.5V1.59h5.687V5.025h1.5V1.575h5.681V2.621c0,.79-.012,1.579-.023,2.366-.026,1.782-.051,3.466.052,5.167a18.674,18.674,0,0,1,0,2.233q.735,0,1.451.01c.022-2.235.017-4.45.012-6.776q0-1.5,0-3.017V1.558h5.672V7.883q0,1.106,0,2.212,0,1.346,0,2.692c.5.054,1,.114,1.506.178q0-2.393,0-4.8V5.139h7.414V13.98h1.527V-7.256c0-.081,0-.162,0-.243,0-.229-.006-.467.01-.719a2.835,2.835,0,0,1,2.758-2.8,2.788,2.788,0,0,1,2.02.768,2.947,2.947,0,0,1,.872,2.117c.022,2.145.019,4.322.016,6.428q0,1.266,0,2.531V3.21h1.488V-.885q0-5.348.008-10.7a3.121,3.121,0,0,1,.877-2.25,2.753,2.753,0,0,1,1.993-.772,2.86,2.86,0,0,1,2.793,3.045c.006.194,0,.388,0,.582V3.233h1.488V-.051q0-3.84,0-7.679c0-1.98,1.1-3.272,2.8-3.29a2.72,2.72,0,0,1,1.955.755,3.424,3.424,0,0,1,.908,2.5c.005,2.857,0,5.714,0,8.6V3.219h1.487V2.8c0-1.115,0-2.224,0-3.333a3.533,3.533,0,0,1,.945-2.6,2.662,2.662,0,0,1,1.977-.723C-763.05-3.816-761.631-2.92-761.63-.53Zm-87.729-2.287a2.21,2.21,0,0,1-.965,1.781c-.724.42-1.459.78-2.237,1.161-.286.14-.579.283-.877.433l-1.514.759v-22.6l1.514.758c.3.15.591.293.878.433.779.381,1.514.741,2.238,1.161a2.213,2.213,0,0,1,.964,1.783C-849.331-12.395-849.331-7.573-849.359-2.817Zm23.233.955h-8.418l-.128-.9c-.04-.279-.076-.559-.112-.84-.076-.6-.149-1.17-.263-1.729a4.5,4.5,0,0,0-4.849-3.59,4.55,4.55,0,0,0-4.068,4.39c-.011.326-.008.657,0,1.04,0,.195,0,.4,0,.618v1.046h-3.811v-16.3h21.65Zm26.848,1.788H-824.5V-19.932h25.223Zm33.257-5.083-1.279.292V-6.718c0-.372,0-.735,0-1.1a4.709,4.709,0,0,0-1.6-3.75,4.677,4.677,0,0,0-3.977-.761c-.12.025-.242.042-.382.06l-.971.137-.308-.758c-.9-2.22-2.349-3.261-4.437-3.186-1.9.069-3.214,1.1-4.028,3.147l-.3.746-.8-.093c-.067-.008-.135-.014-.2-.02a4.956,4.956,0,0,1-.628-.085,4.376,4.376,0,0,0-3.726.806,4.351,4.351,0,0,0-1.609,3.432c-.026,2.195-.02,4.431-.015,6.594q0,1.451,0,2.9V3.541h-7.382V-23.513h44.913V3.507h-7.4V2.461c0-.259-.007-.521-.014-.785a15.242,15.242,0,0,1,.032-1.934A4.676,4.676,0,0,0-761.6-4.243,4.863,4.863,0,0,0-766.021-5.157Z" transform="translate(0 0)" fill="#1ae5be"/>
      <g id="Group_2203" data-name="Group 2203" transform="translate(-856.5 -16.077)">
        <rect id="Rectangle_643" data-name="Rectangle 643" width="1.503" height="3.429" transform="translate(35.748 17.658)" fill="#0635c9"/>
        <path id="Path_4562" data-name="Path 4562" d="M-760.134,27.183V26.137h.048V24.561h-.048V23.515c0-.259-.007-.521-.014-.785a15.265,15.265,0,0,1,.032-1.934,4.676,4.676,0,0,0-1.478-3.985,4.863,4.863,0,0,0-4.421-.914l-1.279.292V14.335c0-.372,0-.735,0-1.1a4.708,4.708,0,0,0-1.6-3.75,4.677,4.677,0,0,0-3.977-.761c-.12.025-.242.042-.382.06l-.971.137-.308-.758c-.9-2.22-2.356-3.26-4.437-3.186-1.9.069-3.214,1.1-4.028,3.147l-.3.746-.8-.093c-.067-.008-.135-.014-.2-.02a4.956,4.956,0,0,1-.628-.085,4.375,4.375,0,0,0-3.726.806,4.351,4.351,0,0,0-1.608,3.432c-.026,2.195-.02,4.431-.015,6.594q0,1.451,0,2.9v2.186H-793.5l-5.716.052v4.29q0,1.125-.005,2.25c-.006,1.97-.013,4.008.028,6a4.183,4.183,0,0,0,.389,1.691c.961,1.969,1.958,3.964,2.922,5.894,1.032,2.065,2.1,4.2,3.128,6.315a3.371,3.371,0,0,1,.119,2.471c-1.895,5.029-3.865,10.123-5.771,15.05l-.592,1.53a6.506,6.506,0,0,1-6.772,4.637c-3.053,0-6.106,0-9.218,0h-5.554l.721-1.881c.115-.3.218-.577.329-.847l3.124-7.644c3.614-8.84,7.35-17.982,11-26.983A6.931,6.931,0,0,0-804.909,35c.043-2.728.037-5.4.03-8.227,0-.7,0-3.428,0-4.135h-1.494c0,.462-.011,2.946-.018,3.407-.026,1.782-.051,3.466.052,5.167a19.446,19.446,0,0,1-1.769,9.237c-1.179,2.658-2.22,5.322-3.322,8.142-.47,1.2-.943,2.413-1.43,3.631l-.358.894-9.732-2.993c-3.788-1.165-7.706-2.369-11.553-3.579a3.3,3.3,0,0,1-1.668-1.211c-1.855-2.719-3.723-5.524-5.711-8.575a3.651,3.651,0,0,1-.571-1.9c-.027-6.01-.021-12-.015-17.786,0-2.036,1.15-3.392,2.925-3.454,1.713-.059,2.965,1.2,3.184,3.2l.045.411c.415,3.795.844,7.719,1.309,11.57a1.555,1.555,0,0,0,.212.652,11.7,11.7,0,0,1,5.155,9.169h1.461v0a19.525,19.525,0,0,0-.286-2.329,12.791,12.791,0,0,0-4.06-6.943,4.127,4.127,0,0,1-1.175-2.276c-.164-1.015-.275-2.045-.374-3.054l-.006,0-.051-.579c-.046-.472-.093-.956-.145-1.446l-.124-1.157h.028c-.077-.778-.151-1.488-.22-2.1l-.072-.426c-.04-.279-.076-.559-.112-.84-.076-.6-.149-1.17-.263-1.729a4.5,4.5,0,0,0-4.849-3.59,4.549,4.549,0,0,0-4.068,4.39c-.011.326-.008.657,0,1.04,0,.195,0,.4,0,.618v1.046h-.033v1.5l.031,0,0,1.111q0,1.741,0,3.454c-.005,3.519-.01,6.844.031,10.228a3.079,3.079,0,0,0,.459,1.513c.987,1.54,2.021,3.091,3.022,4.592.91,1.364,1.85,2.775,2.756,4.179a2.735,2.735,0,0,1,.231,2.365c-3.562,8.233-7.284,16.739-11.063,25.28a2.439,2.439,0,0,1-1.938,1.3c-1.114.055-2.236.047-3.321.039-.386,0-.771-.006-1.157-.006h-.156c-1.3,0-1.391.1-1.391,1.441q0,11.858,0,23.716c0,1.3.094,1.4,1.436,1.4l14.446,0q21.355,0,42.709,0a22.081,22.081,0,0,0,21.3-15.063c1.367-3.868,2.741-7.808,4.07-11.618,3.1-8.877,6.3-18.057,9.652-27.015a41.226,41.226,0,0,0,2.794-11.693l-.009-4.108c-.005-.087-.01-.174-.018-.262a28.165,28.165,0,0,1-.042-3C-760.144,28.112-760.134,27.652-760.134,27.183Zm-75.509,20.6,21.85,6.728-1.641,3.933c-.8,1.928-1.6,3.828-2.389,5.729q-.467,1.12-.931,2.241c-.945,2.276-1.922,4.629-2.912,6.934a2.275,2.275,0,0,1-1.811,1.4c-5.177.03-10.279.034-15.57.034h-8.4Zm65.917,14.182c-.249.744-.489,1.459-.737,2.173h0l-.554,1.595q-3.389,9.752-6.786,19.5c-2.73,7.824-8.164,12.62-16.152,14.255a19.772,19.772,0,0,1-3.986.346c-11.282.012-22.711.015-33.946.015h-23.061V76.268h49.084c4.159,0,6.791-1.8,8.283-5.657q1.933-5,3.857-10l2.088-5.42c.09-.236.186-.469.293-.73l.524-1.287,21.793,6.71Zm8.1-23.193a3.433,3.433,0,0,1-.154,1.225c-1.739,4.814-3.49,9.624-5.267,14.5l-1.443,3.964-2.877-.866c-1.393-.418-2.773-.832-4.151-1.256l-1.775-.546c-4-1.23-8.14-2.5-12.2-3.8a3.408,3.408,0,0,1-1.869-1.582c-1.671-3.244-3.324-6.561-4.923-9.77l-1.061-2.125a2.576,2.576,0,0,1-.361-1.179c-.017-2.661-.016-5.379-.014-8.008V26.193h7.414v8.841h1.527V13.8c0-.081,0-.162,0-.243,0-.229-.006-.467.01-.719a2.835,2.835,0,0,1,2.758-2.8,2.793,2.793,0,0,1,2.02.768,2.947,2.947,0,0,1,.872,2.117c.023,2.145.019,4.322.016,6.428q0,1.266,0,2.531v2.386h1.488V20.169q0-5.348.008-10.7a3.121,3.121,0,0,1,.877-2.25,2.729,2.729,0,0,1,1.993-.772A2.86,2.86,0,0,1-775.944,9.5c.006.194,0,.388,0,.582V24.287h1.488V21q0-3.84,0-7.679c0-1.98,1.1-3.272,2.8-3.29a2.675,2.675,0,0,1,1.955.755,3.424,3.424,0,0,1,.908,2.5c.005,2.857,0,5.714,0,8.6v2.385h1.487v-.418c0-1.115,0-2.224,0-3.333a3.532,3.532,0,0,1,.945-2.6,2.659,2.659,0,0,1,1.976-.723c1.327.042,2.745.939,2.747,3.328q.006,9.061,0,18.122Z" transform="translate(856.494 -4.977)" fill="#0635c9"/>
        <rect id="Rectangle_644" data-name="Rectangle 644" width="1.503" height="3.414" transform="translate(28.598 17.658)" fill="#0635c9"/>
        <rect id="Rectangle_645" data-name="Rectangle 645" width="1.503" height="3.449" transform="translate(42.938 17.652)" fill="#0635c9"/>
      </g>
    </g>
  </g>
</svg>
