<svg xmlns="http://www.w3.org/2000/svg" width="52.281" height="52.908" viewBox="0 0 52.281 52.908">
  <g id="analytics" transform="translate(-7.948 -4.999)">
    <path id="Path_4563" data-name="Path 4563" d="M17.1,24.723a13.723,13.723,0,0,1,12.14-13.633,13.723,13.723,0,1,0-1.579,27.356,13.861,13.861,0,0,0,1.581-.091A13.724,13.724,0,0,1,17.1,24.723Z" transform="translate(-5.36 -5.369)" fill="#d4e1f4"/>
    <path id="Path_4564" data-name="Path 4564" d="M112.43,176.568h-2.008V142.62a.6.6,0,0,0-.6-.62h-6.044a.619.619,0,0,0-.628.62v33.949h-3.9v-26.5a.574.574,0,0,0-.605-.589H92.6a.589.589,0,0,0-.623.589v26.5h-3.9V166.216a.594.594,0,0,0-.611-.608H81.424a.6.6,0,0,0-.617.608v10.352h-3.9v-17.8a.642.642,0,0,0-.64-.64h-6.02a.612.612,0,0,0-.612.612v3.709a.632.632,0,1,0,1.265,0v-3.056h4.743v17.179H70.9v-9.7a.632.632,0,0,0-1.265,0v9.7h-2a.632.632,0,0,0-.639.625v2.642a.638.638,0,0,0,.639.632H112.43a.628.628,0,0,0,.627-.632v-2.642a.622.622,0,0,0-.627-.625Zm-8.016-33.3h4.743v33.3h-4.743Zm-11.172,7.483h4.743v25.821H93.243ZM82.071,166.872h4.743v9.7H82.071ZM111.792,179.2H68.265v-1.37h43.527Z" transform="translate(-52.828 -122.561)" fill="#1ae5be"/>
    <g id="Group_2205" data-name="Group 2205" transform="translate(7.948 4.999)">
      <path id="Path_4565" data-name="Path 4565" d="M38.559,149.323a.632.632,0,0,0-1.251.187c.029.193.063.388.1.579a.632.632,0,0,0,1.24-.251C38.615,149.668,38.585,149.495,38.559,149.323Z" transform="translate(-34.208 -133.63)" fill="#0635c9"/>
      <path id="Path_4566" data-name="Path 4566" d="M44.329,174.392A11.367,11.367,0,0,0,54.8,181.319a.632.632,0,1,0,0-1.265,10.1,10.1,0,0,1-9.312-6.158.632.632,0,0,0-1.164.5Z" transform="translate(-40.449 -155.751)" fill="#0635c9"/>
      <path id="Path_4567" data-name="Path 4567" d="M22.3,33.71A14.355,14.355,0,1,0,10.741,10.857a.632.632,0,1,0,1.018.748,13.2,13.2,0,0,1,2.573-2.626L21.724,19.95a.688.688,0,0,0,.524.331H35.361A13.091,13.091,0,1,1,9.832,15.373a.632.632,0,1,0-1.2-.389A14.356,14.356,0,0,0,22.3,33.71ZM35.388,19.016H23.536l8.451-8.451a13.024,13.024,0,0,1,3.4,8.272C35.386,18.9,35.387,18.957,35.388,19.016ZM15.351,8.268a13.048,13.048,0,0,1,15.742,1.4l-8.845,8.845Z" transform="translate(-7.948 -4.999)" fill="#0635c9"/>
    </g>
  </g>
</svg>
