<svg xmlns="http://www.w3.org/2000/svg" width="31.217" height="41.472" viewBox="0 0 31.217 41.472">
  <g id="Group_2216" data-name="Group 2216" transform="translate(-211 -147.999)">
    <g id="Group_2192" data-name="Group 2192" transform="translate(-407.579 40.607)">
      <path id="Path_4519" data-name="Path 4519" d="M635.631,107.392c.557.185,1.149.176,1.717.314,6.3,1.531,10.389,5.407,11.965,11.689a14.977,14.977,0,0,1-2.809,13.114q-6.025,8.042-12.057,16.08c-.275.367-.275.367-.551,0l-12.133-16.175a15.578,15.578,0,0,1,.875-19.926,15.319,15.319,0,0,1,9.835-5.013c.064-.007.138.011.157-.082Z" fill="#a937d0"/>
    </g>
    <g id="Group_2193" data-name="Group 2193" transform="translate(-941.477 228.953)">
      <path id="Path_4520" data-name="Path 4520" d="M1161-57.129h-1.778a8.974,8.974,0,0,1,5.378-8.11,6.163,6.163,0,0,1-2.7-5.258,5.888,5.888,0,0,1,1.867-4.288,6.174,6.174,0,0,1,8.7.057,6.224,6.224,0,0,1-.89,9.491,8.983,8.983,0,0,1,5.363,8.1h-1.781a7.015,7.015,0,0,0-3.034-5.768,6.844,6.844,0,0,0-4.289-1.266A7.089,7.089,0,0,0,1161-57.129Zm7.08-8.827a4.4,4.4,0,0,0,4.42-4.415,4.409,4.409,0,0,0-4.4-4.414,4.416,4.416,0,0,0-4.438,4.407A4.405,4.405,0,0,0,1168.08-65.955Z" transform="translate(0)" fill="#fff"/>
    </g>
  </g>
</svg>
