<?xml version="1.0" encoding="utf-8"?>
<!-- Generator: Adobe Illustrator 25.4.1, SVG Export Plug-In . SVG Version: 6.00 Build 0)  -->
<svg version="1.1" id="Layer_1" xmlns="http://www.w3.org/2000/svg" xmlns:xlink="http://www.w3.org/1999/xlink" x="0px" y="0px"
	 viewBox="0 0 142.3 40.4" style="enable-background:new 0 0 142.3 40.4;" xml:space="preserve">
<style type="text/css">
	.st0{fill:#04265F;}
	.st1{fill:#00C288;}
</style>
<rect x="70.5" class="st0" width="5.6" height="28.3"/>
<path class="st0" d="M87.7,12.2v14.2c0,1.5-0.2,2.8-0.5,3.9c-0.3,1-0.8,1.9-1.4,2.5c-0.6,0.6-1.4,1.1-2.4,1.4
	c-1,0.3-2.2,0.5-3.6,0.5H76v5.6h3.7c2.2,0,4.1-0.3,5.8-0.9c1.7-0.6,3.1-1.6,4.3-2.8c1.1-1.2,2-2.7,2.6-4.4c0.6-1.7,0.8-3.6,0.8-5.8
	V12.2H87.7z"/>
<rect x="59.3" y="34.8" class="st0" width="5.6" height="5.6"/>
<rect x="7.6" y="12.2" class="st0" width="5.6" height="5.6"/>
<rect x="32" y="34.8" class="st0" width="13.1" height="5.6"/>
<path class="st0" d="M50,22.7c-0.2,0-0.4,0-0.6-0.1c-0.2-0.1-0.5-0.2-0.8-0.3c-0.2-0.1-0.4-0.3-0.6-0.4c-0.2-0.2-0.3-0.4-0.5-0.7
	c-0.1-0.3-0.2-0.6-0.2-1.1v-7.9h-5.6v8.1c0,0.3,0,0.6-0.1,0.9c-0.1,0.3-0.2,0.5-0.4,0.7c-0.2,0.2-0.6,0.4-1.1,0.6
	c-0.5,0.2-1.3,0.3-2.2,0.3h-7.3c-0.5,0-0.9-0.1-1.3-0.2c-0.4-0.1-0.7-0.3-0.9-0.6c-0.3-0.3-0.5-0.6-0.6-1c-0.2-0.4-0.2-0.8-0.3-1.3
	v-7.5H22v16c0,1-0.1,2-0.3,2.8c-0.2,0.8-0.5,1.4-1,2c-0.5,0.5-1.2,1-2.1,1.3c-1,0.3-2.2,0.5-3.8,0.5H0v5.6h14.7c4.2,0,7.4-1,9.6-3
	c2.2-2,3.3-5.1,3.3-9.1v-0.4c0.7,0.3,1.5,0.4,2.3,0.5v0H38c2.8,0,5-0.7,6.6-1.9c0.6,0.6,1.3,1,2.2,1.3c1.1,0.4,2.3,0.6,3.7,0.6
	c0.1,0,13.9,0,14.1,0l0.7,0v-5.5l-14.8,0C50.4,22.8,50.3,22.8,50,22.7z"/>
<path class="st0" d="M142.3,16.5c0-8.8-6.9-16-15.6-16.5l-15.9,0h-6.7v6.5v6.6h6.7V6.5l15.7,0c5.1,0.4,9.2,4.7,9.2,10s-4,9.5-9.2,10
	v6.6c0.6,0,1.3-0.1,1.9-0.2l4.5,7.5h8.6l-6-10.5C139.6,26.9,142.3,22,142.3,16.5z"/>
<polygon class="st1" points="108,16.6 107.2,16.6 107.2,19.9 104,19.9 104,37.2 107.2,37.2 107.2,40.3 108,40.3 108,37.2 111,37.2 
	111,19.9 108,19.9 "/>
<polygon class="st1" points="119.4,13.1 118.5,13.1 118.5,16.5 115.3,16.5 115.3,37.2 118.5,37.2 118.5,40.3 119.4,40.3 119.4,37.2 
	122.4,37.2 122.4,16.5 119.4,16.5 "/>
</svg>
