<?xml version="1.0" encoding="utf-8"?>
<!-- Generator: Adobe Illustrator 25.4.1, SVG Export Plug-In . SVG Version: 6.00 Build 0)  -->
<svg version="1.1" id="Warstwa_3" xmlns="http://www.w3.org/2000/svg" xmlns:xlink="http://www.w3.org/1999/xlink" x="0px" y="0px"
	 viewBox="0 0 430 430" style="enable-background:new 0 0 430 430;" xml:space="preserve">
<style type="text/css">
	.st0{fill:#00C288;}
	.st1{fill:#04265F;}
</style>
<path class="st0" d="M336.5,337.7c-0.1,0-0.1,0-0.2,0c-3.2-0.1-5.7-2.8-5.6-6l0.2-5.1c0-39.5-32.2-71.6-71.7-71.6h-88.7
	c-39.6,0-71.7,32.2-71.7,71.7c0,0.1,0,0.1,0,0.2l-0.2,4.5c-0.1,3.1-2.7,5.6-5.8,5.6c-3.2,0-5.8-2.6-5.8-5.8v0c0-0.1,0-0.1,0-0.2
	l0.2-4.4c0.1-45.9,37.4-83.2,83.3-83.2h88.7c46,0,83.4,37.4,83.4,83.4c0,0.1,0,0.1,0,0.2l-0.2,5.2
	C342.2,335.2,339.6,337.7,336.5,337.7z"/>
<path class="st1" d="M215,389.3c-96.1,0-174.3-78.2-174.3-174.3S118.9,40.7,215,40.7S389.3,118.9,389.3,215S311.1,389.3,215,389.3z
	 M215,52c-89.9,0-163,73.1-163,163s73.1,163,163,163s163-73.1,163-163S304.9,52,215,52z"/>
<path class="st0" d="M214.8,224.1c-34.2,0-61.9-27.8-61.9-61.9s27.8-61.9,61.9-61.9c18.4,0,35.6,8.1,47.4,22.1l0,0
	c9.3,11.1,14.5,25.3,14.5,39.8C276.7,196.3,249,224.1,214.8,224.1z M214.8,111.8c-27.8,0-50.3,22.6-50.3,50.3s22.6,50.3,50.3,50.3
	s50.3-22.6,50.3-50.3c0-11.8-4.2-23.3-11.8-32.3l0,0C243.8,118.4,229.7,111.8,214.8,111.8z"/>
</svg>
