<svg xmlns="http://www.w3.org/2000/svg" width="50.083" height="42.3" viewBox="0 0 50.083 42.3">
  <g id="Group_2195" data-name="Group 2195" transform="translate(-1266.959 -567.85)">
    <path id="Path_4311" data-name="Path 4311" d="M17.389,262.333l-.036.009-.03.008a.429.429,0,0,0-.049.014l-.048.014A1.758,1.758,0,0,0,16,264.07v18.154h3.154V264.07a1.772,1.772,0,0,1,.92-1.563A4.553,4.553,0,0,0,17.389,262.333Z" transform="translate(1250.96 327.37)" fill="#d4e1f4"/>
    <path id="Path_4312" data-name="Path 4312" d="M48.857,328.613h2.484a.557.557,0,0,0,0-1.113H48.857a.557.557,0,0,0,0,1.113Z" transform="translate(1226.655 268.133)" fill="#0635c9"/>
    <path id="Path_4313" data-name="Path 4313" d="M95.939,383.05H90.367a.557.557,0,1,0,0,1.113h5.572a.557.557,0,0,0,0-1.113Z" transform="translate(1188.996 217.736)" fill="#0635c9"/>
    <path id="Path_4314" data-name="Path 4314" d="M296.756,350.336a.557.557,0,0,0-.557-.556h-4.743a.557.557,0,1,0,0,1.113H296.2a.557.557,0,0,0,.557-.557Z" transform="translate(1006.56 247.92)" fill="#0635c9"/>
    <path id="Path_4315" data-name="Path 4315" d="M323.507,296.143h3.012a.557.557,0,0,0,0-1.113h-3.012a.557.557,0,1,0,0,1.113Z" transform="translate(977.482 297.592)" fill="#0635c9"/>
    <path id="Path_4316" data-name="Path 4316" d="M400.2,329.613h3.53a.557.557,0,0,0,0-1.113H400.2a.557.557,0,1,0,0,1.113Z" transform="translate(907.907 267.226)" fill="#0635c9"/>
    <path id="Path_4317" data-name="Path 4317" d="M432.371,398.66l-2.827.019a.557.557,0,0,0,0,1.113h0l2.827-.02a.557.557,0,1,0-.008-1.113Z" transform="translate(881.28 203.574)" fill="#0635c9"/>
    <path id="Path_4318" data-name="Path 4318" d="M334.332,392.127a.557.557,0,0,0-.557-.557h-3.269a.557.557,0,1,0,0,1.113h3.269A.557.557,0,0,0,334.332,392.127Z" transform="translate(971.132 210.006)" fill="#0635c9"/>
    <path id="Path_4319" data-name="Path 4319" d="M215.687,391.983h1.655a.557.557,0,1,0,0-1.113h-1.655a.557.557,0,1,0,0,1.113Z" transform="translate(1075.301 210.642)" fill="#0635c9"/>
    <path id="Path_4320" data-name="Path 4320" d="M54.046,434.04H50.3a.557.557,0,1,0,0,1.113h3.75a.557.557,0,0,0,0-1.113Z" transform="translate(1225.349 171.477)" fill="#0635c9"/>
    <path id="Path_4321" data-name="Path 4321" d="M184.905,428.34h-7.389a.557.557,0,1,0,0,1.113h7.389a.557.557,0,1,0,0-1.113Z" transform="translate(1109.93 176.647)" fill="#0635c9"/>
    <path id="Path_4322" data-name="Path 4322" d="M354.143,439.34h-5.766a.557.557,0,1,0,0,1.113h5.766a.557.557,0,1,0,0-1.113Z" transform="translate(954.92 166.668)" fill="#0635c9"/>
    <path id="Path_4323" data-name="Path 4323" d="M154.016,32.666a.557.557,0,0,0-.516-.078l-6.891,2.429a7.283,7.283,0,0,0-4.432,5.22,28.012,28.012,0,0,0-.672,3.973,10.632,10.632,0,0,0-1.676,3.031c-.014.039-.027.077-.04.116a25.525,25.525,0,0,0-1.6-4.856c0-.016,0-.031,0-.047l.047-1.582c.205-6.847-4.279-12.622-10-12.872a.557.557,0,0,0-.577.626l.7,5.591a9.314,9.314,0,0,0,3.348,6.323,11.536,11.536,0,0,0,5.441,2.389,24.52,24.52,0,0,1,1.727,5.559c.146.787.266,1.565.359,2.314a7.7,7.7,0,0,0,.114,1.048c.015.161.029.324.041.49.024.3.044.609.057.915a18.127,18.127,0,0,1-.693,6.414.557.557,0,0,0,1.058.346,19.215,19.215,0,0,0,.747-6.811c-.014-.318-.034-.639-.059-.951q-.02-.265-.045-.527a.008.008,0,0,0,0,0,.1.1,0,0,0,0-.011c-.029-.315-.065-.643-.109-1a8.332,8.332,0,0,1,.523-3.094,9.517,9.517,0,0,1,1.534-2.757l.9.056a10.151,10.151,0,0,0,1.359.093,8.256,8.256,0,0,0,5.4-1.917c2.468-2.062,3.988-5.691,4.17-9.955a.557.557,0,0,0-.225-.47Zm-24.542,1.426v-.009l-.618-4.912c4.677.612,8.272,5.459,8.275,11.242-.359-.632-.743-1.245-1.151-1.831l-2.6-3.732a.557.557,0,1,0-.914.636l2.6,3.732a22.576,22.576,0,0,1,1.488,2.464,8.662,8.662,0,0,1-7.078-7.589Zm19.883,8.146a7.308,7.308,0,0,1-5.916,1.572l-.041,0h0l5.12-4.681a.557.557,0,1,0-.751-.822L142.8,42.849a23.153,23.153,0,0,1,.458-2.335,6.178,6.178,0,0,1,3.724-4.446l6.1-2.149C152.762,37.506,151.428,40.508,149.357,42.238Z" transform="translate(1154.657 539.85)" fill="#1ae5be"/>
    <path id="Path_4324" data-name="Path 4324" d="M54.924,253.759a1.258,1.258,0,0,0-1.334.142c-1.578,1.234-3.874,2.032-8.936-1.4-3.346-2.266-7.092-.573-9.663,1.267a18.988,18.988,0,0,1-1.938.68c-2.565.75-6.219,1.29-9.056-.4A16.418,16.418,0,0,0,11.813,252l-.039.01-.038.01-.063.018c-.05.014-.075.023-.075.023a2.328,2.328,0,0,0-1.6,2.217v18.154a.557.557,0,0,0,.557.556H55.083a.557.557,0,0,0,.557-.556v-17.52A1.275,1.275,0,0,0,54.924,253.759Zm-.4,18.12H11.113v-17.6a1.207,1.207,0,0,1,.832-1.16l.023-.008h0l-.012,0,.013,0,.03-.009.008,0h0l.034-.009.026-.007h0l.013,0c1.387-.357,3.683-.026,6.754,3.581a.557.557,0,1,0,.848-.722A13.98,13.98,0,0,0,16,252.733a15.959,15.959,0,0,1,7.424,2.277,9.771,9.771,0,0,0,5.086,1.271,16.693,16.693,0,0,0,4.175-.574c-.134.132-.223.225-.258.263a14.513,14.513,0,0,1-3.9,2.421c-2.917,1.178-5.443.842-7.508-1a.557.557,0,1,0-.741.831c2.381,2.122,5.387,2.532,8.695,1.187a15.365,15.365,0,0,0,4.227-2.635.42.42,0,0,0,.03-.03s.153-.164.423-.422a18.539,18.539,0,0,1,1.888-1.575c.107-.046.164-.073.164-.073l-.016-.033c2.282-1.62,5.545-3.108,8.34-1.215a14.1,14.1,0,0,0,5.8,2.591,5.705,5.705,0,0,0,4.445-1.239.145.145,0,0,1,.161-.019.162.162,0,0,1,.091.156Z" transform="translate(1261.402 337.158)" fill="#0635c9"/>
  </g>
</svg>
