<svg xmlns="http://www.w3.org/2000/svg" width="48.534" height="47.173" viewBox="0 0 48.534 47.173">
  <g id="Group_2192" data-name="Group 2192" transform="translate(-1153.233 -435.214)">
    <path id="Path_4231" data-name="Path 4231" d="M408,284.38h2.375V304.3H408Z" transform="translate(784.539 177.229)" fill="#d4e1f4"/>
    <path id="Path_4232" data-name="Path 4232" d="M396.26,98.458h-5.9V96.38H389.17v2.671a.594.594,0,0,0,.594.594h1.913v14.743h-.643a.594.594,0,0,0-.594.594V134.9a.594.594,0,0,0,.594.594h4.551a.594.594,0,0,0,.594-.594V114.981a.594.594,0,0,0-.594-.594h-.643V99.645h1.913a.594.594,0,0,0,.594-.594V96.38H396.26Zm-1.27,35.853h-3.364V115.575h3.364Zm-1.237-19.923h-.89V99.645h.89Z" transform="translate(801.506 346.627)" fill="#0635c9"/>
    <path id="Path_4233" data-name="Path 4233" d="M53.2,186.9V182.54H52.016V186.9a2.238,2.238,0,0,0,0,4.316V212.19H53.2V191.212a2.238,2.238,0,0,0,0-4.316Zm-.594,3.209a1.051,1.051,0,1,1,1.052-1.051A1.051,1.051,0,0,1,52.61,190.105Z" transform="translate(1106.784 268.992)" fill="#1ae5be"/>
    <path id="Path_4234" data-name="Path 4234" d="M107.322,90.74H71.78v1.187H86.143l0,34.432h-1.6a3.724,3.724,0,0,0-3.724,3.725.594.594,0,0,0,.594.593H98.6a.594.594,0,0,0,.594-.594,3.728,3.728,0,0,0-3.724-3.724H93.952l.006-34.432h13.364a.594.594,0,1,0,0-1.187ZM87.33,91.927h5.441v3.388l-5.44-2.5Zm0,2.191,4.685,2.156L87.33,98.43Zm5.44,3.115v4.5l-4.886-2.248Zm-5.441,3.3,4.655,2.142-4.655,2.142Zm5.44,3.088v4.3l-4.674-2.151Zm-5.44,3.106,4.64,2.135L87.328,111Zm5.439,3.075v4.427l-4.81-2.212Zm-5.44,3.232L92,115.184l-4.673,2.15Zm5.439,3.1v4.507l-4.9-2.253Zm-5.439,3.311,4.642,2.136-4.642,2.136Zm0,5.579,5.438-2.5v3.833H87.327Zm8.146,2.518a2.541,2.541,0,0,1,2.467,1.943H82.073a2.539,2.539,0,0,1,2.467-1.943Z" transform="translate(1087.493 351.709)" fill="#1ae5be"/>
    <path id="Path_4235" data-name="Path 4235" d="M113.765,42.492a.594.594,0,0,0-.594-.592H71.23v1.187h41.349l.01,3.645H109.1a.594.594,0,0,0,0,1.187h4.082a.594.594,0,0,0,.594-.6Z" transform="translate(1087.988 395.717)" fill="#1ae5be"/>
    <path id="Path_4236" data-name="Path 4236" d="M124.671,71.457a.594.594,0,0,0,0-1.187h-.577a.594.594,0,0,0,0,1.187Z" transform="translate(1040.89 370.153)" fill="#1ae5be"/>
    <path id="Path_4237" data-name="Path 4237" d="M158.67,71.457a.594.594,0,0,0,0-1.187H147.834a.594.594,0,0,0,0,1.187Z" transform="translate(1019.499 370.153)" fill="#1ae5be"/>
    <path id="Path_4238" data-name="Path 4238" d="M18.8,33.737l-.69-2.685c-.181-.7-.331-1.419-.444-2.125a23.716,23.716,0,0,1-.287-2.895c-.007-.184-.012-.378-.015-.59,0-.1,0-.2,0-.3V18.214a.594.594,0,0,0-.594-.594h-5.44a.594.594,0,0,0-.594.611l.217,7.6c0,.087.006.176.012.26a9.675,9.675,0,0,0,2.869,6.341c.052.051.105.1.159.153l1.84,1.733a.594.594,0,0,0,.407.161h1.987a.594.594,0,0,0,.575-.741ZM11.942,18.807h4.236v1.251h-4.2Zm.069,2.438h4.167v1.25H12.047Zm.069,2.437h4.1l0,1.775v.006H12.132Zm.131,2.968h4.014c.036.593.093,1.189.172,1.781h-3.75a8.421,8.421,0,0,1-.435-1.781Zm.972,2.968h3.4c.105.577.232,1.156.379,1.729l.013.052H14.49a8.447,8.447,0,0,1-1.306-1.781Zm3.294,3.672-.747-.7h1.552l.18.7Z" transform="translate(1142.495 417.594)" fill="#0635c9"/>
  </g>
</svg>
