<svg xmlns="http://www.w3.org/2000/svg" width="39.086" height="39.089" viewBox="0 0 39.086 39.089">
  <g id="Group_2206" data-name="Group 2206" transform="translate(-921.957 -832.597)">
    <path id="Path_4417" data-name="Path 4417" d="M199.965,449.567h-37.8a.645.645,0,0,0-.643.643v37.8a.644.644,0,0,0,.643.642l37.8,0a.644.644,0,0,0,.643-.642v-37.8A.646.646,0,0,0,199.965,449.567Zm-.642,37.8H162.8V450.851h36.52Z" transform="translate(760.434 383.03)" fill="#0635c9"/>
    <path id="Path_4418" data-name="Path 4418" d="M166.227,454.913v11.845a.646.646,0,0,0,.643.642,12.64,12.64,0,0,0,12.487-12.49.644.644,0,0,0-.643-.64H166.871A.645.645,0,0,0,166.227,454.913Zm1.287.645h10.555l-.067.591a11.222,11.222,0,0,1-9.9,9.9l-.591.066Z" transform="translate(760.434 383.03)" fill="#1ae5be"/>
    <path id="Path_4419" data-name="Path 4419" d="M166.867,470.819a.647.647,0,0,0-.64.644v11.844a.644.644,0,0,0,.643.642h11.844a.644.644,0,0,0,.643-.642A12.645,12.645,0,0,0,166.867,470.819Zm11.2,11.843H167.515V472.107l.592.068a11.22,11.22,0,0,1,9.9,9.9Z" transform="translate(760.434 383.03)" fill="#1ae5be"/>
    <path id="Path_4420" data-name="Path 4420" d="M195.267,470.819a12.644,12.644,0,0,0-12.49,12.492.643.643,0,0,0,.643.639h11.844a.644.644,0,0,0,.643-.642V471.462A.646.646,0,0,0,195.267,470.819Zm-.645,11.844H184.067l.067-.592a11.22,11.22,0,0,1,9.9-9.9l.592-.068Z" transform="translate(760.434 383.03)" fill="#1ae5be"/>
    <path id="Path_4421" data-name="Path 4421" d="M182.775,454.913A12.64,12.64,0,0,0,195.264,467.4a.645.645,0,0,0,.642-.642V454.914a.645.645,0,0,0-.641-.643H183.418A.644.644,0,0,0,182.775,454.913Zm11.846.645v10.554l-.593-.066a11.225,11.225,0,0,1-9.9-9.9l-.066-.591Z" transform="translate(760.434 383.03)" fill="#1ae5be"/>
    <path id="Path_4422" data-name="Path 4422" d="M180.516,463.131a16.118,16.118,0,0,1-5.422,5.423.644.644,0,0,0-.22.882.671.671,0,0,0,.22.22,16.118,16.118,0,0,1,5.423,5.422.642.642,0,0,0,.882.22.641.641,0,0,0,.22-.219,16.121,16.121,0,0,1,5.422-5.421h0a.646.646,0,0,0,.22-.884.671.671,0,0,0-.22-.22,16.118,16.118,0,0,1-5.423-5.422.642.642,0,0,0-.4-.293.658.658,0,0,0-.158-.02.644.644,0,0,0-.55.312Zm.551,1.549.426.565a17.312,17.312,0,0,0,3.435,3.436l.567.425-.567.426a17.3,17.3,0,0,0-3.435,3.439l-.225.3v0l-.2.267-.426-.566a17.364,17.364,0,0,0-3.435-3.436l-.567-.426.567-.425a17.365,17.365,0,0,0,3.435-3.436Z" transform="translate(760.434 383.03)" fill="#0635c9"/>
  </g>
</svg>
