<svg xmlns="http://www.w3.org/2000/svg" width="29.367" height="45.736" viewBox="0 0 29.367 45.736">
  <g id="Group_2188" data-name="Group 2188" transform="translate(-1278.606 -304.121)">
    <path id="Path_4217" data-name="Path 4217" d="M103.373,38.907a1.9,1.9,0,0,1,.568-1.356A1.92,1.92,0,0,1,105.312,37h-2.733a1.929,1.929,0,0,0-1.371.563,1.878,1.878,0,0,0-.568,1.347,1.919,1.919,0,0,0,1.939,1.916h.08v15.4h-.084a1.912,1.912,0,0,0-1.369.553,1.889,1.889,0,0,0-.567,1.353,1.925,1.925,0,0,0,1.94,1.921h.08V75.355h-.08a1.959,1.959,0,1,0,0,3.918h2.733a1.939,1.939,0,0,1-1.939-1.939,1.982,1.982,0,0,1,.568-1.391,1.95,1.95,0,0,1,1.371-.587h.08V40.825h-.08a1.921,1.921,0,0,1-1.939-1.918Z" transform="translate(1178.514 270.038)" fill="#d4e1f4"/>
    <path id="Path_4218" data-name="Path 4218" d="M225.447,222.421a.547.547,0,0,0-.943,0l-2.212,3.775a3.11,3.11,0,1,0,5.366,0Zm.954,6.773a2.016,2.016,0,0,1-3.166-2.445l1.74-2.97,1.74,2.97A2.017,2.017,0,0,1,226.4,229.194Z" transform="translate(1068.315 101.754)" fill="#1ae5be"/>
    <path id="Path_4219" data-name="Path 4219" d="M122.187,45.811V31.488a2.486,2.486,0,0,0,0-4.88V12.276a2.481,2.481,0,0,0-.476-4.916H105.46V5.911A.912.912,0,0,0,104.549,5H99.477a.912.912,0,0,0-.911.911V7.36h-1.2A2.52,2.52,0,0,0,94.832,9.77a2.489,2.489,0,0,0,2.009,2.515V26.608a2.486,2.486,0,0,0,0,4.88V45.811a2.486,2.486,0,0,0,.476,4.926h24.394a2.486,2.486,0,0,0,.476-4.926ZM99.66,6.093h4.707V7.36H99.66ZM95.924,29.048a1.394,1.394,0,0,1,1.393-1.393h6.022V26.562h-5.4V12.331h.877a.547.547,0,0,0,0-1.093H97.357a1.42,1.42,0,0,1-1.431-1.323,1.394,1.394,0,0,1,1.391-1.462h24.354A1.419,1.419,0,0,1,123.1,9.776a1.394,1.394,0,0,1-1.391,1.463H103.55a.547.547,0,1,0,0,1.093h17.545V26.563h-5.4v1.093h6.022a1.393,1.393,0,1,1,0,2.785h-5.961v1.093h5.343V45.766H97.935V31.535h5.342V30.441h-5.96a1.394,1.394,0,0,1-1.393-1.393Zm25.787,20.6H97.317a1.393,1.393,0,1,1,0-2.785h24.394a1.393,1.393,0,1,1,0,2.785Z" transform="translate(1183.776 299.121)" fill="#0635c9"/>
    <path id="Path_4220" data-name="Path 4220" d="M150.07,100.374a.547.547,0,0,0-.547.547v.243a.547.547,0,0,0,1.093,0v-.243A.547.547,0,0,0,150.07,100.374Z" transform="translate(1134.066 212.437)" fill="#0635c9"/>
    <path id="Path_4221" data-name="Path 4221" d="M150.07,122.67a.547.547,0,0,0-.547.547v7.091a.547.547,0,1,0,1.093,0v-7.091A.547.547,0,0,0,150.07,122.67Z" transform="translate(1134.066 192.172)" fill="#0635c9"/>
    <path id="Path_4222" data-name="Path 4222" d="M185.694,192.692a7.048,7.048,0,1,0,7.048,7.048,7.048,7.048,0,0,0-7.048-7.048Zm0,13a5.954,5.954,0,1,1,5.954-5.954A5.954,5.954,0,0,1,185.694,205.694Z" transform="translate(1107.597 128.529)" fill="#1ae5be"/>
  </g>
</svg>
