<svg xmlns="http://www.w3.org/2000/svg" width="44.092" height="44.092" viewBox="0 0 44.092 44.092">
  <g id="Group_2207" data-name="Group 2207" transform="translate(-1272.25 -963)">
    <path id="Path_4381" data-name="Path 4381" d="M38.853,16.043c-.445-.027-.893-.043-1.344-.043a21.508,21.508,0,1,0,0,43.016c.452,0,.9-.016,1.344-.043a21.507,21.507,0,0,1,0-42.93Z" transform="translate(1256.788 947.538)" fill="#d4e1f4"/>
    <g id="Group_2122" data-name="Group 2122" transform="translate(1280.764 971.514)">
      <path id="Path_4383" data-name="Path 4383" d="M118.532,105a13.532,13.532,0,1,0,13.532,13.532A13.548,13.548,0,0,0,118.532,105Zm0,25.989a12.457,12.457,0,1,1,12.457-12.457A12.471,12.471,0,0,1,118.532,130.989Z" transform="translate(-105 -105)" fill="#1ae5be"/>
      <path id="Path_4385" data-name="Path 4385" d="M225.907,129.138a.543.543,0,0,0,.108-.011c.176-.036.356-.067.535-.094a.538.538,0,0,0-.159-1.064c-.2.03-.4.064-.59.1a.538.538,0,0,0,.106,1.065Z" transform="translate(-213.582 -124.905)" fill="#1ae5be"/>
      <path id="Path_4386" data-name="Path 4386" d="M134.089,137.442a.538.538,0,1,0-.421-.99,11.583,11.583,0,0,0-7.059,10.674.538.538,0,0,0,1.075,0A10.51,10.51,0,0,1,134.089,137.442Z" transform="translate(-123.672 -132.594)" fill="#1ae5be"/>
      <g id="Ellipse_366" data-name="Ellipse 366" transform="translate(8.445 8.443)" fill="none" stroke="#1ae5be" stroke-width="1">
        <ellipse cx="5.088" cy="5.258" rx="5.088" ry="5.258" stroke="none"/>
        <ellipse cx="5.088" cy="5.258" rx="4.588" ry="4.758" fill="none"/>
      </g>
    </g>
    <path id="Path_4387" data-name="Path 4387" d="M47.638,16.455h0a22.046,22.046,0,1,0,0,31.178h0a22.046,22.046,0,0,0,0-31.177Zm3.3,16.126h2.074a20.914,20.914,0,0,1-1.494,7.279l-1.913-.826a.538.538,0,1,0-.426.987l1.913.826a20.94,20.94,0,0,1-3.84,5.64L45.786,45.02a.538.538,0,1,0-.76.761l1.466,1.466a20.914,20.914,0,0,1-6.2,4.091L39.52,49.4a.538.538,0,1,0-1,.4l.769,1.936a20.939,20.939,0,0,1-6.7,1.273V50.934a.538.538,0,0,0-1.075,0v2.074a20.914,20.914,0,0,1-7.279-1.494l.826-1.913a.538.538,0,1,0-.987-.426l-.825,1.913a20.943,20.943,0,0,1-5.64-3.84l1.467-1.466a.538.538,0,0,0-.76-.76l-1.467,1.466a20.913,20.913,0,0,1-4.091-6.2l1.936-.769a.538.538,0,1,0-.4-1l-1.936.769a20.943,20.943,0,0,1-1.273-6.7h2.074a.538.538,0,1,0,0-1.075H11.085a20.914,20.914,0,0,1,1.494-7.279l1.913.826a.538.538,0,1,0,.426-.987L13,23.24a20.942,20.942,0,0,1,3.84-5.64l1.466,1.467a.538.538,0,0,0,.76-.76L17.6,16.84a20.913,20.913,0,0,1,6.2-4.091l.769,1.936a.538.538,0,1,0,1-.4l-.769-1.936a20.943,20.943,0,0,1,6.7-1.273v2.074a.538.538,0,0,0,1.075,0V11.08a20.914,20.914,0,0,1,7.279,1.494l-.826,1.913a.538.538,0,1,0,.987.426L40.852,13a20.944,20.944,0,0,1,5.64,3.84l-1.467,1.466a.538.538,0,1,0,.76.761L47.252,17.6a20.913,20.913,0,0,1,4.091,6.2l-1.937.769a.538.538,0,1,0,.4,1L51.74,24.8a20.94,20.94,0,0,1,1.273,6.7H50.938a.538.538,0,1,0,0,1.075Z" transform="translate(1262.248 953.003)" fill="#0635c9"/>
    <path id="Path_4388" data-name="Path 4388" d="M87.124,70.5a16.624,16.624,0,1,0,16.624,16.624A16.643,16.643,0,0,0,87.124,70.5Zm0,32.173a15.549,15.549,0,1,1,15.549-15.549A15.566,15.566,0,0,1,87.124,102.673Z" transform="translate(1207.172 897.922)" fill="#0635c9"/>
  </g>
</svg>
