<svg xmlns="http://www.w3.org/2000/svg" width="46.277" height="47.001" viewBox="0 0 46.277 47.001">
  <g id="Ferez" transform="translate(-1152.62 -177.98)">
    <path id="Path_4197" data-name="Path 4197" d="M39.727,92.01a1.712,1.712,0,0,0-1.01-1.353,4.375,4.375,0,0,1-.989-.7c0,.02.005.039.007.058s0,.016,0,.024a1.57,1.57,0,0,1-1.01,1.589,8.9,8.9,0,0,0-3.012,1.851c-1.729,1.626-2.7,3.463-3.63,6.908-.676,2.5-.53,3.776,0,4.965a3.727,3.727,0,0,0,1.793,1.484,7.383,7.383,0,0,1,.2-4.457c.931-3.444,1.9-5.282,3.63-6.908a8.9,8.9,0,0,1,3.012-1.851,1.57,1.57,0,0,0,1.01-1.589C39.728,92.026,39.728,92.018,39.727,92.01Z" transform="translate(1123.584 94.986)" fill="#d4e1f4"/>
    <path id="Path_4198" data-name="Path 4198" d="M85.73,50.331l.206-1.115,4.911-10.2.295-.712a3.963,3.963,0,0,0-2.6-5.332l-6.83-1.9a4.808,4.808,0,0,1-2.449-4.393C77.439,26.26,76.309,26,76.309,26s-.512,3.558,2.415,5.074l6.83,1.9a3.963,3.963,0,0,1,2.6,5.332l-.295.712-4.911,10.2,2.78,1.115a16.186,16.186,0,0,0-1.545,5.829q-.043.593-.044,1.2h2.987q0-.6.044-1.2a16.186,16.186,0,0,1,1.545-5.829h0a16.292,16.292,0,0,1,13.213-9.189q-.743-.068-1.5-.07a16.288,16.288,0,0,0-14.7,9.262Z" transform="translate(1081.586 152.578)" fill="#d4e1f4"/>
    <path id="Path_4199" data-name="Path 4199" d="M196.981,335.319,195.6,336.7a.6.6,0,0,0-.079.75l.74,1.135-1.134.733a.6.6,0,0,0-.233.717l.489,1.265-1.26.48a.6.6,0,0,0-.377.654l.217,1.338-1.33.206a.6.6,0,0,0-.505.562l-.065,1.353-1.342-.077a.6.6,0,0,0-.612.445l-.342,1.309-1.3-.355a.6.6,0,0,0-.692.309l-.6,1.207-1.193-.618a.6.6,0,0,0-.742.158l-.84,1.053-1.039-.854a.6.6,0,0,0-.759,0l-1.039.854-.84-1.053a.6.6,0,0,0-.742-.158l-1.193.618-.6-1.207a.6.6,0,0,0-.692-.309l-1.3.355-.342-1.309a.6.6,0,0,0-.612-.445l-1.342.077-.065-1.353a.6.6,0,0,0-.505-.562l-1.33-.206.217-1.338a.6.6,0,0,0-.377-.654l-1.26-.48.489-1.265a.6.6,0,0,0-.233-.717l-1.134-.733.74-1.135a.6.6,0,0,0-.079-.75l-1.383-1.378a.6.6,0,1,0-.843.846l1.039,1.036-.8,1.23a.6.6,0,0,0,.176.828l1.23.795-.531,1.372a.6.6,0,0,0,.344.774l1.366.52-.235,1.452a.6.6,0,0,0,.5.686l1.442.223.07,1.468a.6.6,0,0,0,.631.568l1.456-.083.372,1.42a.6.6,0,0,0,.736.425l1.406-.386.657,1.31a.6.6,0,0,0,.809.263l1.3-.671.912,1.144a.6.6,0,0,0,.846.089l1.129-.927,1.128.927a.6.6,0,0,0,.846-.089l.912-1.144,1.3.672a.6.6,0,0,0,.809-.263l.657-1.31,1.406.386a.6.6,0,0,0,.736-.425l.372-1.42,1.456.083a.6.6,0,0,0,.631-.568l.07-1.468,1.442-.223a.6.6,0,0,0,.5-.686L195,342.72l1.366-.52a.6.6,0,0,0,.345-.774l-.531-1.372,1.23-.795a.6.6,0,0,0,.176-.828l-.8-1.23,1.039-1.035a.6.6,0,1,0-.843-.846Z" transform="translate(999.034 -125.782)" fill="#1ae5be"/>
    <path id="Path_4200" data-name="Path 4200" d="M291.263,316.343a2.743,2.743,0,1,0,2.743-2.743A2.743,2.743,0,0,0,291.263,316.343Zm4.292,0a1.548,1.548,0,1,1-1.548-1.548,1.548,1.548,0,0,1,1.548,1.548Z" transform="translate(888.006 -106.383)" fill="#1ae5be"/>
    <path id="Path_4202" data-name="Path 4202" d="M283.245,111.109a.6.6,0,1,0,1.155-.305l-.946-3.58a.6.6,0,1,0-1.155.305Z" transform="translate(896.096 79.844)" fill="#0635c9"/>
    <path id="Path_4203" data-name="Path 4203" d="M304.742,111.127a.6.6,0,1,0,1.145-.34l-1.064-3.58a.6.6,0,1,0-1.145.34Z" transform="translate(876.851 79.844)" fill="#0635c9"/>
    <path id="Path_4204" data-name="Path 4204" d="M327.3,111.127a.6.6,0,1,0,1.145-.34l-1.064-3.58a.6.6,0,1,0-1.145.34Z" transform="translate(856.538 79.844)" fill="#0635c9"/>
    <path id="Path_4201" data-name="Path 4201" d="M60.926,37.033c.046-.859.154-2.988.189-4.47a5.738,5.738,0,0,0-2.785-4.956A10.157,10.157,0,0,0,55.5,26.274c-8.208-2.063-26.263-6.217-26.445-6.259a.6.6,0,0,0-.725.5c-.024.162-.535,4,2.732,5.69a1.162,1.162,0,0,1,.689.867l0,.024a.977.977,0,0,1-.624.985,9.552,9.552,0,0,0-3.212,1.975c-1.812,1.705-2.841,3.653-3.8,7.187-.74,2.736-.522,4.124.031,5.365.566,1.271,2.556,2.048,4.48,2.8a10.385,10.385,0,0,1,2.852,1.4,4.608,4.608,0,0,1,1.02,2.651,2.17,2.17,0,0,0,2.139,1.9h1.524c-.007.2-.012.4-.012.6a.6.6,0,0,0,.6.6h5.637a.6.6,0,0,0,.6-.6,10.052,10.052,0,0,1,20.1,0,.6.6,0,0,0,.6.6h5.637a.6.6,0,0,0,.6-.6,16.9,16.9,0,0,0-8.994-14.923ZM29.478,21.339c3.406.785,18.448,4.264,25.723,6.092a8.976,8.976,0,0,1,2.487,1.184,4.53,4.53,0,0,1,2.232,3.919c-.029,1.232-.11,2.92-.162,3.935a16.875,16.875,0,0,0-21.7,7.7L36.374,43.5l4.633-9.624c0-.01.009-.021.013-.031h0l.295-.712a4.559,4.559,0,0,0-2.993-6.137l-6.764-1.878a4.2,4.2,0,0,1-2.081-3.775Zm2.487,20.39a2.154,2.154,0,0,1-1.132-2.949L33.2,33.974a2.15,2.15,0,0,1,2.535-1.118l3.893,1.133L35.262,43.05Zm2.673,8.43a.972.972,0,0,1-.954-.858,5.554,5.554,0,0,0-1.353-3.338,10.219,10.219,0,0,0-3.27-1.671c-1.54-.6-3.456-1.35-3.823-2.173-.463-1.037-.619-2.163.031-4.567.9-3.338,1.808-5.072,3.462-6.628A8.363,8.363,0,0,1,31.545,29.2,2.178,2.178,0,0,0,32.941,27V26.98a1.975,1.975,0,0,0-.036-.253L38,28.144a3.364,3.364,0,0,1,2.209,4.528l-.09.217-4.057-1.181a3.344,3.344,0,0,0-3.941,1.738l-2.362,4.805a3.349,3.349,0,0,0,1.76,4.586l3.814,1.529,2.205.885a16.746,16.746,0,0,0-1.294,4.907Zm29.627,1.2a11.247,11.247,0,0,0-22.463,0H37.357a15.689,15.689,0,0,1,31.356,0Z" transform="translate(1128.977 157.98)" fill="#0635c9"/>
  </g>
</svg>
