<svg xmlns="http://www.w3.org/2000/svg" width="49.724" height="32" viewBox="0 0 49.724 32">
  <g id="Group_2200" data-name="Group 2200" transform="translate(-1152.276 -705)">
    <path id="Path_4375" data-name="Path 4375" d="M14.069,134.051A2.047,2.047,0,0,1,16.092,132H13.022a2.031,2.031,0,0,0,0,4.061h.652v19.612h-.652a2,2,0,0,0-1.43.577,2.045,2.045,0,0,0,1.43,3.484h3.071a2.042,2.042,0,0,1-2.023-2.046,2.017,2.017,0,0,1,2.023-2.015h.652V136.061h-.652a2.012,2.012,0,0,1-2.023-2.01Z" transform="translate(1141.871 576.718)" fill="#d4e1f4"/>
    <path id="Path_4376" data-name="Path 4376" d="M234.431,222.308a.594.594,0,0,0-.49-.258h-2.887a.594.594,0,0,0-.588.505l-.754,4.977a.594.594,0,0,0,.588.683h.688l-.142,3.1a.594.594,0,0,0,1.121.3l2.881-5.519a.594.594,0,0,0-.527-.869h-.733l.909-2.374A.594.594,0,0,0,234.431,222.308Zm-2.274,6.38.048-1.038a.594.594,0,0,0-.594-.622h-.619l.574-3.789h1.512l-.909,2.375a.594.594,0,0,0,.555.807h.616Z" transform="translate(944.827 495.588)" fill="#1ae5be"/>
    <path id="Path_4377" data-name="Path 4377" d="M184.757,188.386a8.292,8.292,0,0,0-7.8,5.505.595.595,0,0,0,1.123.391,7.091,7.091,0,1,1,0,4.764.594.594,0,1,0-1.122.392,8.279,8.279,0,1,0,7.8-11.053Z" transform="translate(992.381 525.917)" fill="#1ae5be"/>
    <path id="Path_4378" data-name="Path 4378" d="M52.107,121.237h-.012V102.866a2.652,2.652,0,0,0,2.628-2.536,2.619,2.619,0,0,0-2.615-2.7H50.292V95.461a.992.992,0,0,0-.991-.991h-5.1a.992.992,0,0,0-.991.991v2.173H16.508V95.461a.992.992,0,0,0-.991-.991h-5.1a.992.992,0,0,0-.991.991v2.173H7.672A2.653,2.653,0,0,0,5,100.171a2.62,2.62,0,0,0,2.615,2.7h.012v18.37H7.617a2.617,2.617,0,1,0,0,5.233H52.107a2.617,2.617,0,1,0,0-5.233Zm-9.113,0v-18.37h7.912v18.37Zm-1.189-18.37v18.37H17.918v-18.37Zm2.6-7.208h4.7v1.975H44.4Zm-33.785,0h4.7v1.975h-4.7Zm-1.8,7.208h.394a.594.594,0,1,0,0-1.189H7.658a1.455,1.455,0,0,1-1.468-1.356,1.429,1.429,0,0,1,1.426-1.5H52.066a1.455,1.455,0,0,1,1.468,1.356,1.429,1.429,0,0,1-1.426,1.5H14.363a.594.594,0,0,0,0,1.189h2.367v18.37H8.818Zm43.29,22.414H7.617a1.428,1.428,0,1,1,0-2.856H52.107a1.428,1.428,0,1,1,0,2.856Z" transform="translate(1147.276 610.53)" fill="#0635c9"/>
    <path id="Path_4379" data-name="Path 4379" d="M62.118,190.374a.594.594,0,0,0-.594.594v.264a.594.594,0,1,0,1.189,0v-.264A.594.594,0,0,0,62.118,190.374Z" transform="translate(1096.351 524.125)" fill="#0635c9"/>
    <path id="Path_4380" data-name="Path 4380" d="M62.118,212.67a.594.594,0,0,0-.594.594v6.323a.594.594,0,0,0,1.189,0v-6.323A.594.594,0,0,0,62.118,212.67Z" transform="translate(1096.351 504.038)" fill="#0635c9"/>
  </g>
</svg>
