<svg xmlns="http://www.w3.org/2000/svg" width="32.637" height="50.5" viewBox="0 0 32.637 50.5">
  <g id="Group_2199" data-name="Group 2199" transform="translate(-1277.853 -696)">
    <path id="Path_4362" data-name="Path 4362" d="M238.953,33.779,239.19,32h-1.6l-.353,2.648,1.719-.868Z" transform="translate(1054.932 665.284)" fill="#d4e1f4"/>
    <path id="Path_4363" data-name="Path 4363" d="M155.662,346.955h-1.6L149.99,361.19h1.071l.8-.935Z" transform="translate(1132.839 384.026)" fill="#d4e1f4"/>
    <path id="Path_4364" data-name="Path 4364" d="M201.179,262l-1.041,7.806h1.6L202.784,262Z" transform="translate(1088.057 459.893)" fill="#d4e1f4"/>
    <path id="Path_4365" data-name="Path 4365" d="M221.393,133.989h-1.6l-.856,6.421,1.721-.869Z" transform="translate(1071.273 574.207)" fill="#d4e1f4"/>
    <path id="Path_4366" data-name="Path 4366" d="M135.475,32.2a.642.642,0,0,0,.289-1.215L123.2,24.633l-.544-4.076a.642.642,0,0,0-.636-.557h-4.434a.642.642,0,0,0-.636.557l-.544,4.076-12.569,6.347a.642.642,0,0,0,.289,1.215h11.272l-.95,7.122-10.611,5.359a.642.642,0,0,0,.289,1.215h9.446L112.527,53.7h-.487a.642.642,0,0,0-.617.466l-4.434,15.518a.642.642,0,0,0,.617.818h2.217a.642.642,0,0,0,.487-.225l9.489-11.07,9.489,11.07a.642.642,0,0,0,.487.225h2.217a.642.642,0,0,0,.617-.818l-4.434-15.518a.642.642,0,0,0-.617-.466h-.487l-1.041-7.806h9.445a.642.642,0,0,0,.289-1.215l-10.611-5.359L124.2,32.2Zm-2.7-1.284h-8.747l-.631-4.736Zm-10.042,0H116.86l.725-5.438,2.214-1.118,2.214,1.118Zm-4.594-9.628h3.31l.353,2.648-1.719-.868a.642.642,0,0,0-.579,0l-1.719.868Zm-11.326,9.628,9.379-4.736-.631,4.736Zm0,13.7,7.421-3.748-.5,3.748Zm8.809-4.449,4.172-2.107,4.172,2.107.593,4.449h-9.53Zm-6.1,29.057h-1.071l4.067-14.235h3.654l2.776,3.238Zm8.342-14.235h3.859l-1.93,2.252Zm13.272,14.235H130.07l-9.426-11,2.775-3.238h3.655ZM125.776,53.7H113.822l1.041-7.806h9.872Zm7-9.089h-6.921l-.5-3.748Zm-9.015-5.992-3.677-1.857a.642.642,0,0,0-.579,0l-3.677,1.857.856-6.421h6.22Z" transform="translate(1174.373 676)" fill="#0635c9"/>
    <path id="Path_4367" data-name="Path 4367" d="M105.233,272.849a1.75,1.75,0,1,0,1.75,1.75A1.75,1.75,0,0,0,105.233,272.849Zm0,2.217a.466.466,0,1,1,.466-.466A.466.466,0,0,1,105.233,275.066Z" transform="translate(1174.371 450.204)" fill="#1ae5be"/>
    <path id="Path_4368" data-name="Path 4368" d="M105.232,316.362a1.75,1.75,0,1,0,1.75,1.75A1.75,1.75,0,0,0,105.232,316.362Zm0,2.217a.467.467,0,1,1,.466-.467A.467.467,0,0,1,105.232,318.579Z" transform="translate(1174.372 411.347)" fill="#1ae5be"/>
    <path id="Path_4369" data-name="Path 4369" d="M377.548,272.849a1.75,1.75,0,1,0,1.751,1.75A1.75,1.75,0,0,0,377.548,272.849Zm0,2.217a.466.466,0,1,1,.467-.466A.466.466,0,0,1,377.548,275.066Z" transform="translate(931.191 450.204)" fill="#1ae5be"/>
    <path id="Path_4370" data-name="Path 4370" d="M377.546,316.362a1.75,1.75,0,1,0,1.75,1.75,1.75,1.75,0,0,0-1.75-1.75Zm0,2.217a.467.467,0,1,1,.467-.467A.467.467,0,0,1,377.546,318.579Z" transform="translate(931.193 411.347)" fill="#1ae5be"/>
    <path id="Path_4371" data-name="Path 4371" d="M377.548,144.13a1.75,1.75,0,1,0,1.751,1.75A1.75,1.75,0,0,0,377.548,144.13Zm0,2.217a.466.466,0,1,1,.467-.467A.467.467,0,0,1,377.548,146.347Z" transform="translate(931.191 565.151)" fill="#1ae5be"/>
    <path id="Path_4372" data-name="Path 4372" d="M377.546,187.643a1.75,1.75,0,1,0,1.75,1.75A1.75,1.75,0,0,0,377.546,187.643Zm0,2.217a.467.467,0,1,1,.467-.467A.467.467,0,0,1,377.546,189.86Z" transform="translate(931.193 526.294)" fill="#1ae5be"/>
    <path id="Path_4373" data-name="Path 4373" d="M105.233,144.13a1.75,1.75,0,1,0,1.75,1.75A1.75,1.75,0,0,0,105.233,144.13Zm0,2.217a.466.466,0,1,1,.466-.466A.466.466,0,0,1,105.233,146.347Z" transform="translate(1174.371 565.151)" fill="#1ae5be"/>
    <path id="Path_4374" data-name="Path 4374" d="M105.229,187.643a1.75,1.75,0,1,0,1.75,1.75A1.75,1.75,0,0,0,105.229,187.643Zm0,2.217a.467.467,0,1,1,.466-.467.467.467,0,0,1-.466.467Z" transform="translate(1174.375 526.294)" fill="#1ae5be"/>
  </g>
</svg>
