<svg xmlns="http://www.w3.org/2000/svg" width="48.187" height="33.3" viewBox="0 0 48.187 33.3">
  <g id="Car" transform="translate(-1035 -183.62)">
    <path id="Path_4162" data-name="Path 4162" d="M23.247,94.084l-3.044,8.4h-.164a2.937,2.937,0,0,0-2.962,2.955v8.308h-.686A.364.364,0,0,0,16,114.1v3.691a.365.365,0,0,0,.392.359H19.33a.365.365,0,0,1-.392-.359V114.1a.337.337,0,0,1,.114-.259h.963v-8.406a2.937,2.937,0,0,1,2.962-2.955h.164l3.044-8.4A3.16,3.16,0,0,1,29.148,92H26.209A3.16,3.16,0,0,0,23.247,94.084Z" transform="translate(1019.588 92.207)" fill="#d4e1f4"/>
    <path id="Path_4163" data-name="Path 4163" d="M31.768,358.409l.032,4.536a.87.87,0,0,1-.876.882l-3.984.019h-.007a.869.869,0,0,1-.883-.865l-.032-4.534-1.175.01.032,4.537a2.045,2.045,0,0,0,2.058,2.027h.016L30.932,365a2.052,2.052,0,0,0,2.043-2.068l-.032-4.535Z" transform="translate(1011.611 -148.101)" fill="#1ae5be"/>
    <path id="Path_4164" data-name="Path 4164" d="M411.051,358.409l.032,4.536a.87.87,0,0,1-.876.881l-3.984.018h-.007a.877.877,0,0,1-.883-.868l-.032-4.532-1.175.01.032,4.529a2.055,2.055,0,0,0,2.058,2.037h.015l3.984-.018a2.052,2.052,0,0,0,2.043-2.068l-.032-4.535Z" transform="translate(669.476 -148.101)" fill="#1ae5be"/>
    <path id="Path_4166" data-name="Path 4166" d="M167.488,222.175H183.1a.588.588,0,1,0,0-1.175H167.488a.588.588,0,1,0,0,1.175Z" transform="translate(883.467 -24.158)" fill="#0635c9"/>
    <path id="Path_4167" data-name="Path 4167" d="M364.378,220.17h5.359a3.085,3.085,0,0,0,0-6.17h-4.39a.6.6,0,0,0-.577.485L363.8,219.5a.554.554,0,0,0,.124.47A.573.573,0,0,0,364.378,220.17Zm1.454-4.995h3.905a1.91,1.91,0,0,1,0,3.82H365.09Z" transform="translate(705.86 -17.844)" fill="#1ae5be"/>
    <path id="Path_4168" data-name="Path 4168" d="M58.221,219.507l-.969-5.022a.6.6,0,0,0-.577-.485h-4.39a3.085,3.085,0,1,0,0,6.17h5.359a.571.571,0,0,0,.453-.2A.549.549,0,0,0,58.221,219.507ZM52.285,219a1.91,1.91,0,1,1,0-3.82h3.905l.742,3.82Z" transform="translate(989.639 -17.844)" fill="#1ae5be"/>
    <path id="Path_4169" data-name="Path 4169" d="M167.488,241.175H183.1a.588.588,0,0,0,0-1.175H167.488a.588.588,0,0,0,0,1.175Z" transform="translate(883.8 -40.357)" fill="#0635c9"/>
    <path id="Path_4170" data-name="Path 4170" d="M57.208,107.841h-.1v-7.819a3.568,3.568,0,0,0-3.31-3.566l-2.9-8A3.734,3.734,0,0,0,47.39,86H20.8a3.743,3.743,0,0,0-3.515,2.455l-2.894,8a3.565,3.565,0,0,0-3.31,3.562v7.819h-.1a.951.951,0,0,0-.979.945v3.5a.953.953,0,0,0,.979.947H57.208a.953.953,0,0,0,.979-.947v-3.5a.951.951,0,0,0-.979-.945ZM18.387,88.873a2.58,2.58,0,0,1,2.41-1.7H47.39a2.58,2.58,0,0,1,2.41,1.7l2.759,7.607H15.628Zm-6.134,11.149a2.352,2.352,0,0,1,2.374-2.367H53.561a2.352,2.352,0,0,1,2.374,2.367v7.819H44.289l-1.893-2.5a.6.6,0,0,0-.468-.24H25.488a.6.6,0,0,0-.468.24l-1.893,2.5H12.253Zm30.561,7.819H24.6l1.177-1.567H41.637Zm14.2,4.211H11.175v-3.036H57.012Z" transform="translate(1025 97.62)" fill="#0635c9"/>
    <path id="Path_4171" data-name="Path 4171" d="M133.661,113.175h9.966a.588.588,0,0,0,0-1.175h-9.966a.588.588,0,1,0,0,1.175Z" transform="translate(913.981 74.166)" fill="#0635c9"/>
    <path id="Path_4172" data-name="Path 4172" d="M110.093,113.175h.478a.588.588,0,1,0,0-1.175h-.478a.588.588,0,1,0,0,1.175Z" transform="translate(935.241 74.166)" fill="#0635c9"/>
  </g>
</svg>
