<svg xmlns="http://www.w3.org/2000/svg" width="41.988" height="44.977" viewBox="0 0 41.988 44.977">
  <g id="Group_2143" data-name="Group 2143" transform="translate(-423.163 -382.116)">
    <path id="Path_4426" data-name="Path 4426" d="M448.647,382.694a5.371,5.371,0,0,0-.3.776q-.646,2.329-1.276,4.676l-.588,2.168-.323-.062a.378.378,0,0,1-.23-.1,3.216,3.216,0,0,1-.232-.254,15.33,15.33,0,0,0-3.711-3.253,16.828,16.828,0,0,0-5.842-2.315l-.052-.015a.721.721,0,0,0-.216-.035.626.626,0,0,0-.3.074.641.641,0,0,0-.319.38.8.8,0,0,0,.223.725,150.194,150.194,0,0,1,9.544,13.626,1.514,1.514,0,0,1,.241.8c-.036.98-.079,1.947-.122,2.912-.055,1.219-.124,2.736-.161,4.182-.084,3.272-.143,6.654-.179,10.052-.024,2.353-.023,4.749-.022,7.066v2.151c0,.664.172.836.839.836h3.9c.75,0,.9-.154.917-.9l.016-.99c.016-1.134.036-2.419.081-3.667a1.82,1.82,0,0,1,.381-1c.344-.428.715-.839,1.074-1.238.175-.194.346-.383.514-.574.106-.121.214-.244.323-.365.306-.344.622-.7.9-1.066l.044-.053a.551.551,0,0,0-.12-.766.586.586,0,0,0-.826.012,4.845,4.845,0,0,0-.368.389c-.06.068-.113.13-.17.191l-1.429,1.561-.074-.626c-.169-1.427.655-3.321,2.261-5.2,1.686-1.971,4.416-4,6.717-4.086l.759-.03-.546.525-.707.675c-.266.252-.517.492-.767.734a2,2,0,0,0-.354.418.611.611,0,0,0,.152.752.65.65,0,0,0,.86-.07c.466-.426.918-.844,1.367-1.262h0l.182-.167q.466-.435.936-.866c.217-.2.439-.394.66-.588s.445-.391.662-.59a.7.7,0,0,0,.269-.806.645.645,0,0,0-.69-.408,6.125,6.125,0,0,0-.619.032,13.569,13.569,0,0,0-10.126,5.178c-.067.083-.134.16-.227.267l-.622.721-.043-.71c0-.077-.008-.143-.013-.2l-.006-.059a2.566,2.566,0,0,1-.015-.335l.05-1.036c.05-1.011.1-2.024.152-3.037l.13-2.331c.095-1.642.192-3.339.264-5.007a2.659,2.659,0,0,1,.557-1.583,127.689,127.689,0,0,1,10.442-12.149c.444-.455.395-.677.292-.9a.669.669,0,0,0-.753-.351,17.462,17.462,0,0,0-9.958,4.481c-.053.047-.105.09-.162.139l-.626.522-.077-.506c-.02-.13-.039-.244-.057-.348-.027-.157-.045-.272-.061-.388-.049-.365-.094-.73-.139-1.094-.095-.761-.192-1.548-.328-2.317-.174-.97-.412-1.949-.643-2.9l-.077-.328a.635.635,0,0,0-.6-.537l-.036-.145v.144A.639.639,0,0,0,448.647,382.694Zm2.731,10.395v0a1.563,1.563,0,0,1,.331-.873,14.893,14.893,0,0,1,5.878-4.255,9.489,9.489,0,0,1,1.661-.516l.83-.177-8.5,10.014-.064-1c-.032-.514-.063-1.009-.087-1.487l-.017-.315C451.385,394.021,451.358,393.553,451.378,393.089Zm-5.6,2.126c-.04.316-.077.6-.117.895a4.142,4.142,0,0,1-.106.406l-.182.554-7.2-10.507.479-.327.075.112c.245.127.491.249.738.372.558.277,1.135.563,1.682.889a14.378,14.378,0,0,1,4.579,4.422,1.745,1.745,0,0,1,.312,1.322c-.095.6-.174,1.222-.252,1.821Zm3.446,29.892a.69.69,0,0,1-.752.748h-1.732a.17.17,0,0,1-.055,0c-.03,0-.065,0-.1-.007a.674.674,0,0,1-.566-.763l0-1.747h.08v-2.161c0-.822,0-1.645,0-2.472a.859.859,0,0,1,.221-.658.781.781,0,0,1,.57-.2h.046c.543.013,1.085.007,1.568,0h0a.818.818,0,0,1,.618.206.777.777,0,0,1,.2.589Q449.264,421.875,449.22,425.107Zm.639-17.551q-.116,2-.223,3.994c-.061,1.176-.107,2.354-.152,3.532-.053,1.362-.182,1.488-1.546,1.488h-1.062a.775.775,0,0,1-.578-.209.765.765,0,0,1-.193-.576l.025-.733c.017-.462.032-.924.04-1.384.02-1.165.035-2.33.052-3.495l.05-3.5c.013-.766.188-.943.943-.953l1.12,0h.2c.208,0,.415,0,.628-.007a.683.683,0,0,1,.759.8Zm-.419-21.385v.294l.14,1.091c.084.677.17,1.351.246,2.022a101.678,101.678,0,0,1,.363,12.214c0,.342-.023.684-.047,1.063-.015.251-.031.5-.04.753a.813.813,0,0,1-.887.879h-.048c-.367-.008-.737,0-1.106,0h-.124c-.207,0-.416,0-.623,0a1.024,1.024,0,0,1-.785-.209.967.967,0,0,1-.163-.755l.061-1.106c.082-1.518.166-3.089.315-4.652a72.4,72.4,0,0,1,1.78-10.567c.046-.189.1-.379.154-.567l.129-.461Z" transform="translate(1.868)" fill="#0635c9"/>
    <path id="Path_4427" data-name="Path 4427" d="M443.024,421.307c-.009-.462-.017-.918-.024-1.373q-.026-1.458-.039-2.917l-.006-.483c-.03-2.455-.06-4.992-.145-7.493a42.909,42.909,0,0,0-1.925-10.939c-.225-.756-.5-1.51-.768-2.239l-.2-.554a.585.585,0,0,0-.607-.468.668.668,0,0,0-.625.521c-.036.117-.061.208-.085.3a45.179,45.179,0,0,0-1.359,7.28c-.019.2-.039.405-.06.61l-.076.721-.514.13-.212-.3c-.065-.092-.13-.184-.2-.272-.121-.156-.241-.314-.36-.472a13.282,13.282,0,0,0-.893-1.1,14.717,14.717,0,0,0-10.529-4.465q-.357,0-.714.017a.516.516,0,0,0-.48.387l0,.01a.623.623,0,0,0,.176.674,5.39,5.39,0,0,0,.492.411,96.521,96.521,0,0,1,8.5,7.5c.872.861,1.746,1.78,2.518,2.592.544.573,1.09,1.145,1.643,1.711a1.8,1.8,0,0,1,.543,1.262l.039,1.069c.047,1.25.106,2.807.141,4.287.032,1.369.05,2.739.068,4.109l.008.6c.009.6.016,1.2.027,1.8.013.7.207.886.905.886h3.724c.926,0,1.088-.163,1.088-1.077S443.043,422.221,443.024,421.307Zm-16.977-22.143.956.172a12.747,12.747,0,0,1,6.462,3.24,10.621,10.621,0,0,1,3.322,6l.154.859Zm12.165,10.97a51.9,51.9,0,0,1,.8-10.6h0c.025-.136.054-.274.088-.406a1.684,1.684,0,0,1,.152-.3l.112-.174.354.088.11.3a2.549,2.549,0,0,1,.107.319,43.127,43.127,0,0,1,1.582,9.113c.081,1.306.12,2.635.158,3.92l.008.292a.98.98,0,0,1-.175.737,1,1,0,0,1-.746.207c-.246,0-.491,0-.736,0s-.49,0-.734,0c-.7-.008-.921-.222-.968-.913C438.263,411.773,438.227,410.929,438.212,410.134Zm3.566,12.9a.857.857,0,0,1-.217.663.809.809,0,0,1-.6.207H440.9c-.455-.016-.925-.016-1.4,0l-.082,0a.8.8,0,0,1-.57-.209.826.826,0,0,1-.222-.626c-.006-.386-.02-.772-.035-1.159l0-.114c-.012-.328-.024-.651-.032-.976q-.054-2.459-.094-4.916c0-.777.2-.977.983-.977h1.328c.714.006.92.207.92.9v4.138h.083l0,1.257C441.775,421.825,441.773,422.431,441.778,423.033Z" transform="translate(0 1.967)" fill="#1ae5be"/>
    <path id="Path_4428" data-name="Path 4428" d="M453.269,409.273l-.043,0a.576.576,0,0,0-.57.577.6.6,0,0,0,.587.612.635.635,0,0,0,.424-.169.583.583,0,0,0,.181-.418A.6.6,0,0,0,453.269,409.273Z" transform="translate(4.559 4.198)" fill="#0635c9"/>
  </g>
</svg>
