<svg xmlns="http://www.w3.org/2000/svg" width="45.406" height="45.406" viewBox="0 0 45.406 45.406">
  <g id="Group_2194" data-name="Group 2194" transform="translate(-917.898 -434.59)">
    <path id="Path_4289" data-name="Path 4289" d="M76.986,356.8l-2.5-2.5a5.485,5.485,0,0,0-7.749,0l-2.122,2.122a9.262,9.262,0,0,1-15.772-5.648,9.264,9.264,0,0,0,15.772,7.457l2.122-2.122a5.485,5.485,0,0,1,7.749,0l2.5,2.5a8.864,8.864,0,0,0,2.175-6.78A8.832,8.832,0,0,1,76.986,356.8Z" transform="translate(873.057 115.085)" fill="#d4e1f4"/>
    <path id="Path_4290" data-name="Path 4290" d="M239.93,5a8.062,8.062,0,0,0-5.739,2.377l-11.9,11.9.767.767,11.9-11.9a7.03,7.03,0,1,1,9.942,9.942L233,29.984l.767.767,11.9-11.9A8.116,8.116,0,0,0,239.93,5Z" transform="translate(715.258 429.591)" fill="#0635c9"/>
    <path id="Path_4291" data-name="Path 4291" d="M373.425,71.429a.543.543,0,1,0-.768-.768l-.25.25a1.72,1.72,0,1,0,2.432,2.432l.25-.25a.543.543,0,1,0-.767-.768l-.25.25a.635.635,0,1,1-.9-.9Z" transform="translate(579.18 370.012)" fill="#0635c9"/>
    <path id="Path_4292" data-name="Path 4292" d="M417.027,115.531l.25-.25a.543.543,0,0,0-.767-.767l-.25.25a.635.635,0,1,1-.9-.9l.25-.25a.543.543,0,1,0-.768-.767l-.25.25a1.72,1.72,0,1,0,2.432,2.432Z" transform="translate(540.81 331.641)" fill="#0635c9"/>
    <path id="Path_4293" data-name="Path 4293" d="M343.055,101.8a.543.543,0,0,0-.768-.767l-.25.25a1.72,1.72,0,1,0,2.432,2.432l.25-.25a.543.543,0,1,0-.767-.768l-.25.25a.635.635,0,1,1-.9-.9Z" transform="translate(606.803 342.391)" fill="#0635c9"/>
    <path id="Path_4294" data-name="Path 4294" d="M386.656,145.9l.25-.25a.543.543,0,1,0-.767-.767l-.25.25a.635.635,0,1,1-.9-.9l.25-.25a.543.543,0,0,0-.767-.768l-.25.25a1.72,1.72,0,1,0,2.432,2.432Z" transform="translate(568.433 304.019)" fill="#0635c9"/>
    <path id="Path_4295" data-name="Path 4295" d="M313.332,133.316a.635.635,0,1,1-.9-.9l.25-.25a.543.543,0,1,0-.767-.767l-.25.25a1.72,1.72,0,0,0,2.432,2.432l.25-.25a.543.543,0,0,0-.767-.768Z" transform="translate(634.427 314.767)" fill="#0635c9"/>
    <path id="Path_4296" data-name="Path 4296" d="M356.287,176.27l.25-.25a.543.543,0,1,0-.768-.767l-.25.25a.635.635,0,1,1-.9-.9l.25-.25a.543.543,0,1,0-.767-.767l-.25.25a1.72,1.72,0,1,0,2.432,2.432Z" transform="translate(596.055 276.395)" fill="#0635c9"/>
    <path id="Path_4297" data-name="Path 4297" d="M281.306,164.454a1.722,1.722,0,0,0,2.432,0l.25-.25a.543.543,0,0,0-.768-.767l-.25.25a.635.635,0,1,1-.9-.9l.25-.25a.543.543,0,1,0-.767-.768l-.25.25A1.722,1.722,0,0,0,281.306,164.454Z" transform="translate(662.041 287.143)" fill="#0635c9"/>
    <path id="Path_4298" data-name="Path 4298" d="M324.505,204.725a.543.543,0,1,0-.768-.767l-.25.25a1.72,1.72,0,1,0,2.432,2.432l.25-.25a.543.543,0,1,0-.767-.768l-.25.25a.635.635,0,0,1-.9-.9Z" transform="translate(623.675 248.772)" fill="#0635c9"/>
    <path id="Path_4299" data-name="Path 4299" d="M260.332,142.276l-1.131,1.131a.543.543,0,1,0,.767.768l1.131-1.131a.543.543,0,0,0-.767-.767Z" transform="translate(681.834 304.875)" fill="#0635c9"/>
    <path id="Path_4300" data-name="Path 4300" d="M290.492,93.9l-2.942,2.942a.543.543,0,1,0,.767.767l2.942-2.942a.543.543,0,0,0-.767-.767Z" transform="translate(656.048 348.879)" fill="#0635c9"/>
    <path id="Path_4301" data-name="Path 4301" d="M406.3,43.562a.543.543,0,0,0-.767-.767l-.25.25a1.72,1.72,0,1,0,2.432,2.432l.25-.25a.543.543,0,0,0-.767-.768l-.25.25a.634.634,0,1,1-.9-.9Z" transform="translate(549.28 395.359)" fill="#0635c9"/>
    <path id="Path_4302" data-name="Path 4302" d="M18.227,147.566a10.323,10.323,0,0,0,7.32-3.027l2.122-2.122a4.4,4.4,0,0,1,6.214,0l2.891,2.891a.543.543,0,0,0,.768,0,9.961,9.961,0,0,0-11.407-16,9.961,9.961,0,0,0-16-11.408.543.543,0,0,0,0,.767l2.891,2.891a4.4,4.4,0,0,1,0,6.214L10.906,129.9a10.371,10.371,0,0,0-1.5,12.74l-3.7,3.7a2.405,2.405,0,1,0,3.4,3.4l3.7-3.7a10.348,10.348,0,0,0,5.42,1.526Zm-6.553-16.9,2.122-2.122a5.486,5.486,0,0,0,0-7.749l-2.5-2.5a8.875,8.875,0,0,1,12.156,12.923.543.543,0,1,0,.767.767,8.875,8.875,0,0,1,12.923,12.156l-2.5-2.5a5.485,5.485,0,0,0-7.749,0l-2.122,2.122a9.267,9.267,0,1,1-13.106-13.106ZM8.34,148.972a1.32,1.32,0,0,1-1.867-1.867l3.559-3.559a10.442,10.442,0,0,0,1.867,1.867Z" transform="translate(912.896 329.553)" fill="#1ae5be"/>
    <path id="Path_4303" data-name="Path 4303" d="M100.271,333.156a.54.54,0,0,0,.384-.159l6.782-6.782a.543.543,0,1,0-.767-.767l-6.782,6.782a.543.543,0,0,0,.384.926Z" transform="translate(826.737 138.271)" fill="#1ae5be"/>
  </g>
</svg>
