<svg xmlns="http://www.w3.org/2000/svg" width="29.367" height="46.721" viewBox="0 0 29.367 46.721">
  <g id="Group_2201" data-name="Group 2201" transform="translate(-1042.316 -697.641)">
    <path id="Path_4336" data-name="Path 4336" d="M110.86,129.79V117.253a53.952,53.952,0,0,1,1.049-10.527h0a53.8,53.8,0,0,1,1.875-6.948L114.744,97h-2.86l-.957,2.778a53.787,53.787,0,0,0-1.876,6.955h-.008A54.046,54.046,0,0,0,108,117.253v17.7h2.86Z" transform="translate(934.889 608.84)" fill="#d4e1f4"/>
    <path id="Path_4337" data-name="Path 4337" d="M128,348.751a.572.572,0,0,0,1.144,0v-6.642a.572.572,0,0,0-1.144,0Z" transform="translate(916.795 387.62)" fill="#0635c9"/>
    <path id="Path_4338" data-name="Path 4338" d="M128.572,317.344a.572.572,0,0,0,.572-.572v-.511a.572.572,0,1,0-1.144,0v.511A.572.572,0,0,0,128.572,317.344Z" transform="translate(916.795 411.004)" fill="#0635c9"/>
    <path id="Path_4339" data-name="Path 4339" d="M102.572,57.721h28.209a.588.588,0,0,0,.586-.586V39.453a54.354,54.354,0,0,0-2.949-17.659l-.7-2.022h.473a.634.634,0,0,0,.6-.611V13.506A2.536,2.536,0,0,0,126.256,11H107.112a2.536,2.536,0,0,0-2.537,2.506v5.655a.634.634,0,0,0,.6.611h.479l-.7,2.029a53.857,53.857,0,0,0-2.6,11.549.565.565,0,0,0,.568.629h0a.577.577,0,0,0,.568-.515c.15-1.325.351-2.632.6-3.967h25.191a53.1,53.1,0,0,1,.936,9.956V51.428H103.144V39.453c0-.743.024-1.465.059-2.205a.572.572,0,1,0-1.143-.053c-.035.758-.06,1.5-.06,2.258v17.7A.574.574,0,0,0,102.572,57.721Zm25.077-44.215v5.122h-3.433V12.144h2.039A1.391,1.391,0,0,1,127.649,13.506ZM110.3,18.628V12.144h3.528v6.484Zm4.672-6.484H118.4v6.484h-3.433Zm4.577,0h3.528v6.484h-3.528Zm-13.826,1.362a1.391,1.391,0,0,1,1.393-1.362h2.039v6.484h-3.433Zm-1.394,14.847a53.071,53.071,0,0,1,1.715-6.188l.827-2.394h19.639l.831,2.386a53.47,53.47,0,0,1,1.72,6.2Zm25.9,24.219v4H103.144v-4Z" transform="translate(940.316 686.641)" fill="#0635c9"/>
    <path id="Path_4340" data-name="Path 4340" d="M206.056,279.44v-2.574h2.765c.316,0,.477-.352.477-.667v-2.384a.423.423,0,0,0-.477-.477h-2.765v-2.86a.423.423,0,0,0-.477-.477h-2.67c-.316,0-.667.161-.667.477v2.86h-2.574c-.316,0-.667.161-.667.477V276.2a.749.749,0,0,0,.667.667h2.574v2.574a.748.748,0,0,0,.667.667h2.67C205.9,280.107,206.056,279.755,206.056,279.44Zm-1.144-3.242v2.765h-1.526V276.2a.423.423,0,0,0-.477-.477h-2.765v-1.24h2.765c.316,0,.477-.352.477-.667v-2.67h1.526v2.67a.748.748,0,0,0,.667.667h2.574v1.24h-2.574C205.263,275.721,204.912,275.882,204.912,276.2Z" transform="translate(852.565 452.336)" fill="#1ae5be"/>
    <path id="Path_4341" data-name="Path 4341" d="M181.829,237.091a8.739,8.739,0,1,0-8.739,8.739A8.738,8.738,0,0,0,181.829,237.091Zm-16.333,0a7.594,7.594,0,1,1,7.594,7.594,7.594,7.594,0,0,1-7.594-7.594Z" transform="translate(883.91 490.013)" fill="#1ae5be"/>
  </g>
</svg>
