<svg xmlns="http://www.w3.org/2000/svg" width="53.111" height="38.541" viewBox="0 0 53.111 38.541">
  <g id="Group_2189" data-name="Group 2189" transform="translate(-1149.186 -305.061)">
    <path id="Path_4325" data-name="Path 4325" d="M83.13,338.489a4.894,4.894,0,1,0,0,9.242,4.894,4.894,0,0,1,0-9.242Z" transform="translate(1079.839 -5.047)" fill="#d4e1f4"/>
    <path id="Path_4326" data-name="Path 4326" d="M249.485,338.461a4.894,4.894,0,1,0,0,9.242,4.894,4.894,0,0,1,0-9.242Z" transform="translate(931.363 -5.021)" fill="#d4e1f4"/>
    <path id="Path_4327" data-name="Path 4327" d="M368.713,342.972a4.9,4.9,0,0,1,3.282-4.621,4.894,4.894,0,1,0,0,9.242A4.894,4.894,0,0,1,368.713,342.972Z" transform="translate(822.021 -4.924)" fill="#d4e1f4"/>
    <path id="Path_4328" data-name="Path 4328" d="M18.907,182.112a4.737,4.737,0,0,1,.152-1.049v-.005l.02.005-.02-.005a38.269,38.269,0,0,1,2.533-6.33h0c.231-.483.446-.919.629-1.283a2.021,2.021,0,0,1,1.807-1.115H20.806A2.021,2.021,0,0,0,19,173.445c-.183.364-.4.8-.629,1.283h0a38.269,38.269,0,0,0-2.533,6.33l.02.005-.02-.005a4.747,4.747,0,0,0-.154,1.054v5.555H16a1.073,1.073,0,0,0-1.073,1.074v2.815A1.073,1.073,0,0,0,16,192.628h3.1v-.009a1.073,1.073,0,0,1-.946-1.064V188.74a1.073,1.073,0,0,1,.946-1.066v-.008h-.193Z" transform="translate(1134.901 143.009)" fill="#d4e1f4"/>
    <path id="Path_4329" data-name="Path 4329" d="M208.812,93.641l-.981-6.7V80.756a.645.645,0,0,0-.941-.573l-1.743.9-1.208-2.653a2.051,2.051,0,0,0-2.716-1.018l-1.977.9-.017-.037a2.67,2.67,0,0,0-2.683-1.551l-3.531.04a.581.581,0,0,0-.061,0,5.4,5.4,0,0,0-1.671.458l-8.294,3.792a5.394,5.394,0,0,0-1.44.963q-.024.022-.045.047l-2.214,2.525a2.908,2.908,0,0,0-.639,3.317l.816,1.787-.5.247-.007-.017a2.444,2.444,0,1,0-2.418,2.089h.034v1.733A1.594,1.594,0,0,1,175,95.3a.645.645,0,0,0-.638.645v3.017h1.29V96.507a2.891,2.891,0,0,0,2.21-2.8V91.584a2.463,2.463,0,0,0,.305-.233l3.231,7.8,1.192-.494-1.814-4.378.664-.3.74,1.621a2.908,2.908,0,0,0,2.647,1.7q.138,0,.278-.013l2.82-.013a5.628,5.628,0,0,0,2.138-.413c.065-.026.127-.054.19-.083l7.907-3.616v5.846h1.29V89.554l3.193-5.729,3.9-2.011v4.721L201.635,88.3a.645.645,0,0,0-.426.607v9.971h1.29V89.364l.464-.167,1.173,5.334a1.884,1.884,0,0,0,2.244,1.437l.97-.212A1.892,1.892,0,0,0,208.812,93.641Zm-8.774-7.789-2.463,1.655a11.149,11.149,0,0,1-1.288.694l-8.28,3.786a11.15,11.15,0,0,1-1.367.519l-3.961,1.078-.771-1.688,18.3-8.366.505,1.106Zm-18.665,4.87-.821-1.8,3.343-2.249a12.331,12.331,0,0,1,1.423-.767l8.14-3.722a12.325,12.325,0,0,1,1.511-.573l3.887-1.056.821,1.8Zm-1.178-5.25a.646.646,0,0,0,.045-.047l2.212-2.523a4.109,4.109,0,0,1,1.074-.712l8.293-3.792a4.111,4.111,0,0,1,1.243-.345l3.528-.04a.6.6,0,0,0,.061,0,1.381,1.381,0,0,1,1.4.8l.256.56-3.692,1-.019.005a13.622,13.622,0,0,0-1.68.636l-8.14,3.722a13.62,13.62,0,0,0-1.581.853l-.017.011-3.174,2.135-.184-.4a1.62,1.62,0,0,1,.37-1.861Zm-4.81,4.058a1.155,1.155,0,1,1,1.155,1.155A1.155,1.155,0,0,1,175.385,89.531Zm4.9,3.555L179.46,91.1,180,90.83l.9,1.974ZM197.9,91.864l-8.183,3.742-.147.064a4.347,4.347,0,0,1-1.651.315L185.069,96A.635.635,0,0,0,185,96a1.62,1.62,0,0,1-1.648-.939l-.133-.29,3.766-1.025.019-.005a12.446,12.446,0,0,0,1.537-.582l8.28-3.786a12.455,12.455,0,0,0,1.446-.78l.017-.011.367-.247-.41.736a.645.645,0,0,0-.082.314v2.348C198.076,91.78,197.989,91.824,197.9,91.864Zm3.978-9.1a.644.644,0,0,0-.268.259l-.117.209-1.714-3.752,1.975-.9a.761.761,0,0,1,1.008.378L204,81.675Zm5.194,11.726-.97.212a.6.6,0,0,1-.708-.454l-1.209-5.5,2.476-.893.874,5.965a.6.6,0,0,1-.462.668Z" transform="translate(992.844 228.35)" fill="#1ae5be"/>
    <path id="Path_4330" data-name="Path 4330" d="M97.587,362.139a2.959,2.959,0,1,0-2.959-2.959A2.959,2.959,0,0,0,97.587,362.139Zm0-4.628a1.669,1.669,0,1,1-1.669,1.669A1.669,1.669,0,0,1,97.587,357.511Z" transform="translate(1063.769 -21.117)" fill="#0635c9"/>
    <path id="Path_4331" data-name="Path 4331" d="M263.94,356.2a2.959,2.959,0,1,0,2.959,2.959A2.959,2.959,0,0,0,263.94,356.2Zm0,4.628a1.669,1.669,0,1,1,1.669-1.669,1.669,1.669,0,0,1-1.669,1.669Z" transform="translate(915.296 -21.099)" fill="#0635c9"/>
    <path id="Path_4332" data-name="Path 4332" d="M386.452,356.085a2.959,2.959,0,1,0,2.959,2.959A2.959,2.959,0,0,0,386.452,356.085Zm0,4.629a1.669,1.669,0,1,1,1.669-1.669A1.669,1.669,0,0,1,386.452,360.713Z" transform="translate(805.952 -20.996)" fill="#0635c9"/>
    <path id="Path_4333" data-name="Path 4333" d="M61.982,186.974l-3.861-8.3a.645.645,0,0,0-.585-.373H26.614l-.167-9.357a2.667,2.667,0,0,0-2.654-2.612H15.452a2.651,2.651,0,0,0-2.383,1.471c-2.8,5.586-3.386,7.954-3.386,8.955v5.209a1.717,1.717,0,0,0-.752,1.42V186.2a1.72,1.72,0,0,0,1.718,1.718h2.645l.723,1.994a.645.645,0,0,0,.606.425H15.6a5.538,5.538,0,0,0,11,0H33.48a5.538,5.538,0,0,0,11,0h2.168a5.538,5.538,0,0,0,11,0H60.3a.645.645,0,0,0,.582-.922l-.724-1.524H61.4a.645.645,0,0,0,.585-.917Zm-48.56-16.958h5.011v3.575h-1.9a.645.645,0,0,0-.368.115l-1.95,1.355H11.331a42.552,42.552,0,0,1,2.091-5.046Zm-.32,16.611H10.649a.429.429,0,0,1-.428-.428v-2.815a.429.429,0,0,1,.428-.428H13.1Zm.155-4.961H10.973v-4.911a2.767,2.767,0,0,1,.035-.4H14.42a.645.645,0,0,0,.368-.115l1.95-1.355h5.423a1.314,1.314,0,0,0,1.313-1.313v-3.529a1.314,1.314,0,0,0-1.313-1.313H14.048l.174-.349a1.368,1.368,0,0,1,1.23-.759h8.341a1.371,1.371,0,0,1,1.365,1.344l.167,9.335H18.4a5.159,5.159,0,0,0-5.142,3.368Zm6.466-8.074v-3.575h2.439a.023.023,0,0,1,.023.023v3.529a.023.023,0,0,1-.023.023Zm-5.331,8.791a3.821,3.821,0,0,1,4.008-2.8h6.937v1.567H20.26c-2.863,0-4.56.943-5.868,3.319ZM25.3,190.322a4.209,4.209,0,0,1-.252.936.644.644,0,0,0-.625,1.08,4.278,4.278,0,0,1-.686.686.644.644,0,0,0-1.08.625,4.208,4.208,0,0,1-.936.252.644.644,0,0,0-1.248,0,4.21,4.21,0,0,1-.936-.252.644.644,0,0,0-1.079-.625,4.284,4.284,0,0,1-.686-.686.644.644,0,0,0-.626-1.08,4.214,4.214,0,0,1-.252-.936.644.644,0,0,0,0-1.248,4.208,4.208,0,0,1,.252-.936.644.644,0,0,0,.625-1.08,4.29,4.29,0,0,1,.686-.686.644.644,0,0,0,1.08-.625,4.214,4.214,0,0,1,.936-.252.644.644,0,0,0,1.249,0,4.205,4.205,0,0,1,.936.252.644.644,0,0,0,1.08.625,4.276,4.276,0,0,1,.686.686.644.644,0,0,0,.625,1.08,4.215,4.215,0,0,1,.252.936.644.644,0,0,0,0,1.248Zm5.219-1.272H26.6a5.538,5.538,0,0,0-11,0h-.526l-.631-1.74.8-1.665c1.129-2.36,2.442-3.2,5.019-3.2h5.322l2.543,5.09a.645.645,0,0,0,.577.357H31Zm12.661,1.269a4.211,4.211,0,0,1-.252.937.644.644,0,0,0-.625,1.079,4.285,4.285,0,0,1-.686.686.644.644,0,0,0-1.08.625,4.21,4.21,0,0,1-.936.252.644.644,0,0,0-1.248,0,4.21,4.21,0,0,1-.936-.252.644.644,0,0,0-1.08-.625,4.283,4.283,0,0,1-.686-.686.644.644,0,0,0-.625-1.08,4.21,4.21,0,0,1-.252-.936.644.644,0,0,0,0-1.248,4.21,4.21,0,0,1,.252-.936.644.644,0,0,0,.625-1.08,4.291,4.291,0,0,1,.686-.686.644.644,0,0,0,1.08-.625,4.21,4.21,0,0,1,.936-.252.644.644,0,0,0,1.248,0,4.208,4.208,0,0,1,.936.252.644.644,0,0,0,1.08.625,4.29,4.29,0,0,1,.686.686.645.645,0,0,0,.453,1.1.637.637,0,0,0,.173-.024,4.21,4.21,0,0,1,.252.936.644.644,0,0,0,0,1.248Zm13.168-.012a4.211,4.211,0,0,1-.252.936.644.644,0,0,0-.625,1.08,4.283,4.283,0,0,1-.686.686.644.644,0,0,0-1.08.625,4.21,4.21,0,0,1-.936.252.644.644,0,0,0-1.249,0,4.213,4.213,0,0,1-.936-.252.644.644,0,0,0-1.08-.625,4.286,4.286,0,0,1-.686-.686.644.644,0,0,0-.625-1.08,4.21,4.21,0,0,1-.252-.936.644.644,0,0,0,0-1.248,4.212,4.212,0,0,1,.252-.936.644.644,0,0,0,.625-1.08,4.286,4.286,0,0,1,.686-.686.644.644,0,0,0,1.08-.625,4.212,4.212,0,0,1,.936-.252.644.644,0,0,0,1.249,0,4.209,4.209,0,0,1,.936.252.644.644,0,0,0,1.08.625,4.277,4.277,0,0,1,.686.686.644.644,0,0,0,.625,1.08,4.207,4.207,0,0,1,.252.936.644.644,0,0,0,0,1.248Zm1.3-1.261a5.538,5.538,0,0,0-11,0H44.481a5.538,5.538,0,0,0-11,0H31.918l.638-1.551,0-.006,1.783-4.334H56.477l2.8,5.887Zm1.891-2.445-2.074-4.364a.645.645,0,0,0-.582-.368H33.91a.645.645,0,0,0-.6.4L31.531,186.6H29.1l-2.475-4.954v-2.06h30.5l3.262,7.014Z" transform="translate(1140.255 148.365)" fill="#0635c9"/>
  </g>
</svg>
