<svg xmlns="http://www.w3.org/2000/svg" width="42.998" height="39.904" viewBox="0 0 42.998 39.904">
  <g id="Group_2193" data-name="Group 2193" transform="translate(-1037.667 -439.064)">
    <path id="Path_4304" data-name="Path 4304" d="M28.733,57.715v-6.36l6.209-5.676L34.268,43,26,50.013v8.353L46.952,81.807l-1.959-5.395Z" transform="translate(1012.213 396.611)" fill="#d4e1f4"/>
    <path id="Path_4305" data-name="Path 4305" d="M54.871,49.175l2.892-11.488L56.7,37.42,53.8,48.942,44.986,37.225a.547.547,0,0,0-.874,0L35.3,48.942,32.4,37.42l-1.06.267,2.892,11.488-10.389-5.1-.482.981L34.8,50.676h0a.542.542,0,0,0,.677-.161l9.068-12.052,9.067,12.051a.542.542,0,0,0,.677.161h0l11.448-5.619-.481-.981Z" transform="translate(1014.616 402.059)" fill="#1ae5be"/>
    <path id="Path_4306" data-name="Path 4306" d="M62.8,44.143,54.537,37.13a.547.547,0,0,0-.354-.13H28.815a.547.547,0,0,0-.354.13l-8.268,7.013A.547.547,0,0,0,20,44.56v8.382h0a.6.6,0,0,0,.138.349L41.091,76.725a.549.549,0,0,0,.815-.006L62.859,53.292a.6.6,0,0,0,.138-.35h0V44.559a.547.547,0,0,0-.193-.417ZM29.015,38.093H53.982l7.922,6.72v7.406L51.145,49.662a.545.545,0,0,0-.127,0H32.025a.541.541,0,0,0-.127,0L21.093,52.22V44.813ZM50.223,50.756,41.5,74.782,32.775,50.756ZM31.65,50.83l8.368,23.047L21.565,53.231ZM42.98,73.877l8.372-23.056,10.082,2.41Z" transform="translate(1017.667 402.064)" fill="#0635c9"/>
    <path id="Path_4307" data-name="Path 4307" d="M63.787,216.26a.547.547,0,1,0-.816.727l.221.248a.547.547,0,1,0,.816-.727Z" transform="translate(979.737 239.301)" fill="#0635c9"/>
    <path id="Path_4308" data-name="Path 4308" d="M83.21,238.063,79.1,233.448a.547.547,0,1,0-.816.727l4.111,4.615a.547.547,0,1,0,.816-.727Z" transform="translate(964.82 223.679)" fill="#0635c9"/>
  </g>
</svg>
