<svg xmlns="http://www.w3.org/2000/svg" width="51.183" height="47.471" viewBox="0 0 51.183 47.471">
  <g id="Bank" transform="translate(-1272.035 -177.061)">
    <path id="Path_4205" data-name="Path 4205" d="M20.963,22.2,39.92,13.953,37.2,12.769l-19.317,8.4V23.23h3.081Zm0,0" transform="translate(1255.988 165.58)" fill="#d4e1f4"/>
    <path id="Path_4206" data-name="Path 4206" d="M61.281,126.641h1.365v18.1H61.281Zm0,0" transform="translate(1217.045 63.4)" fill="#d4e1f4"/>
    <path id="Path_4207" data-name="Path 4207" d="M149,126.641h1.365v18.1H149Zm0,0" transform="translate(1138.338 63.4)" fill="#d4e1f4"/>
    <path id="Path_4208" data-name="Path 4208" d="M35.219,314.875H59.781v1.365H35.219Zm0,0" transform="translate(1240.432 -105.504)" fill="#d4e1f4"/>
    <path id="Path_4209" data-name="Path 4209" d="M11.219,351.137h26.41V352.5H11.219Zm0,0" transform="translate(1261.967 -138.043)" fill="#d4e1f4"/>
    <path id="Path_4210" data-name="Path 4210" d="M237.926,126.641h1.365v18.1h-1.365Zm0,0" transform="translate(1058.54 63.4)" fill="#d4e1f4"/>
    <path id="Path_4211" data-name="Path 4211" d="M324.746,126.641h1.365v11.525l-1.365.719Zm0,0" transform="translate(980.635 63.4)" fill="#d4e1f4"/>
    <path id="Path_4212" data-name="Path 4212" d="M179.5,43.85a3.032,3.032,0,1,0-3.032-3.032A3.033,3.033,0,0,0,179.5,43.85Zm0-4.833a1.8,1.8,0,1,1-1.8,1.8A1.8,1.8,0,0,1,179.5,39.017Zm0,0" transform="translate(1113.687 143.133)" fill="#0635c9"/>
    <path id="Path_4213" data-name="Path 4213" d="M29.275,39.654a.616.616,0,0,0-.616-.616H1.233V36.4H27.98a.616.616,0,0,0,0-1.232H3.649V32.538H28.659a.616.616,0,0,0,0-1.232h-.521V13.21h4.253V26.422a.616.616,0,1,0,1.232,0V13.21h2.392V24.8a.616.616,0,1,0,1.232,0V13.21h3.84a.616.616,0,0,0,.616-.616V9.513a.616.616,0,0,0-.37-.565L21.4.28a.616.616,0,0,0-.491,0L.976,8.948a.616.616,0,0,0-.37.565v3.081a.616.616,0,0,0,.616.616h3.84v18.1H3.033a.616.616,0,0,0-.616.616v3.25H.617A.616.616,0,0,0,0,35.788v3.866a.616.616,0,0,0,.616.616H28.659a.616.616,0,0,0,.616-.616ZM14.171,13.21v18.1H9.918V13.21Zm3.625,0v18.1H15.4V13.21Zm5.485,0v18.1H19.028V13.21Zm3.624,18.1H24.513V13.21h2.392ZM1.837,9.917l19.317-8.4,19.317,8.4v2.061H1.837Zm4.456,3.293H8.686v18.1H6.294Zm0,0" transform="translate(1272.033 176.832)" fill="#0635c9"/>
    <path id="Path_4214" data-name="Path 4214" d="M306.583,261.949a8.684,8.684,0,1,0,8.684,8.684A8.684,8.684,0,0,0,306.583,261.949Zm0,16.136a7.452,7.452,0,1,1,7.452-7.452A7.452,7.452,0,0,1,306.583,278.085Zm0,0" transform="translate(1004.725 -58.014)" fill="#1ae5be"/>
    <path id="Path_4215" data-name="Path 4215" d="M286.836,234.059a.6.6,0,0,0-.04-.049c-.015-.015-.033-.027-.049-.04a11.89,11.89,0,0,0-16.748,0,.587.587,0,0,0-.049.04.606.606,0,0,0-.04.049,11.89,11.89,0,0,0,0,16.748.572.572,0,0,0,.04.048.58.58,0,0,0,.048.04,11.89,11.89,0,0,0,16.749,0,.6.6,0,0,0,.048-.04.514.514,0,0,0,.039-.048,11.89,11.89,0,0,0,0-16.748Zm1.659,8.99h.539a10.637,10.637,0,0,1-2.69,6.483l-.378-.378a.616.616,0,1,0-.871.872l.378.377a10.637,10.637,0,0,1-6.483,2.69v-.539a.616.616,0,1,0-1.232,0v.539a10.635,10.635,0,0,1-6.483-2.69l.378-.378a.616.616,0,1,0-.872-.871l-.377.378a10.637,10.637,0,0,1-2.69-6.483h.539a.616.616,0,1,0,0-1.232h-.539a10.636,10.636,0,0,1,2.69-6.483l.377.377a.616.616,0,1,0,.871-.871l-.377-.377a10.635,10.635,0,0,1,6.483-2.69v.539a.616.616,0,1,0,1.232,0v-.539a10.635,10.635,0,0,1,6.483,2.69l-.377.377a.616.616,0,1,0,.871.872l.378-.377a10.637,10.637,0,0,1,2.69,6.483h-.54a.616.616,0,1,0,0,1.232Zm0,0" transform="translate(1032.934 -29.813)" fill="#1ae5be"/>
    <path id="Path_4216" data-name="Path 4216" d="M353.864,285.463v-.921a.616.616,0,0,0-1.232,0v.885h-.824v-.885a.616.616,0,0,0-1.232,0v.885h-.992a.616.616,0,0,0-.616.616v8.688a.616.616,0,0,0,.616.616h.992v.817a.616.616,0,0,0,1.232,0v-.817h.824v.817a.616.616,0,0,0,1.232,0v-.853a2.4,2.4,0,0,0,1.984-2.357v-.79a2.386,2.386,0,0,0-.792-1.777,2.387,2.387,0,0,0,.792-1.777v-.79A2.4,2.4,0,0,0,353.864,285.463Zm.752,6.7v.79a1.161,1.161,0,0,1-1.161,1.161H350.2V291h3.255A1.162,1.162,0,0,1,354.616,292.165Zm-4.415-2.393v-3.112h3.255a1.162,1.162,0,0,1,1.161,1.161v.79a1.162,1.162,0,0,1-1.161,1.161Zm0,0" transform="translate(958.899 -77.733)" fill="#1ae5be"/>
  </g>
</svg>
