<svg xmlns="http://www.w3.org/2000/svg" width="42.591" height="42.591" viewBox="0 0 42.591 42.591">
  <g id="Group_2204" data-name="Group 2204" transform="translate(-1155.139 -831.5)">
    <path id="Path_4391" data-name="Path 4391" d="M277.011,540.912a2.024,2.024,0,0,0,1.425.627.788.788,0,0,0,.088,0h38.526a2.034,2.034,0,0,0,0-4.066h-2.96V514.663l.637.365a2.037,2.037,0,0,0,2.827-.856l.15-.3a2.034,2.034,0,0,0-.81-2.674l-2.8-1.6v-6.684l.072-.025a2.028,2.028,0,0,0-.674-3.941h-5.712a2.03,2.03,0,0,0-2.027,2.029,2.034,2.034,0,0,0,1.343,1.908l.071.025v2.731l-8.363-4.779a2.049,2.049,0,0,0-2.018,0l-18.1,10.337a2.035,2.035,0,0,0-.809,2.675l.148.3a2.035,2.035,0,0,0,2.728.91c.034-.017.068-.036.1-.054l.636-.364v22.809h-3.006a2.034,2.034,0,0,0-1.471,3.44Zm29.944-39.931a.821.821,0,0,1,.82-.82h5.709a.82.82,0,0,1,0,1.64h-5.709A.821.821,0,0,1,306.955,500.981Zm5.922,2.034v5.891l-4.506-2.576v-3.316Zm-32.63,10.96a.821.821,0,0,1-1.119-.306l-.17-.338a.819.819,0,0,1,.328-1.079l18.091-10.34a.824.824,0,0,1,.815,0l18.1,10.345a.822.822,0,0,1,.328,1.079l-.151.3a.812.812,0,0,1-.474.411.824.824,0,0,1-.26.043.8.8,0,0,1-.367-.088l-.041-.021L298.8,504.53a2.048,2.048,0,0,0-2.017,0Zm32.63-.006v23.5H282.7l0-23.5.054-.031,14.625-8.363a.824.824,0,0,1,.815,0Zm-34.351,24.716h38.524a.82.82,0,1,1,0,1.64H278.527a.82.82,0,0,1,0-1.64Z" transform="translate(878.692 332.551)" fill="#0635c9"/>
    <rect id="Rectangle_674" data-name="Rectangle 674" width="2.64" height="1.212" transform="translate(1163.033 867.17)" fill="#27e6c2"/>
    <rect id="Rectangle_675" data-name="Rectangle 675" width="2.64" height="1.212" transform="translate(1187.289 867.17)" fill="#27e6c2"/>
    <rect id="Rectangle_676" data-name="Rectangle 676" width="1.212" height="1.212" transform="translate(1167.313 867.17)" fill="#27e6c2"/>
    <g id="Path_384" data-name="Path 384" transform="translate(1184.221 866.956)">
      <path id="Path_4392" data-name="Path 4392" d="M310.524,540.468h1.426v1.426h-1.426Z" transform="translate(-310.417 -540.361)" fill="#27e6c2"/>
      <path id="Path_4393" data-name="Path 4393" d="M312.039,541.983H310.4v-1.64h1.64Zm-1.426-.214h1.212v-1.212h-1.212Z" transform="translate(-310.399 -540.343)" fill="#fff"/>
    </g>
    <path id="Path_4394" data-name="Path 4394" d="M290.071,520.126h-2.258a.608.608,0,0,0-.609.607v12.842a.608.608,0,0,0,.609.606h20.061a.609.609,0,0,0,.609-.606v-2.248h2.26a.608.608,0,0,0,.609-.607V517.878a.608.608,0,0,0-.609-.607H290.679a.608.608,0,0,0-.608.607Zm1.217-1.641h18.846v11.63H308.49v-9.381a.608.608,0,0,0-.609-.607H291.288Zm15.98,2.854v11.629H288.421V521.339Z" transform="translate(877.149 329.923)" fill="#27e6c2"/>
    <path id="Path_4395" data-name="Path 4395" d="M293.18,523.1h-2.747a.607.607,0,0,0-.606.606v2.747h1.213v-2.141h2.141Z" transform="translate(876.773 329.086)" fill="#27e6c2"/>
    <path id="Path_4396" data-name="Path 4396" d="M290.433,533.951h2.747v-1.212H291.04V530.6h-1.213v2.746A.608.608,0,0,0,290.433,533.951Z" transform="translate(876.773 328.012)" fill="#27e6c2"/>
    <path id="Path_4397" data-name="Path 4397" d="M309,526.456v-2.747a.606.606,0,0,0-.606-.606h-2.746v1.212h2.141v2.141Z" transform="translate(874.503 329.086)" fill="#27e6c2"/>
    <path id="Path_4398" data-name="Path 4398" d="M305.652,532.739v1.212H308.4a.607.607,0,0,0,.606-.606V530.6h-1.212v2.141Z" transform="translate(874.503 328.012)" fill="#27e6c2"/>
    <path id="Path_4399" data-name="Path 4399" d="M298.878,523.1a4.886,4.886,0,1,0,4.886,4.886A4.891,4.891,0,0,0,298.878,523.1Zm0,8.56a3.672,3.672,0,0,1-.107-7.342v0l.107,0a3.674,3.674,0,0,1,0,7.348Z" transform="translate(876.176 329.087)" fill="#27e6c2"/>
  </g>
</svg>
