<svg xmlns="http://www.w3.org/2000/svg" width="41.33" height="49.661" viewBox="0 0 41.33 49.661">
  <g id="Group_2197" data-name="Group 2197" transform="translate(-1039.335 -562.699)">
    <path id="Path_4342" data-name="Path 4342" d="M78.407,229.964q-.02-.027-.043-.052a1.177,1.177,0,0,1-.27-1.045,1.429,1.429,0,0,1,.781-1.005l14.211-5.093V220.94L76.747,226.8a1.429,1.429,0,0,0-.781,1.005,1.177,1.177,0,0,0,.27,1.045q.022.025.043.052L86.7,242.992a4.064,4.064,0,0,0,.95-.532Z" transform="translate(964.89 362.837)" fill="#d4e1f4"/>
    <path id="Path_4343" data-name="Path 4343" d="M150.745,39.353a.745.745,0,0,0,.745-.745V36.181a1.531,1.531,0,0,1,1.434-1.579H155a1.507,1.507,0,0,1,1.384,1.579v2.427a.745.745,0,1,0,1.491,0V36.181a3.026,3.026,0,0,0-2.023-2.914V23.7a.7.7,0,0,0-.728-.706h-2.444a.732.732,0,0,0-.768.706v9.6A3.131,3.131,0,0,0,150,36.181v2.427a.745.745,0,0,0,.745.745Zm3.62-14.868v8.625h-.958V24.485Z" transform="translate(898.713 539.705)" fill="#1ae5be"/>
    <path id="Path_4344" data-name="Path 4344" d="M150.745,39.353a.745.745,0,0,0,.745-.745V36.181a1.531,1.531,0,0,1,1.434-1.579H155a1.507,1.507,0,0,1,1.384,1.579v2.427a.745.745,0,1,0,1.491,0V36.181a3.026,3.026,0,0,0-2.023-2.914V23.7a.7.7,0,0,0-.728-.706h-2.444a.732.732,0,0,0-.768.706v9.6A3.131,3.131,0,0,0,150,36.181v2.427a.745.745,0,0,0,.745.745Zm3.62-14.868v8.625h-.958V24.485Z" transform="translate(898.713 539.705)" fill="#1ae5be"/>
    <path id="Path_4345" data-name="Path 4345" d="M128.745,111.349a.745.745,0,0,0,.745-.745v-7.273a.513.513,0,0,1,.547-.492h20.786a.47.47,0,0,1,.5.492V110.6a.745.745,0,1,0,1.491,0v-7.273a1.96,1.96,0,0,0-1.986-1.983h-.676v-.559a1.969,1.969,0,0,0-1.81-2.014v-1.69A3.1,3.1,0,0,0,145.32,94h-1.849a3.2,3.2,0,0,0-3.119,3.084v1.7a2.017,2.017,0,0,0-1.7,2v.559h-8.61A2,2,0,0,0,128,103.331V110.6A.745.745,0,0,0,128.745,111.349Zm14.726-15.858h1.849a1.611,1.611,0,0,1,1.528,1.593v1.708h-5V97.084A1.718,1.718,0,0,1,143.471,95.491Zm-3.332,5.3a.509.509,0,0,1,.53-.506h7.5a.477.477,0,0,1,.491.506v.559h-8.519Z" transform="translate(918.371 476.26)" fill="#0635c9"/>
    <path id="Path_4346" data-name="Path 4346" d="M140.042,272.211a2.944,2.944,0,1,0,2.943-2.943A2.944,2.944,0,0,0,140.042,272.211Zm4.4,0a1.453,1.453,0,1,1-1.453-1.453A1.453,1.453,0,0,1,144.438,272.211Z" transform="translate(907.611 319.655)" fill="#0635c9"/>
    <path id="Path_4347" data-name="Path 4347" d="M297.108,270.643a2.943,2.943,0,1,0,2.943,2.943A2.944,2.944,0,0,0,297.108,270.643Zm0,4.4a1.453,1.453,0,1,1,1.452-1.453A1.453,1.453,0,0,1,297.108,275.039Z" transform="translate(769.9 318.427)" fill="#0635c9"/>
    <path id="Path_4348" data-name="Path 4348" d="M76.8,456.212a4.241,4.241,0,0,1,2.772.968,5.931,5.931,0,0,0,7.234,0,4.453,4.453,0,0,1,5.544,0,5.931,5.931,0,0,0,7.234,0,4.454,4.454,0,0,1,5.544,0,5.932,5.932,0,0,0,7.235,0,4.242,4.242,0,0,1,2.772-.968.745.745,0,0,0,0-1.491,5.672,5.672,0,0,0-3.617,1.23,4.454,4.454,0,0,1-5.545,0,5.932,5.932,0,0,0-7.235,0,4.453,4.453,0,0,1-5.544,0,5.931,5.931,0,0,0-7.234,0,4.453,4.453,0,0,1-5.543,0,5.671,5.671,0,0,0-3.617-1.231.745.745,0,1,0,0,1.491Z" transform="translate(964.786 153.95)" fill="#0635c9"/>
    <path id="Path_4349" data-name="Path 4349" d="M100.741,212.189a2.926,2.926,0,0,0-1.659-1.993l-.045-.018L81.661,203.9a.746.746,0,0,0-.5,0l-17.436,6.24-.057.023a2.958,2.958,0,0,0-1.672,2.065,2.662,2.662,0,0,0,.59,2.317l10.744,14.535,1.2-.886-10.762-14.56q-.02-.027-.043-.052a1.177,1.177,0,0,1-.27-1.045,1.429,1.429,0,0,1,.781-1.005l16.341-5.857v22.581h1.491V205.649l16.42,5.922a1.445,1.445,0,0,1,.8.966,1.184,1.184,0,0,1-.206,1.041c-.008.01-.013.02-.021.031L89.23,226.951l1.2.884,9.814-13.328A2.664,2.664,0,0,0,100.741,212.189Z" transform="translate(977.406 378.102)" fill="#1ae5be"/>
    <path id="Path_4350" data-name="Path 4350" d="M114.193,415.065a3.113,3.113,0,0,1,2.053.721,4.763,4.763,0,0,0,5.8,0,3.285,3.285,0,0,1,4.106,0,4.763,4.763,0,0,0,5.8,0,3.286,3.286,0,0,1,4.107,0,4.764,4.764,0,0,0,5.8,0,3.114,3.114,0,0,1,2.053-.721.745.745,0,1,0,0-1.491,4.536,4.536,0,0,0-2.9.983,3.286,3.286,0,0,1-4.107,0,4.764,4.764,0,0,0-5.8,0,3.285,3.285,0,0,1-4.106,0,4.763,4.763,0,0,0-5.8,0,3.286,3.286,0,0,1-4.106,0,4.537,4.537,0,0,0-2.9-.983.745.745,0,1,0,0,1.491Z" transform="translate(931.373 190.716)" fill="#0635c9"/>
  </g>
</svg>
