<svg xmlns="http://www.w3.org/2000/svg" width="46.333" height="47.375" viewBox="0 0 46.333 47.375">
  <g id="Group_2196" data-name="Group 2196" transform="translate(-1153 -567.453)">
    <path id="Path_4409" data-name="Path 4409" d="M183.787,56.689a7.7,7.7,0,1,0,0,15.134,7.7,7.7,0,0,1,0-15.134Z" transform="translate(993.836 515.752)" fill="#d4e1f4"/>
    <path id="Path_4410" data-name="Path 4410" d="M50.433,274.857v-2.366a2.155,2.155,0,0,0-2.157-2.167H33.763v-4.808a.565.565,0,1,0-1.13,0v4.808H18.118a2.155,2.155,0,0,0-2.157,2.167v2.39a6.493,6.493,0,0,0,.526,12.961h.02a6.436,6.436,0,0,0,4.56-1.949,6.518,6.518,0,0,0,1.877-4.616,6.434,6.434,0,0,0-5.853-6.392v-2.394a1.024,1.024,0,0,1,1.027-1.037H32.632v3.4a6.45,6.45,0,1,0,1.13.008v-3.41H48.277a1.024,1.024,0,0,1,1.027,1.037v2.372a6.462,6.462,0,1,0,1.13-.006ZM16.5,286.712h-.016a5.483,5.483,0,0,1-2.5-.691v-1.383a1.466,1.466,0,0,1,1.425-1.505h2.158a1.532,1.532,0,0,1,1.5,1.505v1.371A6.692,6.692,0,0,1,16.5,286.712Zm1.247-6.638a1.272,1.272,0,0,1-2.543,0v-.509a1.272,1.272,0,1,1,2.543,0Zm4.063,1.224a5.33,5.33,0,0,1-1.532,3.795c-.033.033-.083.064-.083.1v-.551a2.618,2.618,0,0,0-2.35-2.585,2.378,2.378,0,0,0,1.031-1.979v-.509a2.4,2.4,0,0,0-4.8,0v.509a2.42,2.42,0,0,0,1.079,1.979,2.577,2.577,0,0,0-2.3,2.585v.561a5.126,5.126,0,0,1-1.671-3.793,5.3,5.3,0,0,1,5.289-5.338h.017a5.251,5.251,0,0,1,3.755,1.508A5.2,5.2,0,0,1,21.815,281.3Zm8.746,4.669v-1.33a1.535,1.535,0,0,1,1.507-1.505h2.158a1.543,1.543,0,0,1,1.515,1.505v1.33a5.737,5.737,0,0,1-2.59.65A5.45,5.45,0,0,1,30.56,285.967Zm3.862-5.894a1.272,1.272,0,1,1-2.543,0v-.509a1.272,1.272,0,0,1,2.543,0Zm4.074,1.217a5.593,5.593,0,0,1-1.626,3.848v-.5a2.618,2.618,0,0,0-2.35-2.585,2.378,2.378,0,0,0,1.031-1.979v-.509a2.4,2.4,0,0,0-4.8,0v.509a2.378,2.378,0,0,0,1.031,1.979,2.618,2.618,0,0,0-2.35,2.585v.5a5.6,5.6,0,0,1-1.629-3.848,5.348,5.348,0,0,1,10.7,0Zm8.829,4.677v-1.33a1.532,1.532,0,0,1,1.5-1.505h2.158a1.466,1.466,0,0,1,1.425,1.505v1.33A5.3,5.3,0,0,1,47.325,285.967Zm3.862-5.894a1.272,1.272,0,1,1-2.543,0v-.509a1.272,1.272,0,0,1,2.543,0Zm2.355,5.065v-.5a2.577,2.577,0,0,0-2.3-2.585,2.42,2.42,0,0,0,1.079-1.979v-.509a2.4,2.4,0,0,0-4.8,0v.509a2.378,2.378,0,0,0,1.031,1.979,2.618,2.618,0,0,0-2.35,2.585v.5a5.6,5.6,0,0,1-1.632-3.848,5.322,5.322,0,1,1,10.645,0A5.245,5.245,0,0,1,53.542,285.139Z" transform="translate(1142.969 326.986)" fill="#1ae5be"/>
    <path id="Path_4411" data-name="Path 4411" d="M69.628,5H33.788a3.172,3.172,0,0,0-3.171,3.218L30.889,27a3.2,3.2,0,0,0,3.171,3.144H69.9A3.2,3.2,0,0,0,73.072,26.9L72.8,8.13A3.189,3.189,0,0,0,69.628,5Zm1.726,23.39a2.045,2.045,0,0,1-1.454.627H34.06a2.066,2.066,0,0,1-2.041-2.03L31.747,8.21a2.049,2.049,0,0,1,2.041-2.08h35.84A2.05,2.05,0,0,1,71.67,8.142l.272,18.776A2.048,2.048,0,0,1,71.354,28.39Z" transform="translate(1124.322 562.453)" fill="#0635c9"/>
    <path id="Path_4412" data-name="Path 4412" d="M93.266,33.155a.558.558,0,0,0-.4-.156H62.375a.558.558,0,0,0-.394.152l-2.816,2.733a.552.552,0,0,0-.166.4V49.634a.56.56,0,0,0,.166.406L61.9,52.7a.57.57,0,0,0,.391.171H92.82a.577.577,0,0,0,.387-.165l2.82-2.656a.576.576,0,0,0,.176-.417V36.287a.556.556,0,0,0-.166-.4Zm1.807,16.234L92.6,51.742H62.517L60.13,49.395V36.526l2.475-2.4H92.637l2.436,2.394Z" transform="translate(1098.613 535.092)" fill="#0635c9"/>
    <path id="Path_4413" data-name="Path 4413" d="M234.49,88.011a1.134,1.134,0,0,1,1.132,1.132.565.565,0,0,0,.565.565.547.547,0,0,0,.543-.565,2.22,2.22,0,0,0-1.719-2.191v-.439a.565.565,0,1,0-1.13,0v.439a2.266,2.266,0,0,0,.6,4.453,1.132,1.132,0,0,1,.02,2.264h-.022a1.133,1.133,0,0,1-1.12-1.132.565.565,0,0,0-.565-.565.584.584,0,0,0-.587.565,2.285,2.285,0,0,0,1.676,2.191v.516a.565.565,0,0,0,1.13,0v-.516a2.22,2.22,0,0,0,1.719-2.191,2.256,2.256,0,0,0-2.252-2.263,1.132,1.132,0,1,1,.011-2.265Z" transform="translate(941.721 489.13)" fill="#0635c9"/>
    <path id="Path_4414" data-name="Path 4414" d="M176.984,50.563a8.264,8.264,0,1,0,8.264,8.264,8.264,8.264,0,0,0-8.264-8.264Zm0,15.4a7.134,7.134,0,1,1,7.133-7.134A7.134,7.134,0,0,1,176.984,65.96Z" transform="translate(999.227 521.182)" fill="#0635c9"/>
    <path id="Path_4415" data-name="Path 4415" d="M83.946,104.087a3.223,3.223,0,1,0,3.223,3.223A3.223,3.223,0,0,0,83.946,104.087Zm0,5.315a2.092,2.092,0,1,1,2.092-2.093A2.092,2.092,0,0,1,83.946,109.4Z" transform="translate(1078.936 472.699)" fill="#0635c9"/>
    <path id="Path_4416" data-name="Path 4416" d="M363.767,107.307a3.223,3.223,0,1,0,3.223-3.223A3.223,3.223,0,0,0,363.767,107.307Zm5.315,0a2.092,2.092,0,1,1-2.092-2.092,2.092,2.092,0,0,1,2.092,2.092Z" transform="translate(822.55 472.701)" fill="#0635c9"/>
  </g>
</svg>
