<svg xmlns="http://www.w3.org/2000/svg" width="48.864" height="53.28" viewBox="0 0 48.864 53.28">
  <g id="Group_2191" data-name="Group 2191" transform="translate(-1272.403 -426.246)">
    <path id="Path_4309" data-name="Path 4309" d="M300.075,408.731a21.569,21.569,0,0,0-27.093,18.724,7.224,7.224,0,0,1,11.921-3.506,21.586,21.586,0,0,1,15.173-15.22Z" transform="translate(1000.083 34.281)" fill="#d4e1f4" stroke="#fff" stroke-miterlimit="10" stroke-width="0.5"/>
    <path id="Path_4334" data-name="Path 4334" d="M316.49,427.347a22.108,22.108,0,0,0-7.128-14.263l-.08-.075a22.213,22.213,0,0,0-31.3,1.5,22.348,22.348,0,0,0-5.706,12.835.663.663,0,0,0,.593.73.651.651,0,0,0,.713-.5,6.57,6.57,0,0,1,7.986-4.739,6.607,6.607,0,0,1,4.933,6.094.669.669,0,0,0,.678.651h.008a.664.664,0,0,0,.641-.645,6.519,6.519,0,0,1,5.326-6.189l.549-.1V441.75a2.113,2.113,0,1,1-4.226,0V438.7h-1.333v3.055a3.443,3.443,0,1,0,6.886,0V422.638l.548.1a6.5,6.5,0,0,1,5.362,6.194.658.658,0,0,0,.214.469.592.592,0,0,0,.467.18.666.666,0,0,0,.647-.645,6.564,6.564,0,0,1,6.826-6.3,6.609,6.609,0,0,1,6.094,4.934.657.657,0,0,0,.3.411.649.649,0,0,0,.5.076A.665.665,0,0,0,316.49,427.347Zm-3.268-4.712a7.843,7.843,0,0,0-4.289-1.336h-.111A7.9,7.9,0,0,0,302,425.2l-.4.685-.4-.683a7.908,7.908,0,0,0-13.642,0l-.4.681-.4-.68a7.912,7.912,0,0,0-10.821-2.819c-.137.08-.27.162-.4.25l-1.2.8.512-1.354a20.893,20.893,0,0,1,39.072,0l.516,1.361Z" transform="translate(1000.135 34.332)" fill="#0635c9"/>
    <path id="Path_4335" data-name="Path 4335" d="M323.328,393.864l-5.276-3.047a.7.7,0,0,0-.354-.095.711.711,0,0,0-.541.248l-3.4,3.933-4.191,4.636a.713.713,0,0,0,.05,1.008.713.713,0,0,0,.124.091l3.494,2.018-5.388,7.3a.715.715,0,0,0,.941,1.033l12.883-7.731a.714.714,0,0,0-.01-1.231l-2.857-1.651,1.335-1.442,3.372-3.994a.713.713,0,0,0-.084-1.006A.648.648,0,0,0,323.328,393.864Zm-4.246,4.1-1.937,2.09a.714.714,0,0,0,.035,1.008.764.764,0,0,0,.131.1l2.579,1.489-8.778,5.276,3.744-5.074a.711.711,0,0,0-.217-1.042l-3.42-1.975,3.6-3.984,3.024-3.506,4.022,2.323Z" transform="translate(997.583 35.523)" fill="#1ae5be"/>
  </g>
</svg>
