<svg xmlns="http://www.w3.org/2000/svg" width="49.788" height="27.221" viewBox="0 0 49.788 27.221">
  <g id="Group_2190" data-name="Group 2190" transform="translate(-1033.877 -313.732)">
    <path id="Path_4354" data-name="Path 4354" d="M52.2,159H49.166A3.222,3.222,0,0,1,46,162.226v13.18a3.313,3.313,0,0,1,3.166,3.327H52.2a3.313,3.313,0,0,0-3.166-3.327v-13.18A3.222,3.222,0,0,0,52.2,159Z" transform="translate(991.52 158.477)" fill="#d4e1f4"/>
    <path id="Path_4355" data-name="Path 4355" d="M187.952,195.614a7.661,7.661,0,1,0-7.661-7.661A7.661,7.661,0,0,0,187.952,195.614Zm0-14.108a6.447,6.447,0,1,1-6.447,6.447A6.447,6.447,0,0,1,187.952,181.505Z" transform="translate(870.818 139.34)" fill="#1ae5be"/>
    <path id="Path_4356" data-name="Path 4356" d="M234.635,211.344a1.192,1.192,0,0,1-1.191-1.191.607.607,0,1,0-1.214,0,2.409,2.409,0,0,0,1.8,2.327v.695a.607.607,0,0,0,1.214,0v-.7a2.4,2.4,0,0,0-.607-4.732,1.191,1.191,0,1,1,1.191-1.191.607.607,0,1,0,1.214,0,2.409,2.409,0,0,0-1.8-2.327v-.553a.607.607,0,1,0-1.214,0v.553a2.4,2.4,0,0,0,.607,4.732,1.191,1.191,0,1,1,0,2.381Z" transform="translate(824.136 118.865)" fill="#1ae5be"/>
    <path id="Path_4357" data-name="Path 4357" d="M59.788,122.607A.607.607,0,0,0,59.18,122H10.607a.607.607,0,0,0-.607.607v26.007a.607.607,0,0,0,.607.607H59.18a.607.607,0,0,0,.607-.607Zm-48.573.607H58.573v24.691H11.214Z" transform="translate(1023.877 191.732)" fill="#0635c9"/>
    <path id="Path_4358" data-name="Path 4358" d="M72.585,232.256a2.673,2.673,0,1,0,2.673-2.673A2.673,2.673,0,0,0,72.585,232.256Zm4.132,0a1.459,1.459,0,1,1-1.459-1.459A1.459,1.459,0,0,1,76.717,232.256Z" transform="translate(967.625 95.035)" fill="#0635c9"/>
    <path id="Path_4359" data-name="Path 4359" d="M391.926,232.254a2.673,2.673,0,1,0-2.673,2.673A2.673,2.673,0,0,0,391.926,232.254Zm-4.132,0a1.459,1.459,0,1,1,1.459,1.459A1.459,1.459,0,0,1,387.793,232.254Z" transform="translate(685.405 95.037)" fill="#0635c9"/>
    <path id="Path_4360" data-name="Path 4360" d="M82.931,156.227a2.546,2.546,0,0,1-2.483-2.625.6.6,0,0,0-.607-.6H50.018a.607.607,0,1,0,0,1.214H79.277a3.711,3.711,0,0,0,3.022,3.165V169.47a3.833,3.833,0,0,0-3.022,3.262H44.334a3.951,3.951,0,0,0-3.12-3.263V157.379a3.828,3.828,0,0,0,3.119-3.165H45.97a.607.607,0,1,0,0-1.214h-2.2a.606.606,0,0,0-.607.6,2.626,2.626,0,0,1-2.587,2.623.6.6,0,0,0-.58.607v13.178a.61.61,0,0,0,.579.607,2.711,2.711,0,0,1,2.588,2.727.6.6,0,0,0,.607.6H79.841a.6.6,0,0,0,.607-.6,2.632,2.632,0,0,1,2.481-2.729.605.605,0,0,0,.585-.607V156.833a.6.6,0,0,0-.582-.607Z" transform="translate(996.913 163.869)" fill="#0635c9"/>
    <path id="Path_4361" data-name="Path 4361" d="M164.343,174.663a10.319,10.319,0,1,0-10.319-10.319A10.319,10.319,0,0,0,164.343,174.663Zm0-19.424a9.105,9.105,0,1,1-9.105,9.105A9.105,9.105,0,0,1,164.343,155.238Z" transform="translate(894.427 162.949)" fill="#1ae5be"/>
  </g>
</svg>
