<svg xmlns="http://www.w3.org/2000/svg" width="48.908" height="46.061" viewBox="0 0 48.908 46.061">
  <g id="Azmayesh" transform="translate(-914.455 -177.04)">
    <path id="Path_4173" data-name="Path 4173" d="M26.646,146.939V144H23.8v2.939h1.138v2a19.775,19.775,0,0,1-2.029,8.754l-2.078,4.223-3.5,7.1a3.427,3.427,0,0,0,3.062,4.949h2.844a3.426,3.426,0,0,1-3.059-4.949l3.129-6.339,2.447-4.984a19.769,19.769,0,0,0,2.029-8.753v-2Z" transform="translate(897.482 45.456)" fill="#d4e1f4"/>
    <path id="Path_4174" data-name="Path 4174" d="M51.956,26.087v4.49h1.138v-4.49a5.546,5.546,0,1,0-11.092,0v5.148a3.982,3.982,0,0,1-7.964,0V19.109a6.068,6.068,0,1,0-12.135,0v3.03H19.65a.593.593,0,0,0-.592.573v2.176h-.546a.594.594,0,0,0-.592.592v2.952a.533.533,0,0,0,.533.533h.6v1.427A19.316,19.316,0,0,1,17.086,38.9l-5.548,11.26a4.074,4.074,0,0,0,.2,4.01,3.954,3.954,0,0,0,3.344,1.816H30.023a3.949,3.949,0,0,0,3.341-1.816,4.079,4.079,0,0,0,.2-4.013L27.983,38.893a19.338,19.338,0,0,1-2-8.5V28.965h.614a.524.524,0,0,0,.524-.524V25.457a.569.569,0,0,0-.569-.569h-.568V22.712a.536.536,0,0,0-.524-.573H23.04v-3.03a4.93,4.93,0,1,1,9.86,0V31.234a5.12,5.12,0,0,0,10.239,0V26.086a4.409,4.409,0,1,1,8.817,0Zm-19.5,27.389a2.82,2.82,0,0,1-2.433,1.371H15.082a2.82,2.82,0,0,1-2.433-1.371,2.928,2.928,0,0,1-.091-2.806l3.306-6.7a2.958,2.958,0,0,1,1.13.361,4.391,4.391,0,0,0,4.058,0,3.261,3.261,0,0,1,3.053,0,4.392,4.392,0,0,0,4.058,0,2.987,2.987,0,0,1,1.081-.355l3.3,6.693A2.928,2.928,0,0,1,32.456,53.475ZM26.963,39.4l1.744,3.514a4.317,4.317,0,0,0-1.052.4,3.253,3.253,0,0,1-3.048,0,4.391,4.391,0,0,0-4.058,0,3.262,3.262,0,0,1-3.053,0,4.306,4.306,0,0,0-1.106-.41l1.717-3.5A20.455,20.455,0,0,0,20.2,30.392V29a.589.589,0,0,0,.006-.076.574.574,0,0,0,.367-.529.564.564,0,0,0-.563-.569h-.948v-1.8h6.921v1.8H23.8a.569.569,0,1,0,0,1.138h1.043v1.427A20.49,20.49,0,0,0,26.963,39.4Zm-2.122-14.51H20.2V23.276h4.646Z" transform="translate(905.794 163.999)" fill="#0635c9"/>
    <path id="Path_4175" data-name="Path 4175" d="M59.875,361a1.375,1.375,0,1,0,1.375,1.375A1.375,1.375,0,0,0,59.875,361Zm0,1.612a.237.237,0,1,1,.237-.237A.237.237,0,0,1,59.875,362.612Z" transform="translate(859.892 -150.971)" fill="#0635c9"/>
    <path id="Path_4176" data-name="Path 4176" d="M145.857,408.956a1.9,1.9,0,1,0,1.9,1.9A1.9,1.9,0,0,0,145.857,408.956Zm0,2.663a.763.763,0,1,1,.763-.763A.763.763,0,0,1,145.857,411.619Z" transform="translate(785.537 -194.381)" fill="#0635c9"/>
    <path id="Path_4177" data-name="Path 4177" d="M160.97,353a1.47,1.47,0,1,0,1.469,1.47A1.47,1.47,0,0,0,160.97,353Zm0,1.8a.332.332,0,1,1,.332-.332A.332.332,0,0,1,160.97,354.8Z" transform="translate(771.467 -143.729)" fill="#0635c9"/>
    <path id="Path_4178" data-name="Path 4178" d="M105.827,379a1.327,1.327,0,1,0,1.327,1.327A1.327,1.327,0,0,0,105.827,379Zm0,1.517a.19.19,0,1,1,.19-.19A.19.19,0,0,1,105.827,380.517Z" transform="translate(818.253 -167.265)" fill="#0635c9"/>
    <path id="Path_4179" data-name="Path 4179" d="M93.229,235.822a.569.569,0,0,0-.672.443,21.04,21.04,0,0,1-1.736,5.076.569.569,0,0,0,1.02.5,22.18,22.18,0,0,0,1.831-5.35A.569.569,0,0,0,93.229,235.822Z" transform="translate(830.688 -37.65)" fill="#0635c9"/>
    <path id="Path_4180" data-name="Path 4180" d="M113.364,208.981a.569.569,0,0,0-.615.519c-.02.234-.044.472-.072.706a.569.569,0,0,0,.5.632.563.563,0,0,0,.067,0,.569.569,0,0,0,.564-.5c.029-.247.055-.5.076-.744a.569.569,0,0,0-.52-.615Z" transform="translate(810.854 -13.362)" fill="#0635c9"/>
    <path id="Path_4181" data-name="Path 4181" d="M406.935,197.7h-.171v-3.175a.532.532,0,0,0-.57-.522h-5.122a.529.529,0,0,0-.566.522V197.7h-.174a1.569,1.569,0,0,0-1.554,1.557,1.549,1.549,0,0,0,1.348,1.547v18.618a3.508,3.508,0,0,0,7.016,0V200.8a1.547,1.547,0,0,0,1.346-1.547A1.57,1.57,0,0,0,406.935,197.7Zm-5.29-2.56h3.982v2.56h-3.982Zm4.361,14.8a3.083,3.083,0,0,0-1.141.378,2.409,2.409,0,0,1-1.235.3,2.527,2.527,0,0,1-1.264-.3,3.81,3.81,0,0,0-1.1-.363v-9.129h4.74Zm-2.37,11.827a2.375,2.375,0,0,1-2.37-2.348v-8.31a1.921,1.921,0,0,1,.592.229,3.728,3.728,0,0,0,1.786.419,3.493,3.493,0,0,0,1.734-.419,2.124,2.124,0,0,1,.629-.239v8.32A2.375,2.375,0,0,1,403.636,221.767Zm3.3-22.078h-6.6a.428.428,0,0,1,0-.853h6.6a.428.428,0,0,1,0,.853Z" transform="translate(554.873 0.196)" fill="#1ae5be"/>
  </g>
</svg>
