<svg xmlns="http://www.w3.org/2000/svg" width="51.006" height="39.947" viewBox="0 0 51.006 39.947">
  <g id="Group_2203" data-name="Group 2203" transform="translate(-1266.281 -833.053)">
    <path id="Path_4400" data-name="Path 4400" d="M18.84,82.806h2.84a2.859,2.859,0,0,1-2.84-2.862V53.65A2.65,2.65,0,0,1,21.49,51h-2.84A2.65,2.65,0,0,0,16,53.65v26.3A2.859,2.859,0,0,0,18.84,82.806Z" transform="translate(1250.281 782.621)" fill="#d4e1f4"/>
    <path id="Path_4401" data-name="Path 4401" d="M80.894,75.568A.568.568,0,0,0,80.326,75H40.568a.568.568,0,0,0-.568.568V96.3a.568.568,0,0,0,.568.568H80.326a.568.568,0,0,0,.568-.568ZM79.758,95.731H41.136V76.136H79.758Z" transform="translate(1233.553 760.893)" fill="#1ae5be"/>
    <path id="Path_4402" data-name="Path 4402" d="M391.58,220.439a.567.567,0,0,0,.4-.166l1.687-1.687a.568.568,0,1,0-.8-.8l-1.687,1.687a.568.568,0,0,0,.4.97Z" transform="translate(915.769 631.776)" fill="#1ae5be"/>
    <path id="Path_4403" data-name="Path 4403" d="M395.562,226.538a.568.568,0,0,0,.8,0l3.564-3.564a.568.568,0,1,0-.8-.8l-3.564,3.564A.568.568,0,0,0,395.562,226.538Z" transform="translate(911.8 627.804)" fill="#1ae5be"/>
    <path id="Path_4404" data-name="Path 4404" d="M67.568,136.24a.568.568,0,0,0,.568-.568V128.5a.568.568,0,0,0-1.136,0v7.176A.568.568,0,0,0,67.568,136.24Z" transform="translate(1209.109 712.975)" fill="#1ae5be"/>
    <path id="Path_4405" data-name="Path 4405" d="M67.568,104.307a.568.568,0,0,0,.568-.568v-.458a.568.568,0,1,0-1.136,0v.458A.568.568,0,0,0,67.568,104.307Z" transform="translate(1209.109 735.803)" fill="#1ae5be"/>
    <path id="Path_4406" data-name="Path 4406" d="M53.355,45H13.218A3.221,3.221,0,0,0,10,48.217v26.3a3.43,3.43,0,0,0,3.407,3.43H27.941l-.735,3.881h-1.37a2.143,2.143,0,0,0-2.11,2.122v.435a.591.591,0,0,0,.6.567h17.93a.591.591,0,0,0,.6-.567v-.435a2.143,2.143,0,0,0-2.11-2.122H39.273l-.735-3.881H53.355a3.241,3.241,0,0,0,3.218-3.24V48.217A3.221,3.221,0,0,0,53.355,45ZM13.218,46.136H53.355a2.084,2.084,0,0,1,2.083,2.081V71.505h-44.3V48.217A2.084,2.084,0,0,1,13.218,46.136ZM41.675,83.811H24.9a.97.97,0,0,1,.937-.852h14.9a.97.97,0,0,1,.937.852Zm-3.557-1.988H28.361l.735-3.881h8.286Zm15.238-5.017H13.408a2.293,2.293,0,0,1-2.272-2.294V72.641h44.3V74.7A2.1,2.1,0,0,1,53.355,76.806Z" transform="translate(1260.713 788.053)" fill="#0635c9"/>
    <path id="Path_4407" data-name="Path 4407" d="M240.609,342.022a1.609,1.609,0,1,0,1.609,1.609A1.609,1.609,0,0,0,240.609,342.022Zm0,2.083a.473.473,0,1,1,.473-.473A.473.473,0,0,1,240.609,344.1Z" transform="translate(1053.391 519.147)" fill="#0635c9"/>
  </g>
</svg>
