<svg xmlns="http://www.w3.org/2000/svg" width="36.545" height="52.701" viewBox="0 0 36.545 52.701">
  <g id="Group_2198" data-name="Group 2198" transform="translate(-922.654 -562.64)">
    <path id="Path_4351" data-name="Path 4351" d="M88.64,309.315v12.936H91.8V309.315a8.216,8.216,0,0,1,3.144-6.47V301.31A8.235,8.235,0,0,0,88.64,309.315Z" transform="translate(834.646 292.458)" fill="#d4e1f4"/>
    <path id="Path_4352" data-name="Path 4352" d="M112.394,271.631a21.245,21.245,0,0,1-5.126-2.011l-1.452-.8v1.444l.5.275V272.5a5.4,5.4,0,1,1-10.806,0v-1.778l.516-.259v-1.416l-1.667.837a22.584,22.584,0,0,1-4.928,1.753,8.833,8.833,0,0,0-6.792,8.62v12.936a.632.632,0,0,0,.632.632h35.28a.632.632,0,0,0,.632-.632V280.252A8.832,8.832,0,0,0,112.394,271.631ZM100.28,292.555H90.211v-1.932H100.28Zm0-3.2H90.211v-1.265H100.28Zm0-2.53H90.211v-2.213H100.28Zm0-3.478H90.211v-1.265H100.28Zm0-2.53H90.211v-3.3a.632.632,0,0,0-1.265,0v15.036H83.9v-12.3a7.569,7.569,0,0,1,5.041-7.158v1.825a.632.632,0,0,0,1.265,0v-2.18a24.06,24.06,0,0,0,4.034-1.4v1.16a6.667,6.667,0,0,0,6.036,6.638Zm11.334,11.734H101.545v-1.932h10.069Zm0-3.2H101.545v-1.265h10.069Zm0-2.53H101.545v-2.213h10.069Zm0-3.478H101.545v-1.265h10.069Zm0-2.53H101.545v-1.689a6.676,6.676,0,0,0,6.035-6.637V271.2a22.216,22.216,0,0,0,4.034,1.534Zm6.306,11.734h-5.041V273.094a7.569,7.569,0,0,1,5.041,7.158Z" transform="translate(840.014 321.521)" fill="#0635c9"/>
    <path id="Path_4353" data-name="Path 4353" d="M170.135,20.383a1.855,1.855,0,0,0,.567-3.622,11.5,11.5,0,0,0-.859-3.872,9.674,9.674,0,0,0-2.553-3.5V9.132a1.88,1.88,0,0,0-2.982-1.526,9.908,9.908,0,0,0-1.815-.5,1.881,1.881,0,0,0-3.447,0,9.994,9.994,0,0,0-1.814.5,1.881,1.881,0,0,0-2.983,1.525v.258a9.667,9.667,0,0,0-2.55,3.5,11.491,11.491,0,0,0-.861,3.866,1.856,1.856,0,0,0,.566,3.623h.163a9.885,9.885,0,0,0,.469,1.531l.239.6c-.019.018-.039.034-.057.053a1.924,1.924,0,0,0-.57,1.374,1.945,1.945,0,0,0,1.749,1.933l.468,2.99a7.1,7.1,0,0,0,2.017,3.951v3.957a.632.632,0,0,0,.15.409,6.219,6.219,0,0,0,9.49,0,.632.632,0,0,0,.15-.409V33.094a7.132,7.132,0,0,0,2.309-4.23l.468-2.989a1.94,1.94,0,0,0,.963-3.491,12.691,12.691,0,0,0,.506-2ZM164.79,9.132a.616.616,0,0,1,.138-.391c.013-.016.027-.032.041-.045a.618.618,0,0,1,1.056.436V11.7a.619.619,0,0,1-.619.618h-.025a.615.615,0,0,1-.592-.618Zm-4.638-1.265a.622.622,0,0,1,.007-.093h0a.618.618,0,0,1,1.228.094V11.7a.619.619,0,0,1-.619.618h-.025a.615.615,0,0,1-.592-.618Zm-4.638,1.265a.618.618,0,1,1,1.235,0V11.7a.619.619,0,0,1-.619.618h-.025a.615.615,0,0,1-.592-.618Zm8.894,27.4a4.954,4.954,0,0,1-7.26,0V33.821q.2.126.415.24a7.139,7.139,0,0,0,6.722,0c.042-.022.082-.047.123-.07Zm4.326-12.111a.668.668,0,0,1-.477.2h-.35a.632.632,0,0,0-.625.535l-.55,3.514a5.88,5.88,0,0,1-11.617,0l-.55-3.514a.632.632,0,0,0-.625-.535h-.35a.678.678,0,0,1-.677-.678.671.671,0,0,1,.2-.48.656.656,0,0,1,.2-.136.668.668,0,0,1,.279-.06h.35a.632.632,0,0,0,.632-.632V20.383h12.7v2.25a.632.632,0,0,0,.632.632h.35a.677.677,0,0,1,.477,1.157Zm-15.867-4.039h.44v1.306l-.1-.242a8.639,8.639,0,0,1-.344-1.064Zm15.672.453v-.453h.095c-.028.152-.06.3-.095.453Zm-.653-1.718H151.405a.59.59,0,0,1-.416-1.009.582.582,0,0,1,.416-.172h3.224a.632.632,0,1,0,0-1.265H152.11a10.164,10.164,0,0,1,.753-3.283,8.366,8.366,0,0,1,1.386-2.212V11.7a1.874,1.874,0,0,0,1.827,1.882h.055a1.885,1.885,0,0,0,1.884-1.882V9.132a1.88,1.88,0,0,0-.054-.442,8.751,8.751,0,0,1,.927-.259V11.7a1.874,1.874,0,0,0,1.827,1.882h.055a1.885,1.885,0,0,0,1.884-1.882V8.429a8.645,8.645,0,0,1,.928.258,1.876,1.876,0,0,0-.055.444V11.7a1.874,1.874,0,0,0,1.827,1.882h.055A1.885,1.885,0,0,0,167.29,11.7V11.17a8.366,8.366,0,0,1,1.389,2.213,10.162,10.162,0,0,1,.751,3.289H157.011a.632.632,0,1,0,0,1.265h13.124a.591.591,0,0,1,0,1.182Z" transform="translate(780.156 556.658)" fill="#1ae5be"/>
  </g>
</svg>
