<svg xmlns="http://www.w3.org/2000/svg" width="38.431" height="49.749" viewBox="0 0 38.431 49.749">
  <g id="Group_2205" data-name="Group 2205" transform="translate(-1036 -827)">
    <path id="Path_4408" data-name="Path 4408" d="M222.685,523.824h23.839a2.359,2.359,0,0,0,2.337-2.366V497.131a.663.663,0,0,0-.6-.663h-9.226l.121-.192c.076-.121.149-.245.216-.374a6,6,0,0,0-.66-6.563l-3.076-5.489c-1.685-3.159-4.6-3.45-7.42-3.73l-.057-.006c-.393-.04-.8-.08-1.2-.128a11.4,11.4,0,0,1-5.6-1.845l-.046-.025c-.233-.13-.482-.268-.755-.418l-.076-.041.013-.086a1.892,1.892,0,0,0-.064-.822,1.857,1.857,0,0,0-.893-1.1l-2.524-1.36a1.816,1.816,0,0,0-1.4-.137,1.835,1.835,0,0,0-1.087.906l-3.882,7.4a1.877,1.877,0,0,0,.761,2.52l2.523,1.361a1.814,1.814,0,0,0,.858.218,1.834,1.834,0,0,0,1.628-.989l.1-.187.113.065a4.881,4.881,0,0,1,1.732,1.715,7.4,7.4,0,0,0,3.593,3.175,12.54,12.54,0,0,1,1.217.655l5.128,3.235c.037.025.075.047.113.071l.046.027.011.053a6,6,0,0,0,.766,1.9l.119.191H221a.661.661,0,0,0-.657.665v24.317A2.359,2.359,0,0,0,222.685,523.824Zm15.526-28.546-.113.217-.005-.009a4.551,4.551,0,0,1-.745.947l-.036.035h-6.229l-.037-.035a4.576,4.576,0,0,1-1-1.451l-.064-.148.16-.025c.06-.009.119-.022.178-.037a1.721,1.721,0,0,0,1.057-.93,4.343,4.343,0,0,0-.406-3.824l-.052-.083.069-.072a4.513,4.513,0,0,1,5.348-.809A4.665,4.665,0,0,1,238.211,495.278Zm-8.019-6.49-.09.086-2.809-2.978.163-.059a2.336,2.336,0,0,1,.465-.12c2.135-.36,2.771.3,3.722,1.909l.068.115-.12.06A5.836,5.836,0,0,0,230.192,488.788Zm-14.929-3.85a.528.528,0,0,1-.308.26.538.538,0,0,1-.158.025.527.527,0,0,1-.213-.046h-.009l-.035-.023-2.513-1.353a.536.536,0,0,1-.217-.717l3.881-7.4a.524.524,0,0,1,.712-.225l2.527,1.362a.526.526,0,0,1,.251.312.536.536,0,0,1-.037.4Zm13.766,8.172L229,493.1l-5.125-3.236a13.639,13.639,0,0,0-1.337-.719,6.1,6.1,0,0,1-3.057-2.685,6.281,6.281,0,0,0-2.235-2.194l-.1-.061,2.8-5.334.8.445a12.711,12.711,0,0,0,6.057,1.995c.417.049.826.09,1.223.131l.062.006c2.821.282,5.046.5,6.4,3.042l1.705,3.042-.3-.091a5.74,5.74,0,0,0-2.815-.142l-.088.017-.045-.078c-1.188-2.042-2.194-3.338-5.237-2.828a1.9,1.9,0,0,0-1.661,1.061,1.452,1.452,0,0,0,.389,1.467l.04.044,2.833,2.978a3.608,3.608,0,0,1,.933,3.222l-.012.032c-.049.094-.145.254-.247.279a.271.271,0,0,1-.066.008A2.108,2.108,0,0,1,229.029,493.11Zm-7.363,9.378h4.352a.662.662,0,0,0,.657-.664.663.663,0,0,0-.657-.668h-4.352V497.8h25.887v3.356H233.028a.666.666,0,0,0,0,1.332h14.524v18.969a1.033,1.033,0,0,1-.777,1.005l.027.031-.272,0h-23.84a1.031,1.031,0,0,1-1.025-1.037Z" transform="translate(825.569 352.925)" fill="#0635c9"/>
    <path id="Path_3349" data-name="Path 3349" d="M236.641,517.2a.5.5,0,0,1-.539-.443.5.5,0,0,0-1,0,1.455,1.455,0,0,0,1.043,1.371h0a.5.5,0,0,0,1,0h0a1.456,1.456,0,0,0,1.042-1.371,1.5,1.5,0,0,0-1.547-1.451.452.452,0,1,1,.54-.443.5.5,0,0,0,1,0,1.457,1.457,0,0,0-1.042-1.371v-.034a.5.5,0,0,0-1,0v.034a1.457,1.457,0,0,0-1.043,1.371,1.5,1.5,0,0,0,1.547,1.45.452.452,0,1,1,0,.887Z" transform="translate(825.569 352.925)" fill="#1ae5be"/>
    <path id="Path_3350" data-name="Path 3350" d="M238.443,510.4h.383a1.677,1.677,0,0,0,0-3.354h-2.308a1.677,1.677,0,0,0-1.538-2.348h-7.985a1.677,1.677,0,0,0,0,3.355H229.3a1.671,1.671,0,0,0,0,1.339h-.549a20.416,20.416,0,0,1-1.677,6.37,1.673,1.673,0,0,1,0,2.346,1.679,1.679,0,0,0,1.677,1.677h3.765a5.716,5.716,0,1,0,5.923-9.385Zm-1.8.717a4.711,4.711,0,1,1-4.711,4.71,4.716,4.716,0,0,1,4.711-4.71Zm-7.888,3.976h2.217a5.822,5.822,0,0,0-.047.734,5.714,5.714,0,0,0,.032.6h-2.2a.668.668,0,0,1-.669-.669h0a.67.67,0,0,1,.667-.664Zm0-1.008a.668.668,0,0,1-.669-.669h0a.67.67,0,0,1,.669-.67h3.073a5.638,5.638,0,0,0-.632,1.339Zm0,3.354h2.4a5.645,5.645,0,0,0,.59,1.34h-2.991a.669.669,0,1,1,0-1.338Zm3.893-5.7h-3.893a.668.668,0,0,1-.669-.669h0a.67.67,0,0,1,.669-.67h6.081a5.7,5.7,0,0,0-2.187,1.34Zm-1.807-3.685h7.985a.669.669,0,0,1,0,1.339h-7.985a.669.669,0,1,1,0-1.339h0Zm4.139-1.007h-7.985a.67.67,0,0,1,0-1.34h7.985a.67.67,0,0,1,0,1.34Z" transform="translate(825.569 352.925)" fill="#1ae5be"/>
  </g>
</svg>
