<svg xmlns="http://www.w3.org/2000/svg" width="64.258" height="64.152" viewBox="0 0 64.258 64.152">
  <g id="Group_2066" data-name="Group 2066" transform="translate(517.22 -1.424)">
    <path id="Path_3967" data-name="Path 3967" d="M-454.833,17.087h-2.121A32.013,32.013,0,0,0-485.091.424a32.024,32.024,0,0,0-28.136,16.663h-2.122a1.873,1.873,0,0,0-1.871,1.871V46.042a2.03,2.03,0,0,0,2.037,1.88l2.01.108a31.834,31.834,0,0,0,28.082,16.546,32.013,32.013,0,0,0,28.137-16.663h2.121a1.873,1.873,0,0,0,1.871-1.871V18.958A1.873,1.873,0,0,0-454.833,17.087Zm-60.5,28.942V18.971h38.927l-1.884,1.884h-29.666a.942.942,0,0,0-.942.942,3.614,3.614,0,0,1-3.61,3.61.942.942,0,0,0-.942.942v12.3a.942.942,0,0,0,.942.942,3.614,3.614,0,0,1,3.61,3.61.942.942,0,0,0,.942.942h6.375l-1.884,1.884Zm10.378-28.942a25.185,25.185,0,0,1,19.7-9.756,24.927,24.927,0,0,1,15.182,4.981.192.192,0,0,1,.078.144.206.206,0,0,1-.06.162l-4.468,4.468Zm9.573,20.86-4.315,4.315h-7.4a5.507,5.507,0,0,0-4.471-4.471V27.209a5.507,5.507,0,0,0,4.471-4.471h15.664a11.645,11.645,0,0,0-5.3,9.762A11.631,11.631,0,0,0-495.386,37.947Zm40.54,8.083h-31.064a.942.942,0,0,0-.942.942.942.942,0,0,0,.942.942h20.686a25.412,25.412,0,0,1-4.9,4.792.942.942,0,0,0-.194,1.318.94.94,0,0,0,.756.38.938.938,0,0,0,.561-.186,27.264,27.264,0,0,0,6.117-6.3h3.761a30.13,30.13,0,0,1-25.968,14.779,30.142,30.142,0,0,1-25.967-14.779h3.748c.171.245.344.489.523.728a2.079,2.079,0,0,0,1.518.831q.076.005.152.005a2.09,2.09,0,0,0,1.478-.612l14.124-14.123a.942.942,0,0,0,0-1.332.942.942,0,0,0-1.332,0l-3.13,3.13a9.757,9.757,0,0,1-.874-4.04,9.773,9.773,0,0,1,9.762-9.762,9.758,9.758,0,0,1,4.04.874l-6.959,6.959a.942.942,0,0,0,0,1.332.94.94,0,0,0,.666.276.939.939,0,0,0,.666-.276l17.952-17.952a2.09,2.09,0,0,0,.607-1.63,2.08,2.08,0,0,0-.831-1.518,26.79,26.79,0,0,0-16.139-5.355h-.181a27.084,27.084,0,0,0-22.025,11.639h-3.764A30.14,30.14,0,0,1-485.091,2.308a30.129,30.129,0,0,1,25.968,14.779h-3.748c-.171-.246-.345-.49-.522-.728a2.08,2.08,0,0,0-1.518-.831,2.088,2.088,0,0,0-1.63.607l-34.914,34.914a2.09,2.09,0,0,0-.607,1.63,2.08,2.08,0,0,0,.831,1.518,26.789,26.789,0,0,0,16.139,5.355h.181a27.012,27.012,0,0,0,12.38-3.109.942.942,0,0,0,.393-1.272.942.942,0,0,0-1.272-.393,25.122,25.122,0,0,1-11.513,2.891,24.91,24.91,0,0,1-15.182-4.981.193.193,0,0,1-.078-.144.206.206,0,0,1,.06-.162l4.468-4.468h5.733a.942.942,0,0,0,.942-.942.942.942,0,0,0-.942-.942h-3.849l1.884-1.884h29.666a.942.942,0,0,0,.942-.942,3.614,3.614,0,0,1,3.61-3.61.942.942,0,0,0,.942-.942v-12.3a.942.942,0,0,0-.942-.942,3.614,3.614,0,0,1-3.61-3.61.942.942,0,0,0-.942-.942H-468.6l1.884-1.884h11.868Zm-18.6-13.529a11.63,11.63,0,0,0-1.351-5.447l4.315-4.315h7.4a5.508,5.508,0,0,0,4.471,4.471V37.791a5.507,5.507,0,0,0-4.471,4.471h-15.664A11.646,11.646,0,0,0-473.445,32.5Zm-11.646,9.762a9.76,9.76,0,0,1-4.04-.874L-476.2,28.46a9.756,9.756,0,0,1,.874,4.04A9.773,9.773,0,0,1-485.091,42.262Z" transform="translate(0 1)" fill="#1ae5be"/>
    <g id="Group_2065" data-name="Group 2065" transform="translate(-517.22 1.424)">
      <path id="Path_3968" data-name="Path 3968" d="M-390.166,376.652h-2.657l.4-.406-3.458,3.458a2.09,2.09,0,0,0-.607,1.63,2.08,2.08,0,0,0,.831,1.518,26.789,26.789,0,0,0,16.139,5.355h.181a27.013,27.013,0,0,0,12.38-3.109.942.942,0,0,0,.393-1.272.942.942,0,0,0-1.272-.393,25.122,25.122,0,0,1-11.513,2.891,24.909,24.909,0,0,1-15.182-4.981.192.192,0,0,1-.078-.144.206.206,0,0,1,.06-.162Z" transform="translate(411.645 -329.079)" fill="#0635c9"/>
      <path id="Path_3969" data-name="Path 3969" d="M-144.056,385.888a.938.938,0,0,0,.561-.186,27.266,27.266,0,0,0,6.056-6.219h-2.347a25.414,25.414,0,0,1-4.833,4.707.942.942,0,0,0-.194,1.318A.94.94,0,0,0-144.056,385.888Z" transform="translate(191.714 -331.909)" fill="#0635c9"/>
      <path id="Path_3970" data-name="Path 3970" d="M-459.174,275.915a30.128,30.128,0,0,1-25.917,14.695,30.142,30.142,0,0,1-25.967-14.779h3.748c.171.245.344.489.523.728a2.079,2.079,0,0,0,1.518.831q.076.005.152.005a2.09,2.09,0,0,0,1.478-.612l14.124-14.123a.942.942,0,0,0,0-1.332.942.942,0,0,0-1.332,0l-3.13,3.13h0l-7.606,7.606-1.884,1.884H-517.22v.013a2.013,2.013,0,0,0,1.871,1.871l2.176.116a31.834,31.834,0,0,0,28.082,16.547A32.012,32.012,0,0,0-457,275.915Z" transform="translate(517.22 -228.341)" fill="#0635c9"/>
      <path id="Path_3971" data-name="Path 3971" d="M-457.436,7.331a24.927,24.927,0,0,1,15.182,4.981.192.192,0,0,1,.078.144.206.206,0,0,1-.06.162l-4.468,4.468-1.884,1.884h0l-1.884,1.884-9.717,9.717a.942.942,0,0,0,0,1.332.94.94,0,0,0,.666.276.939.939,0,0,0,.666-.276L-440.9,13.951a2.09,2.09,0,0,0,.607-1.63,2.08,2.08,0,0,0-.831-1.518,26.79,26.79,0,0,0-16.139-5.355h-.181a27.084,27.084,0,0,0-22.025,11.639h-3.764A30.14,30.14,0,0,1-457.27,2.308,30.129,30.129,0,0,1-431.3,17.087h-3.748c-.171-.246-.345-.49-.522-.728a2.08,2.08,0,0,0-1.518-.831,2.088,2.088,0,0,0-1.63.607l-.952.952h10.54A32.013,32.013,0,0,0-457.27.424a32.024,32.024,0,0,0-28.136,16.663h8.269A25.185,25.185,0,0,1-457.436,7.331Z" transform="translate(489.399 -0.424)" fill="#0635c9"/>
    </g>
    <path id="Path_3972" data-name="Path 3972" d="M-336.347,125.683l-30.9,30.911,1.8.857,32.874-32.845" transform="translate(-131.147 -108.596)" fill="#1ae5be"/>
    <path id="Path_3973" data-name="Path 3973" d="M-517.219,363.812a1.941,1.941,0,0,0,1.871,1.871c1.9.262,10.094,0,10.094,0l1.787-1.884Z" transform="translate(-0.001 -317.77)" fill="#0ae4b6"/>
    <path id="Path_3974" data-name="Path 3974" d="M-515.336,357.138v1.152l-1.884-.439.271-.868Z" transform="translate(-0.001 -311.809)" fill="#0ae4b6"/>
  </g>
</svg>
