<svg xmlns="http://www.w3.org/2000/svg" width="48.342" height="61.282" viewBox="0 0 48.342 61.282">
  <g id="document" transform="translate(-58 -5)">
    <path id="Path_4568" data-name="Path 4568" d="M67.662,112.644V66.855a3.842,3.842,0,0,1,3.616-3.85L67.813,63A3.839,3.839,0,0,0,64,66.855v45.788a3.814,3.814,0,0,0,3.814,3.826h3.662a3.814,3.814,0,0,1-3.814-3.826Z" transform="translate(-5.267 -50.92)" fill="#d4e1f4"/>
    <path id="Path_4569" data-name="Path 4569" d="M161.406,12.315,153.25,5.209a.728.728,0,0,0-.406-.176L152.557,5a.711.711,0,0,0-.072,0H125.509A4.518,4.518,0,0,0,121,9.558V12.08h1.465V9.559a3.056,3.056,0,0,1,3.046-3.094h26.5V12.9a.771.771,0,0,0,.738.771h7.441V55.347a3.11,3.11,0,0,1-3.08,3.123h-3.878v1.465h3.878a4.576,4.576,0,0,0,4.545-4.587V12.867a.725.725,0,0,0-.244-.552Zm-7.935-4.97,5.538,4.857h-5.538Z" transform="translate(-55.308 0)" fill="#1ae5be"/>
    <g id="Group_2209" data-name="Group 2209" transform="translate(58 11.348)">
      <path id="Path_4570" data-name="Path 4570" d="M122.153,360l-12.544.122a.732.732,0,1,0,0,1.465l12.544-.122a.732.732,0,1,0,0-1.465Z" transform="translate(-102.665 -323.011)" fill="#0635c9"/>
      <path id="Path_4571" data-name="Path 4571" d="M136.28,403H109.608a.732.732,0,1,0,0,1.465H136.28a.732.732,0,0,0,0-1.465Z" transform="translate(-102.665 -360.762)" fill="#0635c9"/>
      <path id="Path_4572" data-name="Path 4572" d="M136.28,444H109.608a.732.732,0,1,0,0,1.465H136.28a.732.732,0,0,0,0-1.465Z" transform="translate(-102.665 -396.756)" fill="#0635c9"/>
      <path id="Path_4573" data-name="Path 4573" d="M87.465,97.392a.732.732,0,0,0-1.465,0v.864a.732.732,0,0,0,1.465,0Z" transform="translate(-82.582 -91.818)" fill="#0635c9"/>
      <path id="Path_4574" data-name="Path 4574" d="M86.732,127.583a.732.732,0,0,0-.732.732v12.011a.732.732,0,0,0,1.465,0V128.315a.732.732,0,0,0-.732-.732Z" transform="translate(-82.582 -118.966)" fill="#0635c9"/>
      <path id="Path_4575" data-name="Path 4575" d="M264.4,150.5a.733.733,0,0,0,.2-.535,12.287,12.287,0,0,0-3.015-7.646.732.732,0,0,0-1.082-.03l-6.931,7.2a.732.732,0,0,0,.527,1.241h9.769a.732.732,0,0,0,.527-.224Zm-8.574-1.241,5.159-5.356a10.791,10.791,0,0,1,2.1,5.356Z" transform="translate(-229.521 -131.677)" fill="#0635c9"/>
      <path id="Path_4576" data-name="Path 4576" d="M129.986,137.45a.665.665,0,0,0-.205-.5.685.685,0,0,0-.527-.162H119.165l7.181-7.519c.016-.017.032-.1.046-.114l.011-.014a.732.732,0,0,0-.056-.973,12.456,12.456,0,1,0,3.639,9.284Zm-12.44-11.466a10.9,10.9,0,0,1,7.242,2.729l-7.316,7.6-7.83-6.963a10.95,10.95,0,0,1,7.9-3.365Zm0,21.981a10.989,10.989,0,0,1-8.848-17.5l8.108,7.211.006.03a.792.792,0,0,0,.687.54h10.97a11.026,11.026,0,0,1-3.282,6.666,10.858,10.858,0,0,1-7.641,3.048Z" transform="translate(-99.35 -116.276)" fill="#0635c9"/>
      <path id="Path_4577" data-name="Path 4577" d="M97.942,70.55a.753.753,0,0,0,.71-.763V64.9a.71.71,0,0,0-.227-.552l-7.6-6.632a3.489,3.489,0,0,0-1.23-.694c-.024,0-.046-.018-.07-.018H62.545A4.545,4.545,0,0,0,58,61.545v45.844a4.546,4.546,0,0,0,4.546,4.546h31.6a4.471,4.471,0,0,0,3.164-1.3,4.579,4.579,0,0,0,1.346-3.276V74.976a.753.753,0,0,0-.71-.763.732.732,0,0,0-.755.732v32.43a3.081,3.081,0,0,1-.841,2.146,3.023,3.023,0,0,1-2.2.948h-31.6a3.08,3.08,0,0,1-3.08-3.08V61.546a3.081,3.081,0,0,1,3.081-3.081H89.007v6.46a.745.745,0,0,0,.742.743h7.437v4.151a.732.732,0,0,0,.755.732ZM90.472,64.2V59.386L96,64.2Z" transform="translate(-58 -57)" fill="#0635c9"/>
    </g>
  </g>
</svg>
